<svg width="398" height="398" viewBox="0 0 398 398" fill="none" xmlns="http://www.w3.org/2000/svg">
<g filter="url(#filter0_dd_990_363)">
<rect x="4" width="390" height="390" rx="50" fill="#0583F2" style="mix-blend-mode:exclusion" shape-rendering="crispEdges"/>
<g clip-path="url(#clip0_990_363)">
<path d="M198.5 341C279.962 341 346 275.633 346 195C346 114.367 279.962 49 198.5 49C117.038 49 51 114.367 51 195C51 275.633 117.038 341 198.5 341Z" fill="white"/>
<path d="M245.351 247.134C245.328 246.978 245.328 246.818 245.351 246.661C246.25 243.95 246.307 241.142 246.373 238.332C246.414 236.621 246.448 234.905 246.373 233.196C246.213 229.66 244.744 226.642 242.433 224.021C240.043 221.311 236.951 219.786 233.42 219.075C229.981 218.381 226.532 218.488 223.084 218.974C221.264 219.23 219.436 219.482 217.636 219.85C215.512 220.286 213.406 220.816 211.308 221.361C209.746 221.767 208.186 222.205 206.661 222.735C204.895 223.348 203.174 224.093 201.421 224.748C200.881 224.958 200.317 225.101 199.742 225.174C199.028 225.258 198.458 225.473 198.149 226.155C196.472 229.795 194.179 233.052 191.761 236.232C189.162 239.638 186.325 242.86 183.273 245.875C175.977 253.1 168.681 260.328 161.385 267.559C160.765 268.174 160.055 268.73 159.997 269.719C159.989 269.842 159.701 269.948 159.541 270.063C159.408 269.872 159.215 269.694 159.161 269.482C159.127 269.349 159.29 269.158 159.381 269.009C162.141 264.279 164.99 259.586 167.636 254.787C169.718 251.015 171.608 247.136 173.476 243.254C174.899 240.297 176.204 237.282 177.472 234.256C178.616 231.57 179.534 228.795 180.217 225.96C180.666 224.045 181.244 222.162 181.727 220.255C182.012 219.123 182.257 217.982 182.462 216.831C183.153 212.917 183.86 209.003 183.977 205.017C184.042 202.759 184.217 200.499 184.163 198.244C184.098 195.071 183.634 191.918 182.785 188.858C182.103 186.36 181.271 183.904 180.295 181.503C176.334 172.063 169.451 164.11 160.636 158.786C158.123 157.284 155.454 156.016 152.776 154.813C149.932 153.534 147.031 152.351 144.087 151.318C141.219 150.311 138.27 149.48 135.325 148.689C132.592 147.956 129.817 147.385 127.064 146.734C126.723 146.654 126.395 146.518 125.922 146.363C126.655 145.712 127.429 145.598 128.137 145.357C130.402 144.588 132.771 144.604 135.124 144.493C135.747 144.463 136.368 144.395 136.991 144.345C137.209 144.313 137.43 144.298 137.65 144.302C141.134 144.583 144.641 144.67 148.078 145.365C150.023 145.758 151.962 146.223 153.865 146.784C156.157 147.453 158.427 148.196 160.676 149.012C162.747 149.765 164.797 150.59 166.796 151.501C169.831 152.897 172.85 154.34 175.809 155.881C179.033 157.561 182.167 159.411 185.377 161.119C188.683 162.877 192.038 164.547 195.364 166.269C196.732 166.979 198.045 167.803 199.449 168.432C201.255 169.243 203.102 169.977 204.975 170.619C206.607 171.186 208.275 171.645 209.969 171.995C212.129 172.433 214.317 172.748 216.5 173.018C217.782 173.16 219.072 173.213 220.362 173.175C222.793 173.135 225.232 173.123 227.65 172.903C231.356 172.564 235.039 172.015 238.501 170.537C241.492 169.285 244.276 167.596 246.76 165.524C249.415 163.309 251.651 160.645 253.363 157.654C254.011 156.52 254.537 155.317 255.151 154.081C255.552 154.437 255.461 154.858 255.388 155.212C255.192 156.287 254.937 157.351 254.625 158.4C253.606 161.567 252.348 164.629 250.58 167.478C247.894 171.815 244.311 175.538 240.066 178.403C237.418 180.194 234.577 181.69 231.596 182.861C228.761 183.988 225.828 184.858 222.834 185.46C221.789 185.671 220.749 185.9 219.71 186.14C216.683 186.832 213.639 187.322 210.534 187.436C209.433 187.476 208.334 187.577 207.233 187.64C205.866 187.721 205.48 188.101 205.444 189.456C205.414 189.966 205.432 190.478 205.498 190.985C205.774 192.602 206.101 194.21 206.395 195.824C206.511 196.468 206.577 197.124 206.698 197.768C207.072 199.772 207.467 201.773 207.848 203.776C207.99 204.528 208.449 204.864 209.204 204.99C209.931 205.116 210.679 205.061 211.382 204.832C213.553 204.138 215.705 203.38 217.896 202.754C219.906 202.178 221.947 201.688 223.998 201.263C225.831 200.875 227.683 200.579 229.546 200.376C231.037 200.218 232.551 200.294 234.055 200.27C234.276 200.27 234.498 200.308 234.717 200.294C238.581 200.049 241.808 201.571 244.792 203.809C247.688 205.98 249.557 208.833 250.63 212.236C251.3 214.363 251.904 216.494 251.77 218.767C251.594 222.044 251.231 225.308 250.685 228.544C250.23 231.167 249.854 233.806 249.266 236.397C248.611 239.316 247.705 242.173 246.557 244.938C246.239 245.693 245.887 246.434 245.55 247.182L245.351 247.134Z" fill="#0583F2"/>
<path d="M276.115 138.334V148.623C276.115 148.842 276.13 149.061 276.115 149.279C276.058 149.941 275.895 150.115 275.22 150.113C274.742 150.113 274.264 150.015 273.786 149.985C270.554 149.784 267.323 149.564 264.089 149.4C262.36 149.312 260.627 149.285 258.895 149.291C254.694 149.306 250.492 149.312 246.292 149.408C244.126 149.457 241.962 149.697 239.796 149.84C238.29 149.941 236.784 150.043 235.276 150.115C234.181 150.167 233.894 149.89 233.89 148.787C233.879 146.014 233.89 143.241 233.89 140.469C233.89 136.419 233.89 132.369 233.89 128.319C233.89 128.063 233.877 127.806 233.899 127.552C233.962 126.857 234.154 126.657 234.846 126.589C235.139 126.558 235.435 126.576 235.73 126.574H274.658C274.767 126.574 274.878 126.574 274.989 126.574C276.015 126.594 276.117 126.685 276.118 127.716C276.122 131.254 276.121 134.794 276.115 138.334Z" fill="#0583F2"/>
<path d="M205.799 146.58C205.222 146.519 204.884 146.453 204.544 146.453C198.317 146.453 192.089 146.461 185.861 146.477C184.06 146.477 183.491 145.865 183.893 144.121C185.024 139.207 187.737 135.499 192.496 133.445C194.983 132.371 197.613 132.397 200.213 132.794C202.863 133.171 205.322 134.372 207.239 136.222C208.9 137.824 210.085 139.742 210.936 141.866C211.168 142.439 211.363 143.026 211.519 143.624C211.74 144.499 211.849 144.638 212.794 144.654C214.194 144.676 215.594 144.654 216.994 144.654C217.326 144.642 217.658 144.661 217.986 144.712C218.463 144.808 218.8 145.092 218.795 145.608C218.795 146.091 218.435 146.31 218.013 146.397C217.723 146.45 217.429 146.473 217.135 146.466C213.892 146.466 210.648 146.466 207.406 146.466C207.023 146.466 206.641 146.513 205.981 146.559C206.42 147.057 206.655 147.364 206.93 147.631C207.484 148.171 207.833 148.883 207.918 149.648C208.357 152.654 207.918 155.46 206.127 157.99C204.056 160.921 201.251 162.604 197.613 162.754C195.701 162.833 193.8 162.793 191.948 162.11C189.515 161.215 187.716 159.611 186.431 157.452C185.107 155.229 184.487 152.822 184.962 150.216C185.208 148.872 185.883 148.262 187.299 148.256C191.095 148.242 194.892 148.226 198.687 148.256C200.492 148.247 202.292 148.056 204.059 147.685C204.691 147.571 205.148 147.188 205.799 146.58Z" fill="#0583F2"/>
<path d="M175.164 204.688H170.407C170.149 204.678 169.891 204.683 169.634 204.702C168.987 204.775 168.801 205.067 169.029 205.674C169.297 206.39 169.615 207.093 169.872 207.808C170.311 209.011 170.457 210.299 170.297 211.568C170.137 212.879 169.461 213.902 168.544 214.763C166.078 217.064 163.093 217.66 159.837 217.185C159.005 217.066 158.191 216.801 157.382 216.555C155.984 216.132 155.234 215.026 154.722 213.798C154.221 212.593 153.757 211.34 153.525 210.064C153.104 207.752 154.003 205.773 155.487 204.026C155.677 203.802 155.895 203.602 156.086 203.381C156.724 202.639 156.744 202.205 156.086 201.471C155.381 200.728 154.819 199.865 154.426 198.921C153.85 197.461 153.813 195.984 154.108 194.506C154.528 192.437 155.358 190.543 156.993 189.086C159.432 186.912 162.185 186.234 165.249 187.541C166.655 188.142 168.1 188.749 169.148 189.96C170.614 191.649 171.547 193.547 171.445 195.82C171.417 196.459 171.178 197.089 171.025 197.72C170.965 197.968 170.855 198.202 170.794 198.45C170.503 199.644 170.845 200.114 172.068 200.123C174.617 200.141 177.155 200.123 179.699 200.123C179.994 200.123 180.289 200.114 180.584 200.123C182.091 200.183 182.376 200.77 181.959 201.885C181.758 202.422 181.774 203.036 181.64 203.602C181.429 204.488 181.189 204.668 180.257 204.674C178.56 204.685 176.865 204.674 175.17 204.674L175.164 204.688ZM162.578 197.727C163.869 197.727 165.083 196.974 165.446 195.944C165.79 194.976 165.37 193.849 164.378 193.076C163.958 192.748 163.442 192.562 162.907 192.545C162.372 192.528 161.845 192.681 161.404 192.982C160.478 193.612 159.789 195.041 160.289 196.347C160.7 197.421 161.095 197.723 162.572 197.727H162.578ZM164.3 209.779C164.42 208.602 163.047 206.931 161.559 207.098C160.499 207.213 158.851 209.244 159.054 210.281C159.285 211.469 160.588 212.418 161.832 212.308C163.129 212.188 164.283 211.008 164.294 209.779H164.3Z" fill="#0583F2"/>
<path d="M255.106 124.689H235.757C235.535 124.689 235.314 124.7 235.094 124.689C234.399 124.646 234.114 124.413 234.119 123.91C234.119 123.255 234.686 122.691 235.311 122.74C236.665 122.847 238.019 122.923 239.371 123.098C242.477 123.476 245.602 123.663 248.731 123.657C253.117 123.682 257.504 123.734 261.887 123.64C265.158 123.569 268.419 123.274 271.691 123.099C272.869 123.035 274.047 122.995 275.226 123.004C275.891 123.004 276.148 123.355 276.121 123.981C276.101 124.414 275.894 124.663 275.449 124.689C275.229 124.701 275.006 124.689 274.787 124.689H255.106Z" fill="#0583F2"/>
</g>
</g>
<defs>
<filter id="filter0_dd_990_363" x="0" y="0" width="398" height="398" filterUnits="userSpaceOnUse" color-interpolation-filters="sRGB">
<feFlood flood-opacity="0" result="BackgroundImageFix"/>
<feColorMatrix in="SourceAlpha" type="matrix" values="0 0 0 0 0 0 0 0 0 0 0 0 0 0 0 0 0 0 127 0" result="hardAlpha"/>
<feOffset dy="4"/>
<feGaussianBlur stdDeviation="2"/>
<feComposite in2="hardAlpha" operator="out"/>
<feColorMatrix type="matrix" values="0 0 0 0 0 0 0 0 0 0 0 0 0 0 0 0 0 0 0.25 0"/>
<feBlend mode="normal" in2="BackgroundImageFix" result="effect1_dropShadow_990_363"/>
<feColorMatrix in="SourceAlpha" type="matrix" values="0 0 0 0 0 0 0 0 0 0 0 0 0 0 0 0 0 0 127 0" result="hardAlpha"/>
<feOffset dy="4"/>
<feGaussianBlur stdDeviation="2"/>
<feComposite in2="hardAlpha" operator="out"/>
<feColorMatrix type="matrix" values="0 0 0 0 0 0 0 0 0 0 0 0 0 0 0 0 0 0 0.25 0"/>
<feBlend mode="normal" in2="effect1_dropShadow_990_363" result="effect2_dropShadow_990_363"/>
<feBlend mode="normal" in="SourceGraphic" in2="effect2_dropShadow_990_363" result="shape"/>
</filter>
<clipPath id="clip0_990_363">
<rect width="295" height="292" fill="white" transform="translate(51 49)"/>
</clipPath>
</defs>
</svg>
