<svg width="1165" height="811" viewBox="0 0 1165 811" fill="none" xmlns="http://www.w3.org/2000/svg">
<path d="M394.467 693.446C417.182 693.446 435.597 675.031 435.597 652.316C435.597 629.6 417.182 611.186 394.467 611.186C371.751 611.186 353.337 629.6 353.337 652.316C353.337 675.031 371.751 693.446 394.467 693.446Z" fill="#009FE3"/>
<path d="M392.254 800.377C362.965 799.923 334.47 790.793 310.37 774.143C286.271 757.493 267.651 734.07 256.864 706.837C246.077 679.603 243.608 649.783 249.77 621.147C255.932 592.51 270.447 566.345 291.481 545.958C312.514 525.572 339.121 511.881 367.935 506.617C396.75 501.352 426.479 504.751 453.362 516.383C480.245 528.015 503.075 547.358 518.964 571.966C534.853 596.574 543.088 625.341 542.628 654.629C541.966 693.881 525.764 731.269 497.574 758.592C469.384 785.915 431.508 800.942 392.254 800.377ZM396.008 560.77C377.905 560.488 360.125 565.579 344.916 575.401C329.706 585.223 317.751 599.334 310.561 615.95C303.371 632.566 301.269 650.941 304.522 668.751C307.775 686.562 316.236 703.008 328.835 716.01C341.434 729.012 357.605 737.986 375.304 741.798C393.003 745.61 411.435 744.088 428.27 737.425C445.104 730.761 459.584 719.256 469.88 704.363C480.176 689.471 485.825 671.86 486.112 653.757C486.47 629.468 477.17 606.029 460.256 588.593C443.342 571.157 420.197 561.15 395.907 560.77H396.008Z" fill="#009FE3"/>
<path d="M1016.48 703.2C1039.19 703.2 1057.61 684.785 1057.61 662.069C1057.61 639.354 1039.19 620.939 1016.48 620.939C993.761 620.939 975.347 639.354 975.347 662.069C975.347 684.785 993.761 703.2 1016.48 703.2Z" fill="#009FE3"/>
<path d="M1014.16 810.134C984.878 809.673 956.386 800.538 932.291 783.884C908.196 767.23 889.581 743.805 878.799 716.571C868.018 689.338 865.554 659.518 871.719 630.884C877.885 602.25 892.403 576.088 913.437 555.705C934.472 535.322 961.078 521.634 989.892 516.372C1018.71 511.11 1048.43 514.511 1075.31 526.144C1102.2 537.777 1125.02 557.12 1140.91 581.727C1156.8 606.334 1165.03 635.099 1164.57 664.386C1163.91 703.645 1147.7 741.038 1119.51 768.361C1091.31 795.685 1053.42 810.708 1014.16 810.134ZM1017.92 570.528C999.816 570.245 982.036 575.336 966.827 585.158C951.618 594.98 939.662 609.091 932.472 625.707C925.282 642.323 923.181 660.698 926.433 678.509C929.686 696.319 938.147 712.765 950.746 725.767C963.345 738.769 979.516 747.744 997.215 751.555C1014.91 755.367 1033.35 753.845 1050.18 747.182C1067.02 740.519 1081.5 729.013 1091.79 714.121C1102.09 699.228 1107.74 681.617 1108.02 663.514C1108.38 639.242 1099.1 615.819 1082.2 598.386C1065.31 580.952 1042.19 570.934 1017.92 570.528Z" fill="#009FE3"/>
<path d="M967.062 448.638C970.959 447.594 975.113 448.14 978.608 450.158C982.103 452.175 984.653 455.498 985.698 459.396L1037.04 650.943L1007.78 658.787L956.434 467.24C955.395 463.364 955.929 459.236 957.919 455.752C959.91 452.268 963.196 449.711 967.062 448.638Z" fill="#009FE3"/>
<path d="M1077.28 334.571C1046.41 328.336 1002.9 370.003 1006.72 413.613C1010.44 455.782 1057.61 489.638 1087.17 479.113C1113.39 469.794 1120.49 427.793 1117.98 401.613C1115.83 378.282 1103.3 339.834 1077.28 334.571Z" fill="#009FE3"/>
<path d="M210.771 214.17C209.665 214.706 354.676 216.684 423.226 217.522C433.125 217.651 442.675 221.2 450.256 227.566C457.838 233.932 462.985 242.723 464.825 252.451L499.519 435.776C500.423 440.62 500.24 445.604 498.983 450.369C497.726 455.133 495.428 459.559 492.253 463.328C489.078 467.096 485.106 470.112 480.623 472.159C476.141 474.206 471.26 475.232 466.333 475.163L326.283 474.292C318.34 474.222 310.516 476.233 303.59 480.124C289.645 488.069 272.583 501.913 251.465 526.651C231.422 550.158 217.357 578.16 210.469 608.274C203.817 590.197 200.413 571.087 200.413 551.825C199.642 509.153 224.648 480.091 231.353 472.951L216.57 472.716C206.713 472.557 197.322 468.493 190.459 461.417C183.596 454.34 179.822 444.829 179.965 434.972L183.016 241.188C183.122 233.927 186.103 227.005 191.307 221.94C196.51 216.875 203.51 214.081 210.771 214.17Z" fill="#009FE3"/>
<path d="M742.846 734.406C744.973 735.343 747.275 735.815 749.598 735.789C751.922 735.763 754.213 735.241 756.318 734.257C758.423 733.273 760.293 731.849 761.803 730.083C763.312 728.316 764.427 726.247 765.071 724.015C765.941 720.779 765.822 717.358 764.728 714.191C763.635 711.024 761.617 708.258 758.936 706.249L740.869 692.639C738.968 691.2 737.711 689.069 737.372 686.709C737.033 684.349 737.639 681.951 739.059 680.035L837.442 545.349C841.29 540.095 843.872 534.024 844.989 527.609C846.106 521.194 845.726 514.608 843.881 508.363C842.035 502.118 838.772 496.384 834.347 491.607C829.922 486.83 824.454 483.139 818.369 480.821L671.414 424.741C666.368 422.818 662.178 419.15 659.607 414.401C657.036 409.652 656.254 404.139 657.402 398.863C662.26 375.776 671.973 353.986 685.895 334.939C689.507 330.054 693.39 325.376 697.526 320.927C700.865 317.302 705.4 315.004 710.298 314.457C713.851 314.122 716.533 314.457 717.27 316.234C737.651 364.035 751.763 382.303 761.551 388.807L783.004 402.952C807.677 412.893 833.142 420.742 859.13 426.417C881.36 431.26 903.911 434.487 926.608 436.071C934.575 436.725 942.485 434.259 948.67 429.194C954.855 424.128 958.831 416.859 959.76 408.919C959.76 408.047 959.76 407.142 959.927 406.237V405.902C959.954 398.316 957.147 390.994 952.056 385.37C946.965 379.746 939.958 376.226 932.407 375.499C911.086 373.377 890.05 368.995 869.656 362.426C865.466 361.085 861.376 359.643 857.454 358.202C846.48 354.065 836.498 347.665 828.159 339.418C819.82 331.171 813.309 321.262 809.05 310.334C794.748 273.953 780.423 237.65 766.076 201.425C762.256 191.732 754.846 183.884 745.388 179.513C735.929 175.143 725.15 174.587 715.292 177.961C667.033 193.81 624.244 222.991 591.869 262.131C571.756 286.803 518.961 355.554 539.744 457.658C553.152 523.694 648.921 536.6 720.756 552.187L661.089 683.052C660.345 684.664 659.928 686.407 659.862 688.181C659.796 689.955 660.084 691.724 660.708 693.386C661.331 695.049 662.279 696.57 663.495 697.863C664.711 699.156 666.172 700.195 667.793 700.919L742.846 734.406Z" fill="#009FE3"/>
<path d="M948.9 98.3186C949.67 98.4986 950.472 98.4892 951.238 98.2914C952.004 98.0935 952.71 97.7131 953.297 97.1826C953.883 96.6521 954.332 95.9874 954.606 95.2453C954.879 94.5033 954.969 93.706 954.867 92.9218C953.664 80.8078 950.447 68.9798 945.347 57.9261C935.723 40.2049 921.322 25.5375 903.781 15.5893C887.052 5.69575 867.997 0.420585 848.562 0.302798C829.127 0.185011 810.01 5.22882 793.162 14.9189C774.994 25.4444 758.368 41.9366 746.736 70.4629C739.868 86.6633 737.394 104.388 739.563 121.85C741.315 135.778 746.246 149.117 753.977 160.835C768.893 183.026 789.81 191.674 816.392 202.233L906.664 224.893C912.797 226.421 919.252 226.035 925.16 223.788C931.068 221.541 936.147 217.54 939.715 212.323L945.749 200.054C946.156 199.186 946.372 198.241 946.383 197.282C946.394 196.324 946.199 195.374 945.811 194.497C945.424 193.62 944.852 192.837 944.136 192.199C943.42 191.562 942.575 191.086 941.66 190.803L843.343 165.226C841.213 164.68 839.277 163.55 837.755 161.963C836.232 160.375 835.184 158.394 834.728 156.243L821.018 94.5643C820.258 91.7812 820.22 88.8502 820.908 86.0484C821.596 83.2466 822.988 80.6666 824.951 78.5524C826.914 76.4382 829.384 74.8597 832.127 73.9662C834.87 73.0727 837.796 72.8938 840.628 73.4462L948.9 98.3186Z" fill="#009FE3"/>
<path d="M840.227 98.5535C843.948 98.5535 846.965 95.5369 846.965 91.8158C846.965 88.0947 843.948 85.0781 840.227 85.0781C836.506 85.0781 833.489 88.0947 833.489 91.8158C833.489 95.5369 836.506 98.5535 840.227 98.5535Z" fill="#009FE3"/>
<path d="M10.8201 773.364L239.03 776.917C240.892 776.987 242.739 776.549 244.371 775.648C246.003 774.748 247.359 773.42 248.293 771.807C249.227 770.194 249.704 768.357 249.672 766.493C249.641 764.63 249.102 762.81 248.114 761.229L235.577 740.279C234.594 738.644 233.179 737.313 231.487 736.432C229.795 735.55 227.893 735.153 225.99 735.284L10.1161 751.508C7.41143 751.739 4.88784 752.963 3.03123 754.943C1.17462 756.924 0.116255 759.521 0.0599049 762.235C0.0150519 765.136 1.12257 767.937 3.13964 770.024C5.15671 772.11 7.91871 773.311 10.8201 773.364Z" fill="#009FE3"/>
<path d="M193.776 704.244L81.5149 704.914C80.3298 704.919 79.1556 704.687 78.0611 704.232C76.9666 703.778 75.9736 703.11 75.1403 702.267C74.307 701.424 73.65 700.424 73.2078 699.325C72.7656 698.225 72.547 697.048 72.5649 695.863C72.603 693.765 73.3802 691.747 74.7599 690.165C76.1395 688.583 78.033 687.538 80.107 687.215L187.776 670.723C189.949 670.416 192.161 670.9 194.007 672.088C195.853 673.276 197.21 675.087 197.832 677.192L202.391 692.578C202.762 693.925 202.823 695.338 202.568 696.711C202.313 698.085 201.75 699.382 200.92 700.506C200.09 701.629 199.016 702.549 197.778 703.197C196.541 703.845 195.172 704.202 193.776 704.244Z" fill="#009FE3"/>
<path d="M351.728 266.059L300.542 350.095L318.777 357.302L294.508 414.489L351.829 335.815L332.353 327.1L351.728 266.059Z" fill="white"/>
</svg>
