<svg width="3836" height="811" viewBox="0 0 3836 811" fill="none" xmlns="http://www.w3.org/2000/svg">
<path d="M1398.97 216.25H1456.46C1495.54 216.25 1531.18 226.574 1553.67 249C1571.5 266.833 1580.69 288.655 1580.69 317.986V320.265C1580.69 373.898 1549.65 400.715 1517.47 412.816C1556.55 426.593 1585.85 453.041 1585.85 505.333V509.356C1585.85 578.912 1532.42 618.567 1455.38 618.567H1399.07L1398.97 216.25ZM1524.27 327.17C1524.27 288.085 1500.13 268.542 1463.33 268.542H1454.71V390.96H1461.05C1500.7 390.96 1524.27 369.138 1524.27 328.31V327.17ZM1528.73 502.451C1528.73 462.796 1502.85 440.404 1462.06 440.404H1454.58V566.241H1460.92C1501.71 566.241 1528.73 544.419 1528.73 505.333V502.451Z" fill="#1D1D1B"/>
<path d="M1601.27 532.352V523.738C1601.27 458.774 1629.43 426.527 1673.1 426.527C1688.35 426.734 1703.32 430.682 1716.68 438.025V413.89C1716.68 377.687 1701.16 359.854 1669.55 359.854C1651.01 360.198 1632.85 365.139 1616.69 374.235V322.076C1635.73 313.694 1656.23 309.138 1677.03 308.668C1707.5 308.668 1728.75 316.713 1745.41 332.803C1762.67 350.066 1771.29 375.911 1771.29 409.901V618.534H1716.21V582.332C1704.14 609.953 1686.34 623.764 1662.81 623.764C1625.94 623.764 1601.27 587.528 1601.27 532.352ZM1716.78 533.492V478.317C1707.47 473.645 1697.31 470.908 1686.91 470.272C1666.2 470.272 1654.13 487.032 1654.13 520.855V527.76C1654.13 562.219 1665.63 577.74 1683.46 577.74C1702.43 577.74 1716.78 559.37 1716.78 533.492Z" fill="#1D1D1B"/>
<path d="M1857.03 574.889V618.466H1802.43V212.797H1857.03V356.467C1867.93 333.505 1883.85 307.057 1914.02 307.057C1952.53 307.057 1983.57 347.282 1983.57 454.18V476.606C1983.57 582.364 1952.53 623.728 1914.02 623.728C1883.45 623.762 1867.93 598.454 1857.03 574.889ZM1928.87 474.326V456.493C1928.87 392.804 1915.06 358.78 1893.8 358.78C1872.55 358.78 1856.43 393.273 1856.43 455.99V474.963C1856.43 537.613 1872.55 572.173 1893.8 572.173C1915.06 572.173 1928.87 536.943 1928.87 474.293V474.326Z" fill="#1D1D1B"/>
<path d="M1998.39 532.352V523.738C1998.39 458.774 2026.55 426.527 2070.22 426.527C2085.47 426.739 2100.43 430.687 2113.8 438.025V413.89C2113.8 377.687 2098.28 359.854 2066.67 359.854C2048.12 360.198 2029.95 365.139 2013.77 374.235V322.076C2032.81 313.697 2053.32 309.141 2074.11 308.668C2104.58 308.668 2125.87 316.713 2142.53 332.803C2159.76 350.066 2168.37 375.911 2168.37 409.901V618.534H2113.33V582.332C2101.26 609.953 2083.45 623.764 2059.9 623.764C2023.13 623.764 1998.39 587.528 1998.39 532.352ZM2113.94 533.492V478.317C2104.61 473.649 2094.44 470.912 2084.03 470.272C2063.35 470.272 2051.28 487.032 2051.28 520.855V527.76C2051.28 562.219 2062.78 577.74 2080.58 577.74C2099.55 577.74 2113.94 559.37 2113.94 533.492Z" fill="#1D1D1B"/>
<path d="M2199.55 312.217H2254.15V351.302C2265.65 326.597 2281.74 307.055 2311.14 307.055C2350.79 307.055 2373.22 339.805 2373.22 392.097V618.564H2318.51V403.595C2318.51 371.985 2307.01 355.895 2288.04 355.895C2267.93 355.895 2254.15 374.297 2254.15 404.768V618.564H2199.55V312.217Z" fill="#1D1D1B"/>
<path d="M2392.66 532.352V523.738C2392.66 458.774 2420.82 426.527 2464.5 426.527C2479.74 426.734 2494.71 430.682 2508.07 438.025V413.89C2508.07 377.687 2492.55 359.854 2460.94 359.854C2442.4 360.202 2424.24 365.143 2408.08 374.235V322.076C2427.12 313.694 2447.62 309.138 2468.42 308.668C2498.89 308.668 2520.14 316.713 2536.83 332.803C2554.06 350.066 2562.68 375.911 2562.68 409.901V618.534H2507.54V582.332C2495.51 609.953 2477.73 623.764 2454.17 623.764C2417.37 623.764 2392.66 587.528 2392.66 532.352ZM2508.17 533.492V478.317C2498.86 473.645 2488.7 470.908 2478.31 470.272C2457.59 470.272 2445.52 487.032 2445.52 520.855V527.76C2445.52 562.219 2457.02 577.74 2474.85 577.74C2493.83 577.74 2508.17 559.37 2508.17 533.492Z" fill="#1D1D1B"/>
<path d="M2674.84 216.25H2823.7V269.682H2731.76V389.117H2813.92V442.75H2731.76V565.101H2825.41V618.567H2674.84V216.25Z" fill="#1D1D1B"/>
<path d="M2977.5 507.58L2938.05 544.252L2961.68 618.568H3019.67L2977.5 507.58ZM2892.62 312.188H2835.64L2886.86 446.103L2923.73 405.878L2892.62 312.188Z" fill="#1D1D1B"/>
<path d="M3035.76 312.217H3090.36V356.464C3101.29 333.503 3117.38 307.055 3147.35 307.055C3185.83 307.055 3216.87 347.28 3216.87 454.178V476.603C3216.87 582.361 3185.83 623.726 3147.35 623.726C3116.88 623.726 3101.36 598.451 3090.36 574.886V693.281H3035.76V312.217ZM3162.2 474.29V456.49C3162.2 392.801 3148.42 358.777 3127.13 358.777C3105.85 358.777 3089.79 393.27 3089.79 455.988V474.96C3089.79 537.611 3105.88 572.171 3127.13 572.171C3148.39 572.171 3162.2 536.94 3162.2 474.29Z" fill="#1D1D1B"/>
<path d="M3243.82 312.221H3298.43V352.446C3308.18 325.428 3324.84 307.059 3354.17 308.869V373.832H3353C3318.54 373.832 3298.43 396.224 3298.43 442.785V618.668H3243.82V312.221Z" fill="#1D1D1B"/>
<path d="M3354.74 472.587V460.519C3354.74 359.957 3396.11 307.631 3444.98 307.631C3495.53 307.631 3529.45 359.923 3529.45 460.519V490.386H3409.25C3412.1 549.584 3436.06 572.579 3464.42 572.579C3484.53 572.579 3497.74 565.104 3517.85 551.327L3522.45 602.48C3499.45 616.827 3482.22 623.732 3457.52 623.732C3402.54 623.766 3354.74 572.579 3354.74 472.587ZM3477.73 446.709C3477.73 389.254 3465.66 356.471 3444.98 356.471C3424.87 356.471 3410.49 384.628 3408.74 446.709H3477.73Z" fill="#1D1D1B"/>
<path d="M3540.95 609.35V554.778C3563.38 566.846 3583.49 574.288 3600.15 574.288C3619.12 574.288 3631.76 563.393 3631.76 543.281V542.711C3631.76 528.33 3624.85 513.95 3593.24 484.653C3558.18 450.16 3539.21 423.712 3539.21 387.443V386.303C3539.21 338.033 3573.13 308.132 3620.83 308.132C3637.86 307.764 3654.8 310.713 3670.71 316.814V370.85C3655.19 363.375 3639.67 357.643 3623.01 357.643C3604.04 357.643 3591.97 368.537 3591.97 385.23V385.766C3591.97 400.113 3598.87 411.611 3632.19 443.221C3670.71 481.737 3684.49 506.911 3684.49 540.934V542.074C3684.49 592.087 3648.28 623.697 3602.9 623.697C3581.49 623.175 3560.41 618.293 3540.95 609.35Z" fill="#1D1D1B"/>
<path d="M3692.09 609.354V554.782C3714.52 566.849 3734.63 574.291 3751.29 574.291C3770.26 574.291 3782.9 563.397 3782.9 543.284V542.714C3782.9 528.334 3776 513.953 3744.39 484.656C3709.32 450.163 3690.38 423.715 3690.38 387.446V386.306C3690.38 338.036 3724.27 308.136 3771.97 308.136C3789.05 307.725 3806.04 310.651 3821.99 316.75V370.786C3806.47 363.311 3790.95 357.579 3774.29 357.579C3755.31 357.579 3743.25 368.473 3743.25 385.166V385.77C3743.25 400.117 3750.15 411.614 3783.47 443.224C3821.99 481.74 3835.76 506.914 3835.76 540.938V542.077C3835.76 592.09 3799.56 623.701 3754.17 623.701C3732.72 623.196 3711.59 618.314 3692.09 609.354Z" fill="#1D1D1B"/>
<path d="M2958.02 440.776L2999.19 469.738L2972.61 494.41L2933.72 530.545L2830.61 626.146L2912.9 504.6L2873.92 479.627L2892.06 459.682L2902.35 448.52L3030.6 307.967L2958.02 440.776Z" fill="#009FE3"/>
<path d="M394.755 693.72C417.489 693.72 435.918 675.29 435.918 652.556C435.918 629.822 417.489 611.393 394.755 611.393C372.021 611.393 353.591 629.822 353.591 652.556C353.591 675.29 372.021 693.72 394.755 693.72Z" fill="#009FE3"/>
<path d="M392.373 800.686C363.08 800.225 334.581 791.088 310.481 774.43C286.38 757.772 267.761 734.342 256.976 707.102C246.192 679.862 243.728 650.036 249.895 621.396C256.061 592.755 270.583 566.586 291.622 546.199C312.661 525.811 339.274 512.12 368.094 506.857C396.914 501.594 426.648 504.996 453.535 516.631C480.422 528.267 503.255 547.614 519.147 572.226C535.038 596.839 543.275 625.611 542.814 654.904C542.153 694.171 525.942 731.573 497.738 758.903C469.535 786.233 431.642 801.26 392.373 800.686ZM396.127 561.012C378.012 560.722 360.218 565.812 344.997 575.638C329.775 585.463 317.81 599.583 310.615 616.21C303.42 632.838 301.318 651.226 304.576 669.048C307.834 686.87 316.306 703.325 328.918 716.331C341.53 729.338 357.717 738.311 375.43 742.116C393.144 745.921 411.588 744.386 428.429 737.706C445.269 731.026 459.751 719.501 470.04 704.588C480.329 689.676 485.964 672.047 486.231 653.932C486.563 629.685 477.275 606.294 460.401 588.879C443.526 571.464 420.44 561.444 396.194 561.012H396.127Z" fill="#009FE3"/>
<path d="M1017.07 703.476C1039.8 703.476 1058.23 685.046 1058.23 662.312C1058.23 639.578 1039.8 621.148 1017.07 621.148C994.332 621.148 975.902 639.578 975.902 662.312C975.902 685.046 994.332 703.476 1017.07 703.476Z" fill="#009FE3"/>
<path d="M1014.72 810.441C985.429 809.974 956.933 800.831 932.837 784.169C908.741 767.507 890.127 744.075 879.348 716.835C868.569 689.594 866.109 659.769 872.28 631.131C878.45 602.493 892.974 576.327 914.015 555.943C935.055 535.559 961.667 521.871 990.487 516.611C1019.31 511.35 1049.04 514.754 1075.92 526.39C1102.81 538.027 1125.64 557.374 1141.53 581.985C1157.42 606.597 1165.66 635.367 1165.2 664.659C1164.54 703.935 1148.33 741.347 1120.12 768.68C1091.9 796.013 1054 811.033 1014.72 810.441ZM1018.47 570.767C1000.36 570.485 982.576 575.579 967.36 585.405C952.144 595.232 940.185 609.351 932.993 625.975C925.801 642.599 923.701 660.982 926.958 678.8C930.214 696.618 938.681 713.07 951.289 726.076C963.896 739.081 980.076 748.056 997.784 751.866C1015.49 755.675 1033.93 754.148 1050.77 747.477C1067.61 740.806 1082.1 729.291 1092.39 714.389C1102.69 699.486 1108.33 681.865 1108.61 663.754C1108.97 639.476 1099.68 616.048 1082.78 598.614C1065.88 581.18 1042.75 571.164 1018.47 570.767Z" fill="#009FE3"/>
<path d="M962.628 450.607C966.511 449.576 970.646 450.13 974.121 452.147C977.597 454.164 980.129 457.479 981.16 461.363L1031.86 652.318L1002.7 660.06L952.002 469.105C950.97 465.221 951.524 461.087 953.541 457.611C955.558 454.136 958.873 451.604 962.757 450.573L962.628 450.607Z" fill="#009FE3"/>
<path d="M1077.87 334.716C1047 328.448 1003.46 370.114 1007.28 413.758C1011 455.961 1058.2 489.817 1087.73 479.291C1113.94 469.973 1121.05 427.938 1118.57 401.791C1116.42 378.394 1103.89 339.979 1077.87 334.716Z" fill="#009FE3"/>
<path d="M210.992 214.242C209.886 214.778 355.131 216.756 423.547 217.594C433.446 217.723 442.996 221.271 450.578 227.637C458.159 234.003 463.307 242.795 465.147 252.523L499.639 436.049C500.555 440.896 500.381 445.886 499.129 450.658C497.877 455.429 495.58 459.862 492.403 463.636C489.226 467.41 485.25 470.429 480.762 472.476C476.273 474.523 471.386 475.545 466.454 475.469L326.337 474.598C318.378 474.528 310.541 476.551 303.61 480.464C289.799 488.274 272.704 502.085 251.585 526.857C231.526 550.366 217.46 578.383 210.589 608.514C203.935 590.426 200.53 571.304 200.533 552.031C199.729 509.359 224.802 480.263 231.372 473.089L216.69 472.922C211.805 472.848 206.983 471.811 202.499 469.872C198.015 467.933 193.957 465.129 190.557 461.62C187.158 458.112 184.483 453.967 182.686 449.424C180.889 444.881 180.006 440.029 180.086 435.144L183.102 241.293C183.155 237.685 183.918 234.122 185.349 230.809C186.779 227.496 188.849 224.498 191.439 221.985C194.029 219.473 197.089 217.496 200.444 216.167C203.799 214.838 207.384 214.184 210.992 214.242Z" fill="#009FE3"/>
<path d="M743.303 734.817C745.432 735.748 747.735 736.214 750.059 736.184C752.382 736.153 754.673 735.627 756.777 734.64C758.88 733.653 760.749 732.228 762.258 730.461C763.767 728.694 764.882 726.625 765.527 724.392C766.397 721.157 766.278 717.735 765.184 714.568C764.091 711.402 762.074 708.635 759.393 706.626L741.459 692.916C739.56 691.477 738.303 689.349 737.958 686.992C737.613 684.634 738.208 682.235 739.615 680.312L838.2 545.559C842.047 540.305 844.63 534.234 845.747 527.819C846.863 521.404 846.484 514.818 844.638 508.573C842.792 502.328 839.53 496.594 835.105 491.817C830.68 487.04 825.212 483.349 819.127 481.031L672.104 424.884C667.056 422.962 662.864 419.294 660.287 414.547C657.711 409.8 656.92 404.286 658.059 399.006C662.93 375.907 672.653 354.106 686.585 335.048C690.189 330.168 694.073 325.5 698.217 321.07C701.502 317.461 705.976 315.153 710.821 314.567C714.173 314.232 717.022 314.567 717.793 316.343C738.14 364.144 752.253 382.447 762.074 388.95L783.527 403.095C808.213 413.032 833.689 420.881 859.687 426.56C881.884 431.414 904.401 434.674 927.064 436.314C935.034 436.959 942.944 434.486 949.128 429.415C955.312 424.344 959.287 417.072 960.216 409.129C960.323 408.239 960.379 407.344 960.383 406.447C960.4 406.28 960.4 406.112 960.383 405.945C960.41 398.35 957.599 391.019 952.502 385.389C947.405 379.758 940.389 376.235 932.829 375.508C911.497 373.39 890.45 369.007 870.045 362.435C865.855 361.06 861.765 359.652 857.843 358.177C846.866 354.046 836.881 347.648 828.541 339.4C820.201 331.153 813.693 321.241 809.439 310.31C795.092 274.018 780.79 237.715 766.532 201.401C762.699 191.71 755.282 183.867 745.82 179.498C736.358 175.129 725.578 174.57 715.715 177.936C667.456 193.787 624.659 222.954 592.258 262.073C572.145 286.778 519.283 355.563 540.099 457.701C553.508 523.737 649.344 536.676 721.313 552.263L661.512 683.329C660.767 684.941 660.35 686.684 660.285 688.458C660.219 690.232 660.506 692.002 661.13 693.664C661.754 695.326 662.701 696.847 663.918 698.14C665.134 699.433 666.595 700.472 668.216 701.196L743.303 734.817Z" fill="#009FE3"/>
<path d="M949.455 98.3246C950.232 98.5329 951.049 98.5448 951.833 98.3592C952.616 98.1736 953.341 97.7964 953.943 97.2613C954.544 96.7263 955.003 96.0502 955.279 95.2938C955.555 94.5374 955.638 93.7244 955.522 92.9278C954.274 80.7957 951.012 68.9568 945.868 57.8985C936.222 40.1935 921.827 25.5313 904.302 15.5617C887.568 5.67997 868.512 0.414492 849.079 0.302602C829.645 0.190713 810.53 5.23642 793.683 14.9248C775.515 25.4504 758.889 41.9091 747.224 70.4688C740.379 86.6756 737.905 104.395 740.05 121.856C741.794 135.786 746.702 149.133 754.397 160.874C769.314 183.065 790.231 191.747 816.813 202.306L907.319 224.832C913.456 226.361 919.914 225.973 925.823 223.719C931.733 221.466 936.81 217.455 940.37 212.228L946.404 199.993C946.808 199.112 947.016 198.154 947.014 197.184C947.012 196.215 946.8 195.257 946.392 194.378C945.984 193.499 945.391 192.718 944.652 192.09C943.913 191.462 943.047 191.002 942.114 190.741L843.73 165.132C841.632 164.587 839.725 163.472 838.223 161.91C836.72 160.348 835.679 158.4 835.216 156.282L821.506 94.5703C820.735 91.7863 820.69 88.8516 821.375 86.0453C822.059 83.239 823.451 80.6545 825.416 78.5378C827.382 76.4211 829.856 74.8426 832.604 73.9524C835.352 73.0622 838.282 72.89 841.115 73.4522L949.455 98.3246Z" fill="#009FE3"/>
<path d="M840.713 98.5594C844.434 98.5594 847.451 95.5428 847.451 91.8217C847.451 88.1005 844.434 85.084 840.713 85.084C836.992 85.084 833.976 88.1005 833.976 91.8217C833.976 95.5428 836.992 98.5594 840.713 98.5594Z" fill="#009FE3"/>
<path d="M10.9402 773.67L239.25 777.223C241.084 777.259 242.894 776.803 244.492 775.901C246.089 775 247.416 773.686 248.333 772.098C249.251 770.51 249.725 768.704 249.708 766.87C249.69 765.036 249.181 763.24 248.234 761.67L235.697 740.686C234.713 739.055 233.296 737.728 231.604 736.852C229.912 735.977 228.01 735.586 226.11 735.724L10.2363 751.814C7.52604 752.031 4.99386 753.25 3.13431 755.234C1.27477 757.217 0.221427 759.823 0.180022 762.541C0.135169 765.443 1.24269 768.244 3.25976 770.33C5.27683 772.416 8.03883 773.617 10.9402 773.67Z" fill="#009FE3"/>
<path d="M193.963 704.586L81.6684 705.256C80.4832 705.261 79.3091 705.029 78.2146 704.574C77.12 704.12 76.1271 703.452 75.2938 702.609C74.4604 701.766 73.8035 700.766 73.3613 699.667C72.919 698.567 72.7005 697.39 72.7183 696.205C72.726 694.087 73.4902 692.042 74.8732 690.438C76.2561 688.833 78.1667 687.776 80.2605 687.456L187.963 670.696C190.134 670.403 192.339 670.893 194.182 672.079C196.025 673.265 197.385 675.068 198.019 677.165L202.544 692.585C202.984 693.95 203.098 695.399 202.878 696.816C202.657 698.233 202.108 699.578 201.273 700.745C200.439 701.911 199.344 702.866 198.074 703.533C196.805 704.2 195.397 704.56 193.963 704.586Z" fill="#009FE3"/>
<path d="M353.525 268.877L302.338 352.914L320.574 360.121L296.305 417.341L353.592 338.634L334.15 329.918L353.525 268.877Z" fill="white"/>
</svg>
