<svg width="2598" height="1361" viewBox="0 0 2598 1361" fill="none" xmlns="http://www.w3.org/2000/svg">
<path d="M280.035 1080.12C312.182 1068.12 343.188 1041.03 343.188 987.632V985.352C343.188 956.055 333.97 934.267 316.372 916.4C293.913 894.042 258.314 883.684 219.161 883.684H161.64V1285.93H217.888C294.985 1285.93 348.351 1246.28 348.351 1176.79V1172.77C348.384 1120.34 319.02 1093.93 280.035 1080.12ZM217.318 935.976H225.966C262.839 935.976 286.84 955.552 286.84 994.637V995.777C286.84 1036.57 263.375 1058.36 223.653 1058.36H217.318V935.976ZM291.633 1172.67C291.633 1211.72 264.817 1233.51 223.821 1233.51H217.318V1107.74H224.826C265.621 1107.74 291.633 1129.99 291.633 1169.78V1172.67Z" fill="#1D1D1B"/>
<path d="M508.042 1000.3C491.282 984.18 470.13 976.135 439.694 976.135C418.906 976.541 398.403 981.04 379.356 989.375V1041.6C395.508 1032.56 413.643 1027.64 432.151 1027.29C463.761 1027.29 479.315 1045.05 479.315 1081.26V1105.46C465.957 1098.09 450.99 1094.13 435.738 1093.93C392.161 1093.93 363.937 1126.07 363.937 1191.14V1199.75C363.937 1254.86 388.608 1291.06 425.38 1291.06C448.845 1291.06 466.778 1277.35 478.846 1249.8V1285.97H533.954V1077.23C533.853 1043.34 525.239 1017.5 508.042 1000.3ZM479.349 1200.79C479.349 1226.6 464.935 1245.04 446.029 1245.04C428.162 1245.04 416.732 1229.48 416.732 1195.03V1188.12C416.732 1154.23 428.732 1137.6 449.482 1137.6C459.881 1138.25 470.041 1141 479.349 1145.68V1200.79Z" fill="#1D1D1B"/>
<path d="M676.349 974.397C646.482 974.397 630.459 1000.91 619.364 1023.84V880.203H564.893V1285.8H619.498V1242.23C630.459 1265.69 645.912 1291 676.483 1291C714.965 1291 745.972 1249.74 745.972 1144.01V1121.55C745.838 1014.62 714.831 974.397 676.349 974.397ZM691.333 1141.63C691.333 1204.25 677.489 1239.28 656.27 1239.28C635.052 1239.28 618.928 1204.82 618.928 1142.07V1123.3C618.928 1060.68 634.951 1026.09 656.27 1026.09C677.59 1026.09 691.333 1059.98 691.333 1123.73V1141.63Z" fill="#1D1D1B"/>
<path d="M905.064 1000.3C888.304 984.18 867.152 976.135 836.715 976.135C815.931 976.564 795.432 981.062 776.378 989.375V1041.6C792.578 1032.56 810.756 1027.64 829.307 1027.29C860.884 1027.29 876.236 1045.05 876.236 1081.26V1105.46C862.886 1098.07 847.914 1094.11 832.659 1093.93C789.082 1093.93 760.824 1126.07 760.824 1191.14V1199.75C760.824 1254.86 785.496 1291.06 822.268 1291.06C845.732 1291.06 863.666 1277.35 875.667 1249.8V1285.97H930.875V1077.23C930.875 1043.34 922.227 1017.5 905.064 1000.3ZM876.27 1200.79C876.27 1226.6 861.956 1245.04 842.95 1245.04C825.184 1245.04 813.687 1229.48 813.687 1195.03V1188.12C813.687 1154.23 825.754 1137.6 846.403 1137.6C856.807 1138.22 866.973 1140.97 876.27 1145.68V1200.79Z" fill="#1D1D1B"/>
<path d="M1073.34 974.395C1044.04 974.395 1027.92 993.971 1016.35 1018.68V979.59H962.048V1285.84H1016.59V1072.14C1016.59 1041.6 1030.4 1023.27 1050.48 1023.27C1069.48 1023.27 1080.98 1039.39 1080.98 1070.97V1285.84H1135.35V1059.6C1135.35 1007.14 1112.89 974.395 1073.34 974.395Z" fill="#1D1D1B"/>
<path d="M1299.07 1000.3C1282.31 984.18 1261.12 976.135 1230.68 976.135C1209.9 976.544 1189.39 981.043 1170.35 989.375V1041.6C1186.53 1032.56 1204.7 1027.64 1223.24 1027.29C1254.82 1027.29 1270.17 1045.05 1270.17 1081.26V1105.46C1256.82 1098.08 1241.85 1094.11 1226.59 1093.93C1183.02 1093.93 1154.79 1126.07 1154.79 1191.14V1199.75C1154.79 1254.86 1179.56 1291.06 1216.34 1291.06C1239.8 1291.06 1257.7 1277.35 1269.7 1249.8V1285.97H1324.91V1077.23C1324.98 1043.34 1316.33 1017.5 1299.07 1000.3ZM1270.44 1200.79C1270.44 1226.6 1256.13 1245.04 1237.12 1245.04C1219.35 1245.04 1207.86 1229.48 1207.86 1195.03V1188.12C1207.86 1154.23 1219.96 1137.6 1240.57 1137.6C1250.97 1138.23 1261.14 1140.98 1270.44 1145.68V1200.79Z" fill="#1D1D1B"/>
<path d="M1585.83 1285.83H1587.44V1283.45L1585.83 1285.83Z" fill="#1D1D1B"/>
<path d="M1587.44 1232.37V1283.46L1585.84 1285.83H1436.94V883.652H1585.74V937.051H1493.85V1056.59H1575.95V1110.05H1493.85V1232.37H1587.44Z" fill="#1D1D1B"/>
<path d="M1654.65 979.584H1597.84L1647.28 1109.07L1684.15 1068.68L1654.65 979.584ZM1737.82 1170.45L1698.53 1207.09L1723.61 1286H1781.7L1737.82 1170.45Z" fill="#1D1D1B"/>
<path d="M1909.18 974.395C1879.31 974.395 1863.19 1000.91 1852.19 1023.84V979.59H1797.72V1360.45H1852.26V1242.16C1863.19 1265.62 1878.74 1290.93 1909.24 1290.93C1947.76 1290.93 1978.77 1249.67 1978.77 1143.94V1121.48C1978.7 1014.62 1947.56 974.395 1909.18 974.395ZM1924.09 1141.63C1924.09 1204.25 1910.38 1239.28 1889.06 1239.28C1867.74 1239.28 1851.79 1204.82 1851.79 1142.07V1123.29C1851.79 1060.68 1867.85 1026.08 1889.06 1026.08C1910.28 1026.08 1924.09 1060.04 1924.09 1123.8V1141.63Z" fill="#1D1D1B"/>
<path d="M2060.29 1019.82V979.592H2005.68V1285.84H2060.29V1110.05C2060.29 1063.49 2080.4 1041.04 2114.83 1041.04H2115.97V976.139C2086.7 974.396 2070.01 992.833 2060.29 1019.82Z" fill="#1D1D1B"/>
<path d="M2291.21 1127.82C2291.21 1027.26 2257.33 974.963 2206.71 974.963C2157.94 974.963 2116.57 1027.29 2116.57 1127.82V1140.05C2116.57 1239.98 2164.27 1291.06 2219.38 1291.06C2244.05 1291.06 2261.35 1284.36 2284.28 1269.85L2279.68 1218.69C2259.57 1232.5 2246.36 1239.98 2226.29 1239.98C2198.16 1239.98 2173.96 1217.05 2171.11 1157.82H2291.21V1127.82ZM2170.54 1114.01C2172.28 1051.96 2186.7 1023.84 2206.74 1023.84C2227.49 1023.84 2239.49 1056.59 2239.49 1114.01H2170.54Z" fill="#1D1D1B"/>
<path d="M2394.02 1110.62C2360.7 1078.95 2353.8 1067.52 2353.8 1053.14V1052.57C2353.8 1035.81 2365.9 1025.01 2384.81 1025.01C2401.57 1025.01 2416.99 1030.74 2432.54 1038.25V984.183C2416.58 978.068 2399.58 975.141 2382.49 975.568C2334.89 975.568 2301 1005.4 2301 1053.71V1054.84C2301 1091.05 2319.91 1117.46 2354.94 1152.06C2386.55 1181.42 2393.45 1195.63 2393.45 1210.15V1210.45C2393.45 1230.56 2380.78 1241.46 2361.88 1241.46C2345.12 1241.46 2325 1233.98 2302.71 1221.88V1276.48C2322.19 1285.44 2343.29 1290.31 2364.73 1290.8C2410.15 1290.8 2446.35 1259.22 2446.35 1209.31V1208.14C2446.35 1174.38 2432.54 1149.04 2394.02 1110.62Z" fill="#1D1D1B"/>
<path d="M2545.14 1110.62C2511.82 1078.94 2504.91 1067.51 2504.91 1053.13V1052.56C2504.91 1035.8 2516.91 1025.01 2535.92 1025.01C2552.68 1025.01 2568.1 1030.74 2583.65 1038.25V984.182C2567.69 978.075 2550.69 975.148 2533.6 975.567C2485.9 975.567 2452.01 1005.4 2452.01 1053.7V1054.84C2452.01 1091.05 2471.02 1117.46 2506.05 1152.05C2537.66 1181.42 2544.57 1195.63 2544.57 1210.15V1210.45C2544.57 1230.56 2531.89 1241.45 2512.99 1241.45C2496.23 1241.45 2476.12 1233.98 2453.76 1221.88V1276.48C2473.24 1285.42 2494.34 1290.29 2515.77 1290.8C2561.19 1290.8 2597.36 1259.22 2597.36 1209.31V1208.13C2597.36 1174.38 2583.65 1149.04 2545.14 1110.62Z" fill="#1D1D1B"/>
<path d="M1587.44 1283.45V1285.83H1585.83L1587.44 1283.45Z" fill="#009FE3"/>
<path d="M1720.05 1102.01L1761.15 1131.07L1732.82 1157.28L1694.11 1193.22L1592.64 1287.38L1674.83 1165.83L1635.85 1140.96L1652.44 1122.72L1688.95 1082.9L1792.53 969.398L1720.05 1102.01Z" fill="#009FE3"/>
<path d="M1797.72 979.584V987.059L1801.84 979.584H1797.72ZM1585.83 1285.83H1587.44V1283.45L1585.83 1285.83Z" fill="white"/>
<path d="M1108.4 693.491C1131.11 693.491 1149.53 675.076 1149.53 652.36C1149.53 629.645 1131.11 611.23 1108.4 611.23C1085.68 611.23 1067.27 629.645 1067.27 652.36C1067.27 675.076 1085.68 693.491 1108.4 693.491Z" fill="#009FE3"/>
<path d="M1110.68 504.33C1081.4 503.876 1052.64 512.115 1028.05 528.003C1003.45 543.891 984.116 566.716 972.491 593.592C960.866 620.467 957.47 650.187 962.735 678.992C967.999 707.797 981.686 734.395 1002.07 755.421C1022.45 776.448 1048.6 790.959 1077.23 797.121C1105.86 803.282 1135.67 800.817 1162.89 790.036C1190.12 779.256 1213.54 760.645 1230.18 736.556C1246.83 712.468 1255.97 683.983 1256.43 654.705C1257.02 615.443 1242 577.552 1214.67 549.356C1187.34 521.16 1149.94 504.965 1110.68 504.33ZM1106.92 743.87C1088.82 743.555 1071.21 737.878 1056.33 727.555C1041.45 717.233 1029.97 702.73 1023.34 685.88C1016.7 669.03 1015.21 650.591 1019.06 632.895C1022.9 615.199 1031.91 599.042 1044.94 586.466C1057.97 573.891 1074.44 565.462 1092.26 562.247C1110.08 559.032 1128.46 561.175 1145.06 568.405C1161.66 575.634 1175.75 587.625 1185.54 602.862C1195.33 618.098 1200.37 635.895 1200.04 654.001C1199.58 678.255 1189.51 701.335 1172.06 718.181C1154.6 735.027 1131.18 744.265 1106.92 743.87Z" fill="#009FE3"/>
<path d="M1730.41 703.244C1753.13 703.244 1771.54 684.83 1771.54 662.114C1771.54 639.399 1753.13 620.984 1730.41 620.984C1707.7 620.984 1689.28 639.399 1689.28 662.114C1689.28 684.83 1707.7 703.244 1730.41 703.244Z" fill="#009FE3"/>
<path d="M1732.72 514.052C1724.88 513.933 1717.03 514.437 1709.26 515.561C1699.23 516.976 1689.38 519.494 1679.9 523.069C1645.27 535.761 1616.64 560.935 1599.61 593.65C1582.59 626.365 1578.41 664.26 1587.89 699.9C1597.37 735.54 1619.82 766.351 1650.85 786.288C1681.87 806.225 1719.23 813.849 1755.58 807.663C1791.94 801.477 1824.67 781.928 1847.36 752.853C1870.04 723.777 1881.04 687.273 1878.2 650.504C1875.36 613.735 1858.88 579.356 1832 554.111C1805.11 528.866 1769.77 514.579 1732.89 514.052H1732.72ZM1728.97 753.659C1708.03 753.305 1687.84 745.782 1671.77 732.345C1655.7 718.908 1644.73 700.369 1640.67 679.819C1636.62 659.269 1639.73 637.95 1649.49 619.418C1659.25 600.885 1675.07 586.258 1694.31 577.977C1703.67 573.943 1713.64 571.539 1723.81 570.87C1726.49 570.602 1729.17 570.602 1731.85 570.602C1755.95 571.244 1778.82 581.365 1795.51 598.768C1812.19 616.172 1821.33 639.452 1820.95 663.556C1820.57 687.66 1810.7 710.642 1793.48 727.511C1776.26 744.381 1753.08 753.777 1728.97 753.659Z" fill="#009FE3"/>
<path d="M1676.02 450.482C1679.91 449.451 1684.04 450.005 1687.52 452.022C1690.99 454.039 1693.52 457.354 1694.56 461.238L1745.23 652.096L1716.07 659.838L1665.4 468.98C1664.37 465.119 1664.91 461.008 1666.9 457.544C1668.89 454.08 1672.17 451.542 1676.02 450.482Z" fill="#009FE3"/>
<path d="M1791.19 334.612C1760.35 328.377 1716.84 370.044 1720.79 413.654C1724.51 455.823 1771.68 489.679 1801.24 479.154C1827.46 469.835 1834.56 427.834 1832.05 401.654C1829.77 378.323 1817.2 339.875 1791.19 334.612Z" fill="#009FE3"/>
<path d="M924.704 214.208C923.598 214.744 1068.61 216.722 1137.16 217.56C1147.05 217.691 1156.6 221.24 1164.17 227.607C1171.75 233.973 1176.89 242.764 1178.72 252.489L1213.45 435.814C1214.37 440.657 1214.19 445.643 1212.94 450.41C1211.69 455.177 1209.4 459.607 1206.23 463.378C1203.05 467.148 1199.08 470.165 1194.6 472.21C1190.11 474.255 1185.23 475.277 1180.3 475.201L1040.25 474.33C1032.3 474.261 1024.46 476.271 1017.52 480.162C1003.61 488.107 986.516 501.951 965.398 526.689C945.361 550.195 931.308 578.199 924.436 608.312C917.784 590.235 914.379 571.125 914.379 551.863C913.575 509.191 938.648 480.129 945.219 472.955L930.436 472.721C920.579 472.562 911.188 468.498 904.325 461.421C897.462 454.344 893.688 444.833 893.831 434.976L896.881 241.192C896.996 233.926 899.991 227.002 905.208 221.942C910.425 216.882 917.437 214.101 924.704 214.208Z" fill="#009FE3"/>
<path d="M1456.78 734.45C1458.91 735.388 1461.21 735.859 1463.53 735.833C1465.86 735.808 1468.15 735.285 1470.25 734.301C1472.36 733.317 1474.23 731.894 1475.74 730.127C1477.25 728.361 1478.36 726.291 1479 724.059C1479.87 720.824 1479.76 717.402 1478.66 714.235C1477.57 711.068 1475.55 708.302 1472.87 706.293L1454.8 692.683C1452.9 691.244 1451.65 689.116 1451.3 686.759C1450.96 684.401 1451.55 682.002 1452.96 680.079L1551.38 545.393C1555.22 540.137 1557.79 534.067 1558.91 527.653C1560.02 521.24 1559.64 514.656 1557.79 508.413C1555.95 502.171 1552.69 496.438 1548.27 491.66C1543.85 486.882 1538.38 483.188 1532.3 480.865L1385.35 424.785C1380.3 422.862 1376.11 419.194 1373.54 414.445C1370.97 409.697 1370.19 404.183 1371.34 398.907C1376.18 375.822 1385.88 354.031 1399.79 334.983C1403.43 330.105 1407.32 325.428 1411.46 320.971C1414.8 317.346 1419.33 315.049 1424.23 314.502C1427.78 314.166 1430.47 314.502 1431.2 316.278C1451.55 364.079 1465.66 382.348 1475.48 388.851L1496.9 402.997C1521.59 412.932 1547.07 420.781 1573.06 426.461C1595.29 431.304 1617.84 434.531 1640.54 436.115C1648.51 436.76 1656.41 434.291 1662.59 429.228C1668.78 424.164 1672.76 416.9 1673.69 408.963C1673.69 408.092 1673.69 407.187 1673.86 406.282V405.946C1673.89 398.36 1671.08 391.038 1665.99 385.414C1660.9 379.79 1653.89 376.27 1646.34 375.543C1625.02 373.428 1603.98 369.046 1583.59 362.47C1579.37 361.129 1575.31 359.688 1571.35 358.246C1560.39 354.094 1550.42 347.689 1542.09 339.443C1533.76 331.198 1527.25 321.296 1522.98 310.378C1508.68 273.997 1494.36 237.694 1480.01 201.469C1476.18 191.781 1468.77 183.938 1459.32 179.569C1449.86 175.2 1439.08 174.64 1429.23 178.005C1380.97 193.854 1338.18 223.035 1305.8 262.176C1285.69 286.847 1232.86 355.598 1253.64 457.702C1267.05 523.738 1362.85 536.644 1434.66 552.231L1375.02 683.096C1374.28 684.708 1373.86 686.451 1373.8 688.225C1373.73 689.999 1374.02 691.769 1374.64 693.431C1375.26 695.093 1376.21 696.614 1377.43 697.907C1378.64 699.201 1380.11 700.239 1381.73 700.963L1456.78 734.45Z" fill="#009FE3"/>
<path d="M1662.83 98.3608C1663.6 98.5426 1664.4 98.5343 1665.17 98.3366C1665.93 98.139 1666.64 97.7579 1667.22 97.2263C1667.81 96.6948 1668.25 96.0289 1668.52 95.2862C1668.79 94.5435 1668.88 93.7464 1668.77 92.964C1667.58 80.8516 1664.37 69.0234 1659.28 57.9682C1649.66 40.2471 1635.26 25.5796 1617.71 15.6315C1600.98 5.74459 1581.93 0.473312 1562.5 0.355534C1543.06 0.237755 1523.95 5.27769 1507.1 14.961C1488.93 25.4866 1472.3 41.9788 1460.67 70.505C1453.83 86.7143 1451.36 104.431 1453.5 121.892C1455.28 135.819 1460.22 149.154 1467.94 160.877C1482.83 183.068 1503.78 191.716 1530.33 202.275L1620.6 224.935C1626.73 226.458 1633.18 226.07 1639.09 223.824C1645 221.577 1650.08 217.579 1653.65 212.365L1659.65 200.096C1660.06 199.231 1660.27 198.288 1660.29 197.331C1660.3 196.374 1660.11 195.425 1659.72 194.549C1659.34 193.672 1658.77 192.888 1658.06 192.249C1657.35 191.611 1656.51 191.132 1655.59 190.845L1557.28 165.268C1555.14 164.733 1553.2 163.607 1551.68 162.017C1550.15 160.428 1549.11 158.441 1548.66 156.285L1534.95 94.6065C1534.18 91.8257 1534.14 88.8948 1534.82 86.092C1535.51 83.2891 1536.89 80.7073 1538.85 78.5916C1540.82 76.4759 1543.28 74.8965 1546.03 74.0034C1548.77 73.1102 1551.7 72.933 1554.53 73.4884L1662.83 98.3608Z" fill="#009FE3"/>
<path d="M724.754 773.406L952.963 776.959C954.822 777.018 956.661 776.572 958.287 775.669C959.912 774.766 961.262 773.439 962.194 771.83C963.126 770.221 963.604 768.39 963.578 766.53C963.553 764.671 963.023 762.854 962.047 761.271L949.477 740.321C948.5 738.681 947.085 737.345 945.392 736.463C943.699 735.581 941.794 735.187 939.89 735.326L724.05 751.55C721.34 751.767 718.807 752.986 716.948 754.969C715.088 756.953 714.035 759.558 713.993 762.277C713.949 765.178 715.056 767.979 717.073 770.065C719.09 772.152 721.852 773.353 724.754 773.406Z" fill="#009FE3"/>
<path d="M907.674 704.283L795.446 704.953C794.261 704.958 793.087 704.726 791.992 704.272C790.898 703.817 789.905 703.149 789.072 702.307C788.238 701.464 787.581 700.464 787.139 699.364C786.697 698.264 786.478 697.088 786.496 695.903C786.534 693.804 787.311 691.786 788.691 690.204C790.071 688.622 791.964 687.578 794.038 687.254L901.707 670.762C903.906 670.419 906.154 670.886 908.035 672.076C909.915 673.266 911.3 675.098 911.931 677.232L916.456 692.618C916.838 693.978 916.901 695.408 916.639 696.796C916.378 698.185 915.8 699.494 914.951 700.623C914.101 701.751 913.002 702.669 911.74 703.304C910.478 703.939 909.087 704.274 907.674 704.283Z" fill="#009FE3"/>
<path d="M1065.66 266.096L1014.47 350.132L1032.71 357.339L1008.41 414.526L1065.73 335.852L1046.28 327.137L1065.66 266.096Z" fill="white"/>
<path d="M6.73768 914.628C10.4588 914.628 13.4754 911.611 13.4754 907.89C13.4754 904.169 10.4588 901.152 6.73768 901.152C3.01656 901.152 0 904.169 0 907.89C0 911.611 3.01656 914.628 6.73768 914.628Z" fill="#1D1D1B"/>
</svg>
