<svg width="398" height="852" viewBox="0 0 398 852" fill="none" xmlns="http://www.w3.org/2000/svg">
<g filter="url(#filter0_d_990_362)">
<g filter="url(#filter1_dd_990_362)">
<rect width="390" height="844" transform="translate(4)" fill="#0583F2" style="mix-blend-mode:exclusion"/>
</g>
<path d="M110.531 594V576.143H117.036C117.98 576.143 118.83 576.338 119.587 576.73C120.352 577.112 120.956 577.665 121.398 578.388C121.849 579.102 122.074 579.948 122.074 580.926C122.074 581.36 122.01 581.798 121.883 582.24C121.755 582.682 121.56 583.082 121.296 583.439C121.032 583.787 120.692 584.047 120.276 584.217C120.828 584.353 121.279 584.599 121.628 584.957C121.976 585.314 122.248 585.735 122.444 586.219C122.639 586.696 122.771 587.185 122.839 587.686C122.916 588.179 122.954 588.639 122.954 589.064C122.954 590.008 122.72 590.849 122.253 591.589C121.785 592.329 121.156 592.916 120.365 593.349C119.582 593.783 118.715 594 117.763 594H110.531ZM113.643 591.334H117.444C117.954 591.334 118.413 591.211 118.821 590.964C119.23 590.718 119.557 590.378 119.804 589.944C120.05 589.51 120.173 589.017 120.173 588.464C120.173 587.988 120.05 587.537 119.804 587.112C119.557 586.687 119.23 586.343 118.821 586.079C118.413 585.815 117.954 585.684 117.444 585.684H113.643V591.334ZM113.643 583.056H116.679C117.308 583.056 117.844 582.861 118.286 582.469C118.736 582.078 118.962 581.56 118.962 580.913C118.962 580.224 118.736 579.706 118.286 579.357C117.844 579 117.308 578.821 116.679 578.821H113.643V583.056ZM134.448 581.245H137.56V594H134.448L134.307 592.418C133.959 592.988 133.495 593.452 132.917 593.809C132.347 594.157 131.671 594.332 130.889 594.332C129.945 594.332 129.061 594.153 128.236 593.796C127.411 593.439 126.684 592.946 126.055 592.316C125.434 591.687 124.945 590.96 124.588 590.135C124.239 589.31 124.065 588.426 124.065 587.482C124.065 586.572 124.231 585.718 124.562 584.918C124.903 584.119 125.374 583.418 125.978 582.814C126.582 582.21 127.279 581.738 128.07 581.398C128.861 581.058 129.711 580.888 130.621 580.888C131.463 580.888 132.215 581.075 132.879 581.449C133.551 581.823 134.12 582.299 134.588 582.878L134.448 581.245ZM130.812 591.334C131.476 591.334 132.062 591.168 132.573 590.837C133.083 590.505 133.482 590.059 133.772 589.497C134.061 588.928 134.205 588.303 134.205 587.622C134.205 586.934 134.061 586.309 133.772 585.747C133.482 585.178 133.079 584.727 132.56 584.395C132.05 584.064 131.467 583.898 130.812 583.898C130.158 583.898 129.558 584.068 129.014 584.408C128.478 584.74 128.049 585.186 127.726 585.747C127.411 586.309 127.254 586.934 127.254 587.622C127.254 588.311 127.415 588.936 127.738 589.497C128.062 590.059 128.491 590.505 129.027 590.837C129.571 591.168 130.166 591.334 130.812 591.334ZM146.962 580.888C148.203 580.888 149.334 581.19 150.355 581.793C151.375 582.397 152.187 583.209 152.791 584.23C153.395 585.241 153.697 586.364 153.697 587.597C153.697 588.524 153.522 589.395 153.174 590.212C152.825 591.028 152.34 591.747 151.72 592.367C151.107 592.98 150.393 593.46 149.577 593.809C148.769 594.157 147.897 594.332 146.962 594.332C146.163 594.332 145.453 594.153 144.832 593.796C144.22 593.43 143.705 592.958 143.289 592.38V594H140.176V574.867H143.289V582.839C143.705 582.261 144.22 581.793 144.832 581.436C145.453 581.071 146.163 580.888 146.962 580.888ZM146.924 591.321C147.587 591.321 148.186 591.156 148.722 590.824C149.266 590.484 149.7 590.033 150.023 589.472C150.346 588.911 150.508 588.286 150.508 587.597C150.508 586.917 150.346 586.296 150.023 585.735C149.7 585.165 149.266 584.714 148.722 584.383C148.178 584.051 147.578 583.885 146.924 583.885C146.277 583.885 145.699 584.055 145.189 584.395C144.679 584.727 144.279 585.178 143.99 585.747C143.701 586.309 143.556 586.925 143.556 587.597C143.556 588.286 143.701 588.915 143.99 589.485C144.279 590.046 144.679 590.492 145.189 590.824C145.699 591.156 146.277 591.321 146.924 591.321ZM165.364 581.245H168.476V594H165.364L165.223 592.418C164.875 592.988 164.411 593.452 163.833 593.809C163.263 594.157 162.587 594.332 161.805 594.332C160.861 594.332 159.977 594.153 159.152 593.796C158.327 593.439 157.6 592.946 156.971 592.316C156.35 591.687 155.861 590.96 155.504 590.135C155.155 589.31 154.981 588.426 154.981 587.482C154.981 586.572 155.147 585.718 155.479 584.918C155.819 584.119 156.291 583.418 156.894 582.814C157.498 582.21 158.195 581.738 158.986 581.398C159.777 581.058 160.627 580.888 161.537 580.888C162.379 580.888 163.132 581.075 163.795 581.449C164.467 581.823 165.036 582.299 165.504 582.878L165.364 581.245ZM161.729 591.334C162.392 591.334 162.979 591.168 163.489 590.837C163.999 590.505 164.399 590.059 164.688 589.497C164.977 588.928 165.121 588.303 165.121 587.622C165.121 586.934 164.977 586.309 164.688 585.747C164.399 585.178 163.995 584.727 163.476 584.395C162.966 584.064 162.383 583.898 161.729 583.898C161.074 583.898 160.474 584.068 159.93 584.408C159.394 584.74 158.965 585.186 158.642 585.747C158.327 586.309 158.17 586.934 158.17 587.622C158.17 588.311 158.331 588.936 158.655 589.497C158.978 590.059 159.407 590.505 159.943 590.837C160.487 591.168 161.082 591.334 161.729 591.334ZM182.701 585.939V594H179.589V586.755C179.589 586.253 179.466 585.798 179.219 585.39C178.973 584.974 178.641 584.646 178.224 584.408C177.816 584.162 177.361 584.038 176.86 584.038C176.358 584.038 175.899 584.162 175.482 584.408C175.074 584.646 174.746 584.974 174.5 585.39C174.262 585.798 174.143 586.253 174.143 586.755V594H171.03L171.018 581.245H174.13L174.143 582.38C174.576 581.921 175.095 581.56 175.699 581.296C176.303 581.024 176.953 580.888 177.65 580.888C178.577 580.888 179.423 581.117 180.189 581.577C180.954 582.027 181.562 582.635 182.013 583.401C182.472 584.157 182.701 585.003 182.701 585.939ZM194.611 581.245H197.723V594H194.611L194.471 592.418C194.122 592.988 193.658 593.452 193.08 593.809C192.511 594.157 191.834 594.332 191.052 594.332C190.108 594.332 189.224 594.153 188.399 593.796C187.574 593.439 186.847 592.946 186.218 592.316C185.597 591.687 185.108 590.96 184.751 590.135C184.403 589.31 184.228 588.426 184.228 587.482C184.228 586.572 184.394 585.718 184.726 584.918C185.066 584.119 185.538 583.418 186.141 582.814C186.745 582.21 187.442 581.738 188.233 581.398C189.024 581.058 189.874 580.888 190.784 580.888C191.626 580.888 192.379 581.075 193.042 581.449C193.714 581.823 194.283 582.299 194.751 582.878L194.611 581.245ZM190.976 591.334C191.639 591.334 192.226 591.168 192.736 590.837C193.246 590.505 193.646 590.059 193.935 589.497C194.224 588.928 194.369 588.303 194.369 587.622C194.369 586.934 194.224 586.309 193.935 585.747C193.646 585.178 193.242 584.727 192.723 584.395C192.213 584.064 191.63 583.898 190.976 583.898C190.321 583.898 189.721 584.068 189.177 584.408C188.641 584.74 188.212 585.186 187.889 585.747C187.574 586.309 187.417 586.934 187.417 587.622C187.417 588.311 187.579 588.936 187.902 589.497C188.225 590.059 188.654 590.505 189.19 590.837C189.734 591.168 190.329 591.334 190.976 591.334ZM206.393 594V576.143H217.592V579.255H209.505V582.878H215.921V585.99H209.505V590.888H217.592V594H206.393ZM219.161 594L223.83 587.597L219.199 581.232H223.039L225.743 584.944L228.46 581.232H232.299L227.669 587.597L232.337 594H228.498L225.743 590.224L223.001 594H219.161ZM237.432 600.378H234.32V581.245H237.432V582.865C237.849 582.287 238.359 581.819 238.963 581.462C239.575 581.096 240.289 580.913 241.106 580.913C242.041 580.913 242.913 581.088 243.72 581.436C244.528 581.785 245.238 582.27 245.85 582.89C246.471 583.503 246.952 584.213 247.292 585.02C247.64 585.828 247.815 586.696 247.815 587.622C247.815 588.549 247.64 589.421 247.292 590.237C246.952 591.054 246.471 591.772 245.85 592.393C245.238 593.005 244.528 593.486 243.72 593.834C242.913 594.183 242.041 594.357 241.106 594.357C240.289 594.357 239.575 594.179 238.963 593.821C238.359 593.456 237.849 592.984 237.432 592.406V600.378ZM241.067 583.911C240.421 583.911 239.843 584.081 239.333 584.421C238.822 584.753 238.423 585.199 238.134 585.76C237.845 586.321 237.7 586.942 237.7 587.622C237.7 588.303 237.845 588.928 238.134 589.497C238.423 590.059 238.822 590.509 239.333 590.849C239.843 591.181 240.421 591.347 241.067 591.347C241.722 591.347 242.322 591.181 242.866 590.849C243.41 590.518 243.844 590.071 244.167 589.51C244.49 588.94 244.652 588.311 244.652 587.622C244.652 586.942 244.49 586.321 244.167 585.76C243.844 585.199 243.41 584.753 242.866 584.421C242.33 584.081 241.731 583.911 241.067 583.911ZM249.828 594L249.815 581.245H252.928L252.94 582.38C253.374 581.921 253.893 581.56 254.496 581.296C255.1 581.024 255.751 580.888 256.448 580.888C256.916 580.888 257.383 580.956 257.851 581.092L256.627 584.23C256.303 584.102 255.98 584.038 255.657 584.038C255.155 584.038 254.696 584.162 254.28 584.408C253.871 584.646 253.544 584.974 253.297 585.39C253.059 585.798 252.94 586.253 252.94 586.755V594H249.828ZM264.296 594.332C263.123 594.332 262.051 594.03 261.082 593.426C260.121 592.822 259.352 592.01 258.773 590.99C258.204 589.969 257.919 588.843 257.919 587.61C257.919 586.683 258.085 585.815 258.416 585.008C258.748 584.191 259.203 583.477 259.781 582.865C260.368 582.244 261.048 581.759 261.822 581.411C262.596 581.062 263.421 580.888 264.296 580.888C265.291 580.888 266.201 581.1 267.026 581.526C267.859 581.942 268.565 582.516 269.143 583.247C269.722 583.979 270.142 584.812 270.406 585.747C270.67 586.683 270.729 587.661 270.585 588.681H261.261C261.38 589.157 261.575 589.587 261.847 589.969C262.119 590.344 262.464 590.645 262.881 590.875C263.297 591.096 263.769 591.211 264.296 591.219C264.841 591.228 265.334 591.1 265.776 590.837C266.227 590.565 266.601 590.199 266.898 589.74L270.074 590.48C269.556 591.611 268.782 592.537 267.753 593.26C266.724 593.974 265.572 594.332 264.296 594.332ZM261.159 586.347H267.434C267.341 585.837 267.141 585.378 266.835 584.969C266.537 584.553 266.167 584.221 265.725 583.974C265.283 583.728 264.807 583.605 264.296 583.605C263.786 583.605 263.314 583.728 262.881 583.974C262.447 584.213 262.077 584.54 261.771 584.957C261.473 585.365 261.269 585.828 261.159 586.347ZM276.522 594.23C275.859 594.187 275.217 594.055 274.596 593.834C273.984 593.605 273.44 593.294 272.964 592.903C272.487 592.512 272.122 592.044 271.867 591.5L274.494 590.378C274.596 590.548 274.762 590.73 274.992 590.926C275.221 591.113 275.493 591.27 275.808 591.398C276.131 591.526 276.484 591.589 276.867 591.589C277.19 591.589 277.496 591.547 277.785 591.462C278.083 591.368 278.321 591.228 278.499 591.041C278.686 590.854 278.78 590.611 278.78 590.314C278.78 589.999 278.669 589.757 278.448 589.587C278.236 589.408 277.964 589.276 277.632 589.191C277.309 589.098 276.994 589.013 276.688 588.936C275.88 588.775 275.128 588.524 274.43 588.184C273.742 587.844 273.185 587.406 272.76 586.87C272.343 586.326 272.135 585.671 272.135 584.906C272.135 584.064 272.356 583.337 272.798 582.724C273.249 582.112 273.831 581.64 274.545 581.309C275.268 580.977 276.046 580.811 276.879 580.811C277.891 580.811 278.818 581.024 279.66 581.449C280.51 581.866 281.182 582.457 281.675 583.222L279.214 584.676C279.095 584.472 278.929 584.285 278.716 584.115C278.504 583.936 278.261 583.792 277.989 583.681C277.717 583.562 277.432 583.494 277.135 583.477C276.752 583.46 276.403 583.494 276.089 583.579C275.774 583.664 275.519 583.809 275.323 584.013C275.136 584.217 275.043 584.489 275.043 584.829C275.043 585.152 275.17 585.395 275.425 585.556C275.68 585.709 275.987 585.828 276.344 585.913C276.709 585.998 277.058 586.092 277.39 586.194C278.138 586.44 278.84 586.742 279.494 587.099C280.158 587.457 280.689 587.895 281.089 588.413C281.488 588.932 281.68 589.553 281.663 590.276C281.663 591.1 281.416 591.823 280.923 592.444C280.43 593.056 279.792 593.524 279.01 593.847C278.236 594.17 277.407 594.298 276.522 594.23ZM287.608 594.23C286.945 594.187 286.303 594.055 285.682 593.834C285.07 593.605 284.526 593.294 284.05 592.903C283.573 592.512 283.208 592.044 282.953 591.5L285.58 590.378C285.682 590.548 285.848 590.73 286.078 590.926C286.307 591.113 286.579 591.27 286.894 591.398C287.217 591.526 287.57 591.589 287.953 591.589C288.276 591.589 288.582 591.547 288.871 591.462C289.169 591.368 289.407 591.228 289.585 591.041C289.772 590.854 289.866 590.611 289.866 590.314C289.866 589.999 289.755 589.757 289.534 589.587C289.322 589.408 289.05 589.276 288.718 589.191C288.395 589.098 288.08 589.013 287.774 588.936C286.966 588.775 286.214 588.524 285.516 588.184C284.828 587.844 284.271 587.406 283.846 586.87C283.429 586.326 283.221 585.671 283.221 584.906C283.221 584.064 283.442 583.337 283.884 582.724C284.334 582.112 284.917 581.64 285.631 581.309C286.354 580.977 287.132 580.811 287.965 580.811C288.977 580.811 289.904 581.024 290.746 581.449C291.596 581.866 292.268 582.457 292.761 583.222L290.3 584.676C290.181 584.472 290.015 584.285 289.802 584.115C289.59 583.936 289.347 583.792 289.075 583.681C288.803 583.562 288.518 583.494 288.221 583.477C287.838 583.46 287.489 583.494 287.175 583.579C286.86 583.664 286.605 583.809 286.409 584.013C286.222 584.217 286.129 584.489 286.129 584.829C286.129 585.152 286.256 585.395 286.511 585.556C286.766 585.709 287.073 585.828 287.43 585.913C287.795 585.998 288.144 586.092 288.476 586.194C289.224 586.44 289.925 586.742 290.58 587.099C291.243 587.457 291.775 587.895 292.175 588.413C292.574 588.932 292.766 589.553 292.749 590.276C292.749 591.1 292.502 591.823 292.009 592.444C291.516 593.056 290.878 593.524 290.096 593.847C289.322 594.17 288.493 594.298 287.608 594.23Z" fill="white"/>
<g clip-path="url(#clip0_990_362)">
<path d="M198.5 534C258.975 534 308 484.08 308 422.5C308 360.92 258.975 311 198.5 311C138.025 311 89 360.92 89 422.5C89 484.08 138.025 534 198.5 534Z" fill="white"/>
<path d="M233.281 462.315C233.264 462.195 233.264 462.074 233.281 461.954C233.948 459.883 233.991 457.738 234.04 455.593C234.07 454.286 234.095 452.976 234.04 451.67C233.921 448.97 232.831 446.665 231.115 444.663C229.341 442.594 227.045 441.429 224.424 440.886C221.871 440.356 219.311 440.438 216.751 440.809C215.399 441.004 214.043 441.197 212.706 441.478C211.13 441.811 209.566 442.215 208.009 442.632C206.849 442.941 205.69 443.276 204.559 443.681C203.247 444.149 201.97 444.718 200.669 445.219C200.268 445.379 199.849 445.488 199.422 445.544C198.892 445.608 198.469 445.772 198.24 446.293C196.994 449.073 195.292 451.56 193.497 453.988C191.568 456.59 189.462 459.051 187.196 461.353C181.78 466.871 176.363 472.391 170.947 477.913C170.487 478.382 169.959 478.807 169.917 479.563C169.911 479.657 169.696 479.737 169.578 479.825C169.479 479.679 169.336 479.543 169.296 479.382C169.271 479.28 169.392 479.134 169.459 479.021C171.508 475.408 173.623 471.824 175.588 468.159C177.133 465.279 178.536 462.316 179.923 459.351C180.979 457.093 181.948 454.79 182.889 452.48C183.739 450.428 184.42 448.309 184.928 446.144C185.261 444.682 185.69 443.244 186.048 441.787C186.26 440.923 186.442 440.051 186.594 439.172C187.107 436.183 187.632 433.194 187.718 430.15C187.767 428.425 187.897 426.7 187.857 424.977C187.808 422.554 187.464 420.146 186.834 417.809C186.327 415.901 185.71 414.026 184.985 412.192C182.045 404.983 176.935 398.909 170.391 394.844C168.526 393.696 166.544 392.728 164.556 391.809C162.445 390.832 160.291 389.929 158.105 389.14C155.977 388.371 153.787 387.736 151.601 387.133C149.572 386.572 147.512 386.137 145.468 385.639C145.215 385.578 144.971 385.474 144.62 385.356C145.164 384.859 145.739 384.772 146.264 384.588C147.946 384 149.704 384.012 151.452 383.928C151.914 383.905 152.375 383.853 152.837 383.815C152.999 383.79 153.163 383.779 153.327 383.782C155.914 383.997 158.517 384.063 161.068 384.594C162.512 384.894 163.951 385.249 165.365 385.678C167.066 386.188 168.751 386.756 170.421 387.379C171.958 387.954 173.48 388.584 174.964 389.28C177.217 390.346 179.459 391.448 181.655 392.625C184.048 393.908 186.375 395.32 188.758 396.625C191.212 397.967 193.703 399.243 196.172 400.558C197.188 401.1 198.163 401.73 199.205 402.21C200.546 402.829 201.917 403.39 203.307 403.88C204.519 404.313 205.757 404.664 207.014 404.931C208.618 405.266 210.243 405.506 211.863 405.712C212.815 405.821 213.772 405.861 214.73 405.832C216.534 405.801 218.345 405.793 220.141 405.624C222.892 405.366 225.626 404.946 228.196 403.818C230.416 402.862 232.483 401.571 234.327 399.989C236.298 398.298 237.958 396.263 239.229 393.979C239.71 393.113 240.101 392.194 240.556 391.25C240.854 391.522 240.787 391.844 240.732 392.114C240.587 392.935 240.398 393.748 240.166 394.549C239.409 396.967 238.476 399.305 237.163 401.482C235.169 404.793 232.509 407.637 229.357 409.825C227.392 411.193 225.283 412.335 223.07 413.229C220.965 414.09 218.788 414.754 216.565 415.214C215.789 415.376 215.017 415.55 214.246 415.733C211.999 416.262 209.739 416.636 207.434 416.723C206.616 416.754 205.8 416.831 204.983 416.879C203.969 416.941 203.682 417.231 203.655 418.266C203.633 418.655 203.646 419.047 203.695 419.434C203.9 420.668 204.143 421.897 204.361 423.129C204.447 423.621 204.496 424.122 204.586 424.614C204.864 426.144 205.157 427.672 205.44 429.202C205.545 429.776 205.886 430.033 206.446 430.129C206.987 430.225 207.542 430.184 208.063 430.009C209.675 429.479 211.273 428.9 212.899 428.422C214.391 427.982 215.906 427.608 217.429 427.283C218.79 426.987 220.165 426.761 221.548 426.605C222.655 426.485 223.779 426.543 224.895 426.525C225.059 426.525 225.224 426.554 225.387 426.543C228.255 426.356 230.651 427.518 232.866 429.227C235.016 430.886 236.403 433.064 237.2 435.663C237.697 437.288 238.146 438.915 238.046 440.651C237.915 443.153 237.647 445.646 237.241 448.118C236.903 450.12 236.624 452.136 236.187 454.115C235.701 456.344 235.029 458.526 234.177 460.637C233.94 461.214 233.679 461.78 233.429 462.351L233.281 462.315Z" fill="#0583F2"/>
<path d="M256.119 379.224V387.082C256.119 387.249 256.13 387.417 256.119 387.583C256.077 388.089 255.956 388.221 255.455 388.22C255.1 388.22 254.745 388.145 254.39 388.122C251.99 387.968 249.592 387.801 247.191 387.676C245.908 387.608 244.621 387.587 243.336 387.592C240.217 387.603 237.097 387.608 233.979 387.682C232.371 387.719 230.765 387.902 229.157 388.012C228.039 388.089 226.921 388.167 225.801 388.221C224.989 388.261 224.776 388.05 224.772 387.207C224.764 385.09 224.772 382.972 224.772 380.855C224.772 377.762 224.772 374.669 224.772 371.576C224.772 371.38 224.763 371.184 224.779 370.99C224.826 370.459 224.968 370.306 225.482 370.255C225.7 370.231 225.919 370.245 226.138 370.243H255.037C255.119 370.243 255.201 370.243 255.283 370.243C256.045 370.258 256.12 370.328 256.122 371.115C256.124 373.818 256.123 376.521 256.119 379.224Z" fill="#0583F2"/>
<path d="M203.918 385.521C203.49 385.475 203.239 385.425 202.987 385.425C198.364 385.425 193.741 385.431 189.117 385.443C187.78 385.443 187.358 384.976 187.656 383.644C188.496 379.891 190.509 377.059 194.042 375.491C195.889 374.67 197.841 374.69 199.771 374.993C201.738 375.282 203.564 376.198 204.987 377.611C206.221 378.835 207.1 380.299 207.732 381.922C207.904 382.359 208.049 382.808 208.165 383.264C208.329 383.933 208.41 384.039 209.111 384.051C210.151 384.068 211.19 384.051 212.229 384.051C212.476 384.041 212.722 384.056 212.965 384.095C213.32 384.169 213.57 384.385 213.566 384.779C213.566 385.148 213.299 385.315 212.985 385.382C212.77 385.422 212.552 385.44 212.334 385.434C209.926 385.434 207.518 385.434 205.111 385.434C204.827 385.434 204.543 385.47 204.054 385.506C204.379 385.886 204.554 386.121 204.758 386.324C205.169 386.737 205.428 387.281 205.492 387.865C205.817 390.16 205.492 392.304 204.161 394.235C202.624 396.474 200.542 397.759 197.841 397.874C196.422 397.934 195.011 397.904 193.635 397.382C191.83 396.698 190.494 395.473 189.54 393.825C188.557 392.126 188.097 390.289 188.45 388.298C188.632 387.272 189.133 386.806 190.184 386.801C193.003 386.791 195.821 386.779 198.638 386.801C199.979 386.795 201.315 386.649 202.626 386.366C203.096 386.279 203.435 385.986 203.918 385.521Z" fill="#0583F2"/>
<path d="M181.176 429.899H177.645C177.453 429.891 177.262 429.894 177.071 429.91C176.591 429.965 176.452 430.188 176.621 430.652C176.82 431.198 177.057 431.736 177.247 432.281C177.573 433.2 177.681 434.184 177.563 435.153C177.444 436.154 176.942 436.935 176.262 437.593C174.431 439.35 172.215 439.806 169.797 439.443C169.18 439.351 168.576 439.149 167.975 438.961C166.938 438.638 166.381 437.794 166.001 436.856C165.629 435.936 165.284 434.978 165.112 434.004C164.799 432.239 165.467 430.728 166.569 429.393C166.71 429.222 166.872 429.069 167.014 428.9C167.487 428.333 167.502 428.002 167.014 427.442C166.49 426.875 166.072 426.215 165.781 425.495C165.353 424.38 165.326 423.251 165.544 422.123C165.857 420.543 166.473 419.096 167.686 417.984C169.497 416.323 171.541 415.805 173.815 416.803C174.859 417.262 175.932 417.726 176.71 418.651C177.798 419.941 178.491 421.391 178.416 423.126C178.395 423.614 178.217 424.096 178.103 424.577C178.059 424.766 177.977 424.946 177.932 425.135C177.716 426.046 177.97 426.405 178.878 426.413C180.77 426.426 182.654 426.413 184.543 426.413C184.762 426.413 184.981 426.405 185.2 426.413C186.318 426.458 186.53 426.906 186.22 427.758C186.071 428.168 186.083 428.637 185.984 429.069C185.827 429.746 185.649 429.883 184.957 429.888C183.697 429.896 182.439 429.888 181.181 429.888L181.176 429.899ZM171.833 424.582C172.791 424.582 173.692 424.008 173.962 423.221C174.217 422.482 173.905 421.621 173.169 421.031C172.857 420.78 172.474 420.638 172.077 420.625C171.68 420.612 171.288 420.729 170.961 420.958C170.274 421.44 169.762 422.531 170.133 423.528C170.438 424.348 170.732 424.58 171.828 424.582H171.833ZM173.111 433.786C173.2 432.888 172.181 431.612 171.076 431.739C170.289 431.827 169.066 433.378 169.217 434.17C169.388 435.077 170.355 435.802 171.279 435.718C172.242 435.626 173.098 434.726 173.107 433.786H173.111Z" fill="#0583F2"/>
<path d="M240.522 368.804H226.158C225.994 368.804 225.829 368.812 225.666 368.804C225.15 368.771 224.939 368.593 224.942 368.209C224.942 367.709 225.363 367.278 225.827 367.315C226.832 367.397 227.838 367.455 228.841 367.589C231.147 367.878 233.467 368.02 235.79 368.016C239.046 368.035 242.303 368.075 245.556 368.003C247.985 367.949 250.406 367.723 252.835 367.59C253.709 367.54 254.584 367.51 255.459 367.517C255.952 367.517 256.144 367.785 256.124 368.263C256.108 368.594 255.955 368.784 255.625 368.804C255.461 368.813 255.296 368.804 255.133 368.804H240.522Z" fill="#0583F2"/>
</g>
</g>
<defs>
<filter id="filter0_d_990_362" x="0" y="0" width="398" height="852" filterUnits="userSpaceOnUse" color-interpolation-filters="sRGB">
<feFlood flood-opacity="0" result="BackgroundImageFix"/>
<feColorMatrix in="SourceAlpha" type="matrix" values="0 0 0 0 0 0 0 0 0 0 0 0 0 0 0 0 0 0 127 0" result="hardAlpha"/>
<feOffset dy="4"/>
<feGaussianBlur stdDeviation="2"/>
<feComposite in2="hardAlpha" operator="out"/>
<feColorMatrix type="matrix" values="0 0 0 0 0 0 0 0 0 0 0 0 0 0 0 0 0 0 0.25 0"/>
<feBlend mode="normal" in2="BackgroundImageFix" result="effect1_dropShadow_990_362"/>
<feBlend mode="normal" in="SourceGraphic" in2="effect1_dropShadow_990_362" result="shape"/>
</filter>
<filter id="filter1_dd_990_362" x="0" y="0" width="398" height="852" filterUnits="userSpaceOnUse" color-interpolation-filters="sRGB">
<feFlood flood-opacity="0" result="BackgroundImageFix"/>
<feColorMatrix in="SourceAlpha" type="matrix" values="0 0 0 0 0 0 0 0 0 0 0 0 0 0 0 0 0 0 127 0" result="hardAlpha"/>
<feOffset dy="4"/>
<feGaussianBlur stdDeviation="2"/>
<feComposite in2="hardAlpha" operator="out"/>
<feColorMatrix type="matrix" values="0 0 0 0 0 0 0 0 0 0 0 0 0 0 0 0 0 0 0.25 0"/>
<feBlend mode="normal" in2="BackgroundImageFix" result="effect1_dropShadow_990_362"/>
<feColorMatrix in="SourceAlpha" type="matrix" values="0 0 0 0 0 0 0 0 0 0 0 0 0 0 0 0 0 0 127 0" result="hardAlpha"/>
<feOffset dy="4"/>
<feGaussianBlur stdDeviation="2"/>
<feComposite in2="hardAlpha" operator="out"/>
<feColorMatrix type="matrix" values="0 0 0 0 0 0 0 0 0 0 0 0 0 0 0 0 0 0 0.25 0"/>
<feBlend mode="normal" in2="effect1_dropShadow_990_362" result="effect2_dropShadow_990_362"/>
<feBlend mode="normal" in="SourceGraphic" in2="effect2_dropShadow_990_362" result="shape"/>
</filter>
<clipPath id="clip0_990_362">
<rect width="219" height="223" fill="white" transform="translate(89 311)"/>
</clipPath>
</defs>
</svg>
