<svg width="119" height="117" viewBox="0 0 119 117" fill="none" xmlns="http://www.w3.org/2000/svg">
<path d="M94.621 98.7912C94.6023 98.6669 94.6023 98.5403 94.621 98.4156C95.3329 96.2627 95.3782 94.0323 95.4301 91.801C95.4628 90.4421 95.4895 89.0795 95.4301 87.722C95.3039 84.9142 94.14 82.5174 92.3085 80.4359C90.4154 78.2835 87.9655 77.0725 85.1684 76.5076C82.4432 75.9566 79.711 76.0415 76.9792 76.4274C75.5367 76.6305 74.089 76.8309 72.6629 77.1235C70.9801 77.4695 69.3118 77.8902 67.6496 78.3233C66.4113 78.6452 65.1754 78.9935 63.9675 79.4142C62.568 79.9012 61.2045 80.4925 59.8162 81.0133C59.3885 81.1798 58.9416 81.2934 58.4858 81.3514C57.9202 81.4177 57.4687 81.5884 57.2237 82.1306C55.8948 85.0209 54.0783 87.6079 52.1623 90.1328C50.1032 92.8376 47.8562 95.3968 45.4377 97.7908C39.6573 103.529 33.8769 109.269 28.0965 115.011C27.6052 115.5 27.0424 115.942 26.9971 116.727C26.9905 116.825 26.762 116.909 26.6358 117C26.5301 116.848 26.3773 116.707 26.3343 116.539C26.3076 116.433 26.4366 116.281 26.5086 116.163C28.6958 112.407 30.9526 108.68 33.0491 104.869C34.6987 101.873 36.1959 98.7926 37.6763 95.7094C38.8033 93.3612 39.8373 90.9667 40.8418 88.5638C41.7482 86.4304 42.4755 84.2269 43.0168 81.9752C43.3725 80.4549 43.8306 78.9597 44.213 77.4445C44.4387 76.5461 44.6327 75.6399 44.7949 74.7257C45.3428 71.6174 45.9032 68.5091 45.9953 65.3433C46.0472 63.5498 46.1861 61.7555 46.143 59.9643C46.0912 57.4445 45.7242 54.941 45.0511 52.5108C44.5107 50.5267 43.8516 48.5764 43.0785 46.6698C39.9406 39.1731 34.4874 32.8568 27.5029 28.6289C25.5125 27.4356 23.3973 26.4287 21.2756 25.4733C19.0225 24.4576 16.7241 23.5184 14.3916 22.698C12.1198 21.898 9.78309 21.238 7.44962 20.6105C5.2849 20.028 3.08605 19.5749 0.904966 19.0577C0.634784 18.9937 0.374888 18.8861 0 18.7632C0.580563 18.2461 1.19431 18.1557 1.75477 17.9641C3.54928 17.3533 5.42606 17.3658 7.29069 17.2782C7.78384 17.2541 8.27605 17.2003 8.76967 17.1604C8.94263 17.1349 9.11745 17.1233 9.29227 17.1265C12.0525 17.3496 14.831 17.4182 17.5534 17.9706C19.0945 18.2823 20.6305 18.6519 22.139 19.0976C23.9545 19.6287 25.7532 20.2186 27.5346 20.867C29.1754 21.4643 30.7997 22.1197 32.3839 22.8432C34.7884 23.9516 37.1803 25.0976 39.5241 26.322C42.0786 27.6559 44.5617 29.1247 47.1046 30.4813C49.7236 31.8773 52.382 33.2037 55.0174 34.5714C56.1014 35.1349 57.1415 35.7898 58.2535 36.2893C59.6848 36.933 61.1479 37.5165 62.632 38.0262C63.925 38.4761 65.2464 38.8406 66.588 39.1184C68.2993 39.4667 70.0335 39.7172 71.7626 39.931C72.7783 40.0441 73.8006 40.0863 74.8225 40.0562C76.7483 40.0237 78.6807 40.0149 80.5968 39.8396C83.5328 39.5706 86.451 39.1346 89.1935 37.9613C91.5634 36.9669 93.7688 35.6252 95.7367 33.9801C97.8402 32.221 99.6118 30.1047 100.968 27.7296C101.482 26.8294 101.899 25.874 102.385 24.8922C102.703 25.1751 102.631 25.5095 102.573 25.7901C102.417 26.6444 102.215 27.4894 101.968 28.3224C101.16 30.837 100.164 33.2687 98.7634 35.5319C96.6356 38.9756 93.7964 41.9322 90.4331 44.208C88.3353 45.6305 86.085 46.8178 83.723 47.7481C81.477 48.6428 79.1533 49.3338 76.781 49.812C75.9532 49.9799 75.1291 50.1612 74.3059 50.3518C71.908 50.9014 69.496 51.291 67.0358 51.381C66.1636 51.4134 65.2927 51.4937 64.4205 51.5438C63.3379 51.6078 63.0322 51.9097 63.0032 52.9852C62.9794 53.3906 62.9938 53.7973 63.0462 54.1999C63.2645 55.4836 63.5235 56.7609 63.7567 58.0424C63.8488 58.5544 63.9007 59.0752 63.9965 59.5863C64.2933 61.178 64.606 62.767 64.908 64.3578C65.0202 64.9551 65.3839 65.2218 65.9822 65.322C66.5586 65.4217 67.1513 65.3786 67.7075 65.1968C69.4277 64.6458 71.1329 64.0433 72.8686 63.5461C74.4611 63.0888 76.078 62.6997 77.7028 62.3625C79.1552 62.0541 80.6225 61.819 82.0987 61.6576C83.2803 61.5324 84.4793 61.5927 85.6708 61.5736C85.8461 61.5736 86.0219 61.6038 86.1958 61.5927C89.2566 61.3983 91.814 62.607 94.1778 64.3837C96.4725 66.1086 97.9529 68.3737 98.8027 71.0762C99.3337 72.7658 99.8124 74.4577 99.7063 76.2632C99.5665 78.8655 99.2795 81.4576 98.8466 84.0279C98.4858 86.1104 98.188 88.2067 97.722 90.2645C97.2036 92.582 96.4856 94.8509 95.5764 97.0469C95.324 97.6466 95.0449 98.2352 94.7785 98.8288L94.621 98.7912Z" fill="#0BBC5C"/>
<path d="M118.994 12.3865V20.5575C118.994 20.7319 119.005 20.9058 118.994 21.0788C118.948 21.6048 118.819 21.7425 118.284 21.7411C117.906 21.7411 117.527 21.6637 117.148 21.6395C114.587 21.4795 112.028 21.3052 109.465 21.1753C108.096 21.1048 106.723 21.0835 105.351 21.0886C102.022 21.1002 98.6928 21.1048 95.3656 21.1813C93.6491 21.2203 91.935 21.4104 90.2186 21.5245C89.0257 21.6048 87.8327 21.6859 86.6375 21.7425C85.7704 21.7838 85.5432 21.5644 85.5395 20.6878C85.5306 18.4862 85.5395 16.2837 85.5395 14.0821C85.5395 10.8662 85.5395 7.64984 85.5395 4.433C85.5395 4.22986 85.5297 4.0258 85.547 3.82405C85.5965 3.27214 85.7489 3.11306 86.2967 3.05926C86.529 3.03514 86.7637 3.04906 86.9974 3.04767H117.839C117.926 3.04767 118.013 3.04767 118.101 3.04767C118.914 3.06297 118.995 3.13532 118.996 3.95437C118.999 6.76446 118.998 9.57548 118.994 12.3865Z" fill="#0BBC5C"/>
<path d="M63.2837 18.9346C62.8265 18.8869 62.5591 18.8345 62.2899 18.8345C57.3565 18.8345 52.4222 18.8405 47.4874 18.853C46.0608 18.853 45.6102 18.3674 45.9285 16.9821C46.8246 13.0798 48.9739 10.1347 52.7443 8.50405C54.7145 7.65114 56.7984 7.67108 58.8584 7.98692C60.9577 8.28653 62.9064 9.23961 64.4247 10.7094C65.741 11.9815 66.6801 13.5046 67.3541 15.1914C67.5379 15.6464 67.6921 16.113 67.816 16.5879C67.9913 17.2826 68.0773 17.393 68.8257 17.4055C69.9354 17.4232 71.0446 17.4055 72.1538 17.4055C72.4165 17.3958 72.6797 17.4111 72.9391 17.4519C73.3178 17.528 73.5842 17.7534 73.5805 18.1629C73.5805 18.5464 73.2949 18.7204 72.9606 18.7895C72.7311 18.8317 72.4983 18.8498 72.2651 18.8442C69.6956 18.8442 67.1256 18.8442 64.557 18.8442C64.2541 18.8442 63.9512 18.8818 63.4286 18.9184C63.7759 19.314 63.9624 19.558 64.1798 19.7699C64.6187 20.1985 64.8954 20.7643 64.9632 21.3714C65.3105 23.7585 64.9632 25.9875 63.5436 27.9961C61.9028 30.3243 59.6811 31.6605 56.7984 31.7797C55.2839 31.8423 53.7778 31.8108 52.31 31.2686C50.3827 30.5572 48.9575 29.2836 47.939 27.5694C46.89 25.8033 46.3992 23.8925 46.7755 21.8222C46.97 20.7555 47.5047 20.2708 48.627 20.2657C51.6346 20.2546 54.6425 20.2421 57.6491 20.2657C59.0795 20.2592 60.5057 20.1076 61.9052 19.8126C62.4063 19.7222 62.7685 19.4179 63.2837 18.9346Z" fill="#0BBC5C"/>
<path d="M39.0131 65.0826H35.2441C35.0398 65.0742 34.8356 65.0779 34.6318 65.0937C34.1194 65.1512 33.9717 65.3831 34.1522 65.8655C34.3644 66.4336 34.6168 66.9925 34.8201 67.5597C35.1679 68.5151 35.2834 69.5382 35.1567 70.5465C35.0305 71.5872 34.4943 72.3998 33.7684 73.0834C31.8145 74.9107 29.4492 75.3842 26.8694 75.0072C26.2103 74.9121 25.5657 74.7015 24.9244 74.5063C23.8175 74.1705 23.2229 73.2926 22.8176 72.3172C22.4203 71.3604 22.0529 70.3647 21.8687 69.3517C21.5354 67.5156 22.2474 65.9443 23.4234 64.5566C23.574 64.3786 23.7469 64.2195 23.8984 64.0442C24.4032 63.4547 24.4196 63.1101 23.8984 62.5276C23.3393 61.9376 22.8938 61.2517 22.583 60.5027C22.1263 59.3432 22.0973 58.1698 22.3306 56.9964C22.6639 55.3532 23.3215 53.8492 24.6164 52.692C26.5488 50.9653 28.7298 50.4269 31.1573 51.4648C32.2717 51.9421 33.4164 52.4239 34.2471 53.3858C35.4082 54.7271 36.1477 56.2349 36.0668 58.0395C36.0444 58.5469 35.8551 59.0478 35.7335 59.5487C35.6858 59.7453 35.5989 59.9317 35.5508 60.1284C35.3198 61.0764 35.591 61.4497 36.5604 61.4571C38.5798 61.4711 40.5907 61.4571 42.6063 61.4571C42.84 61.4571 43.0733 61.4497 43.307 61.4571C44.5009 61.5045 44.7266 61.9706 44.3962 62.8559C44.2372 63.2831 44.2498 63.7701 44.1437 64.2195C43.9769 64.9235 43.7866 65.0664 43.0481 65.0715C41.7037 65.0798 40.3607 65.0715 39.0178 65.0715L39.0131 65.0826ZM29.0416 59.5538C30.0639 59.5538 31.0259 58.9564 31.3134 58.1383C31.5864 57.3693 31.2531 56.4742 30.4678 55.8606C30.1345 55.6 29.726 55.452 29.302 55.4386C28.878 55.4251 28.4606 55.5466 28.1114 55.7855C27.378 56.2864 26.8316 57.4208 27.228 58.4578C27.5533 59.3107 27.8665 59.551 29.0365 59.5538H29.0416ZM30.4061 69.125C30.5005 68.1909 29.4128 66.8635 28.2339 66.9962C27.3944 67.0875 26.0883 68.7006 26.2496 69.5243C26.4328 70.4676 27.4649 71.2213 28.4508 71.1336C29.4782 71.0385 30.3921 70.1017 30.4009 69.125H30.4061Z" fill="#0BBC5C"/>
<path d="M102.348 1.55002H87.0189C86.8431 1.55002 86.6678 1.55883 86.4934 1.55002C85.9433 1.51616 85.7175 1.33111 85.7212 0.931327C85.7212 0.411884 86.1704 -0.0365957 86.6655 0.00236257C87.7382 0.0872358 88.811 0.147525 89.8824 0.286662C92.3425 0.587197 94.8191 0.735611 97.2979 0.730973C100.773 0.750916 104.249 0.792192 107.721 0.717058C110.312 0.66094 112.896 0.426727 115.488 0.287591C116.421 0.236574 117.355 0.205036 118.289 0.212456C118.816 0.212456 119.02 0.49073 118.998 0.987911C118.982 1.33204 118.818 1.53008 118.466 1.55002C118.292 1.56022 118.115 1.55002 117.941 1.55002H102.348Z" fill="#0BBC5C"/>
</svg>
