<svg width="16" height="18" viewBox="0 0 16 18" fill="none" xmlns="http://www.w3.org/2000/svg">
<path fill-rule="evenodd" clip-rule="evenodd" d="M7.68641 10.9203C7.54542 10.9211 7.40738 10.8796 7.28987 10.8011C7.17236 10.7227 7.08071 10.6109 7.02659 10.4798C6.97247 10.3488 6.95834 10.2044 6.98599 10.0653C7.01364 9.92608 7.08181 9.79834 7.18184 9.69831C7.31749 9.56713 7.49831 9.49386 7.68641 9.49386C7.87452 9.49386 8.05534 9.56713 8.19099 9.69831C8.25737 9.76432 8.31001 9.843 8.34586 9.92972C8.38171 10.0164 8.40004 10.1095 8.39978 10.2034C8.39978 10.3654 8.46372 10.5208 8.57754 10.6354C8.69137 10.7499 8.84575 10.8144 9.00672 10.8144C9.16769 10.8144 9.32207 10.7499 9.4359 10.6354C9.54972 10.5208 9.61366 10.3654 9.61366 10.2034C9.61548 9.76323 9.46715 9.33573 9.19346 8.99246C8.91978 8.6492 8.53733 8.41092 8.11006 8.31744L8.08983 7.93866C8.08983 7.77662 8.02588 7.62126 7.91205 7.50668C7.79823 7.3921 7.64386 7.32768 7.48289 7.32768C7.32192 7.32768 7.16753 7.3921 7.05371 7.50668C6.93989 7.62126 6.87594 7.77662 6.87594 7.93866V8.45189C6.67087 8.54422 6.48373 8.67245 6.32322 8.83067C6.05315 9.10186 5.86916 9.44772 5.79458 9.82431C5.71999 10.2009 5.75817 10.5913 5.90428 10.946C6.05039 11.3007 6.29783 11.6038 6.61525 11.8168C6.93266 12.0297 7.30577 12.143 7.68723 12.1422C7.8574 12.1422 8.02374 12.1931 8.16518 12.2883C8.30663 12.3836 8.41682 12.5189 8.48181 12.6772C8.54679 12.8356 8.56365 13.0097 8.53025 13.1776C8.49685 13.3456 8.41469 13.4998 8.29417 13.6208C8.18035 13.7309 8.0392 13.8083 7.88549 13.8448C7.75803 13.8448 7.63017 13.8489 7.50231 13.8489C7.29541 13.8063 7.11176 13.6874 6.98736 13.5156C6.86296 13.3439 6.80677 13.1315 6.82981 12.9202C6.84561 12.759 6.79716 12.5981 6.6951 12.4728C6.59304 12.3475 6.44574 12.2682 6.28558 12.2522C6.20613 12.2431 6.12567 12.2501 6.04894 12.2727C5.97221 12.2953 5.90075 12.3332 5.83877 12.3841C5.77679 12.4349 5.72554 12.4978 5.68804 12.5688C5.65053 12.6399 5.62753 12.7178 5.62038 12.798C5.57425 13.2425 5.67214 13.6901 5.89944 14.074C6.12674 14.4579 6.47126 14.7576 6.8816 14.9282C6.89501 15.0673 6.95557 15.1975 7.05309 15.297C7.15061 15.3964 7.27917 15.4591 7.41715 15.4744C7.55512 15.4897 7.69412 15.4567 7.8108 15.381C7.92747 15.3053 8.01472 15.1914 8.05786 15.0586C8.56722 14.9657 9.02359 14.6843 9.33717 14.2697C9.65075 13.8551 9.79883 13.3374 9.75225 12.8184C9.70567 12.2995 9.4678 11.8168 9.08548 11.4655C8.70315 11.1142 8.20406 10.9197 7.68641 10.9203ZM15.3744 14.6635C15.2125 12.8347 14.3539 7.14036 10.8401 4.93269C10.8433 4.92454 10.8478 4.91637 10.8506 4.90823L12.0645 1.64967C12.1331 1.46477 12.1563 1.26586 12.1319 1.07001C12.1075 0.87416 12.0363 0.687195 11.9245 0.525061C11.8127 0.362928 11.6635 0.230459 11.4897 0.139022C11.3159 0.0475858 11.1228 -0.000114698 10.9267 5.13563e-07H4.44532C4.24921 -0.000180542 4.05598 0.0475141 3.88216 0.138923C3.70833 0.230332 3.5591 0.36272 3.44722 0.524862C3.33535 0.687005 3.26416 0.874029 3.23976 1.06991C3.21536 1.26579 3.23847 1.46474 3.30711 1.64967L4.521 4.90823C4.52383 4.91637 4.52828 4.92454 4.53152 4.93269C1.0169 7.14036 0.157873 12.8347 -0.00317007 14.6635C-0.0426234 15.5508 0.245658 16.4214 0.80609 17.1074C1.07709 17.3841 1.40331 17.5998 1.76322 17.7402C2.12313 17.8806 2.50853 17.9426 2.89398 17.9221H12.4752C12.8607 17.9426 13.2462 17.8806 13.6061 17.7402C13.9661 17.5998 14.2924 17.3841 14.5635 17.1074C15.1245 16.4217 15.4134 15.551 15.3744 14.6635ZM4.44532 1.22196H10.9283L9.71441 4.48052H5.66083L4.44532 1.22196ZM12.4768 16.7001H2.8956C1.95281 16.7001 1.12898 16.0158 1.21234 15.0708C1.51136 11.6779 2.80536 7.0222 5.66083 5.70248H9.71199C12.5675 7.0222 13.8615 11.6779 14.1605 15.0708C14.2434 16.0158 13.4196 16.7001 12.4768 16.7001Z" fill="black"/>
</svg>
