<svg width="102" height="65" viewBox="0 0 102 65" fill="none" xmlns="http://www.w3.org/2000/svg">
<path d="M98.3335 0H3.02457C1.35415 0 0 1.35415 0 3.02457V61.2791C0 62.9495 1.35415 64.3036 3.02457 64.3036H98.3335C100.004 64.3036 101.358 62.9495 101.358 61.2791V3.02457C101.358 1.35415 100.004 0 98.3335 0Z" fill="#009FE3"/>
<g opacity="0.2">
<path d="M98.0029 0H3.36219C2.4717 -1.94869e-06 1.61758 0.353267 0.987249 0.982279C0.356918 1.61129 0.00186295 2.46467 0 3.35516V20.3349C5.97879 24.506 14.1944 25.2586 21.4814 23.7182C30.0698 21.9246 37.8492 17.5284 45.8468 13.9271C53.8443 10.3257 62.6436 7.44183 71.2883 8.92598C79.4546 10.3328 86.4111 15.4042 93.7966 19.1673C96.2186 20.4189 98.7525 21.441 101.365 22.22V3.35516C101.363 2.46467 101.008 1.61129 100.378 0.982279C99.7475 0.353267 98.8934 -1.94869e-06 98.0029 0Z" fill="white"/>
</g>
</svg>
