<svg width="35" height="35" viewBox="0 0 35 35" fill="none" xmlns="http://www.w3.org/2000/svg">
<path d="M32.0834 14.5833V18.9583C32.0834 24.7917 29.1667 27.7083 23.3334 27.7083H22.6042C22.1522 27.7083 21.7147 27.9271 21.4376 28.2917L19.2501 31.2083C18.2876 32.4917 16.7126 32.4917 15.7501 31.2083L13.5626 28.2917C13.3292 27.9708 12.7897 27.7083 12.3959 27.7083H11.6667C5.83341 27.7083 2.91675 26.25 2.91675 18.9583V11.6667C2.91675 5.83333 5.83341 2.91667 11.6667 2.91667H20.4167" stroke="white" stroke-width="2" stroke-miterlimit="10" stroke-linecap="round" stroke-linejoin="round"/>
<path d="M28.4376 10.2083C30.4511 10.2083 32.0834 8.57604 32.0834 6.5625C32.0834 4.54896 30.4511 2.91667 28.4376 2.91667C26.424 2.91667 24.7917 4.54896 24.7917 6.5625C24.7917 8.57604 26.424 10.2083 28.4376 10.2083Z" fill="#F46017"/>
<path d="M23.3281 16.0417H23.3412" stroke="white" stroke-width="2" stroke-linecap="round" stroke-linejoin="round"/>
<path d="M17.4934 16.0417H17.5065" stroke="white" stroke-width="2" stroke-linecap="round" stroke-linejoin="round"/>
<path d="M11.6587 16.0417H11.6718" stroke="white" stroke-width="2" stroke-linecap="round" stroke-linejoin="round"/>
</svg>
