<svg width="24" height="24" viewBox="0 0 24 24" fill="none" xmlns="http://www.w3.org/2000/svg">
<path fill-rule="evenodd" clip-rule="evenodd" d="M17.3545 22.2322C15.3344 21.7261 11.1989 20.2993 7.44976 16.5501C3.70065 12.801 2.2738 8.66553 1.76767 6.64544C1.47681 5.48453 2.00058 4.36428 2.88869 3.72991L5.21694 2.06687C6.57922 1.09382 8.47432 1.42401 9.42724 2.80045L10.893 4.9177C11.5152 5.81644 11.3006 7.04824 10.4111 7.68359L9.24234 8.51843C9.41923 9.19504 9.96939 10.5845 11.6924 12.3075C13.4154 14.0305 14.8049 14.5807 15.4815 14.7576L16.3163 13.5888C16.9517 12.6993 18.1835 12.4847 19.0822 13.1069L21.1995 14.5727C22.5759 15.5256 22.9061 17.4207 21.933 18.783L20.27 21.1112C19.6356 21.9993 18.5154 22.5231 17.3545 22.2322ZM8.86397 15.1359C12.2734 18.5453 16.0358 19.84 17.8405 20.2922C18.1043 20.3583 18.4232 20.2558 18.6425 19.9487L20.3056 17.6205C20.6299 17.1664 20.5199 16.5347 20.061 16.2171L17.9438 14.7513L17.0479 16.0055C16.6818 16.5181 16.0047 16.9201 15.2163 16.75C14.2323 16.5377 12.4133 15.8568 10.2782 13.7217C8.1431 11.5866 7.46219 9.76764 7.24987 8.78364C7.07977 7.99524 7.48181 7.31815 7.99439 6.95202L9.24864 6.05612L7.78285 3.93886C7.46521 3.48005 6.83351 3.36999 6.37942 3.69434L4.05117 5.35738C3.74413 5.57669 3.64162 5.89559 3.70771 6.15937C4.15989 7.96412 5.45459 11.7266 8.86397 15.1359Z" fill="#F2796B"/>
</svg>
