<svg width="65" height="48" viewBox="0 0 65 48" fill="none" xmlns="http://www.w3.org/2000/svg">
<path d="M4.52428 2.30023V8.38417H6.30933V0H4.75045L2.11096 2.65206L3.12875 3.72089L4.52428 2.30023Z" fill="black"/>
<path d="M3.26854 21.0916C3.95963 21.0916 4.62637 21.4434 4.62637 22.1855C4.62637 23.2159 3.62115 24.0711 0.189264 26.6101V28.0182H6.49938V26.4467H3.08006C5.25542 24.8627 6.43656 23.6188 6.43656 22.1855C6.43656 20.5136 5.02925 19.5076 3.23084 19.5076C2.06149 19.5076 0.817527 19.9348 0 20.878L1.01779 22.0599C1.58401 21.4685 2.31279 21.0916 3.26854 21.0916Z" fill="black"/>
<path d="M4.66328 43.3266C5.59311 43.1632 6.4986 42.4721 6.4986 41.4158C6.4986 40.0211 5.29155 39.1407 3.33058 39.1407C1.85966 39.1407 0.804177 39.7062 0.124867 40.4734L1.017 41.5918C1.60757 41.0263 2.33714 40.7248 3.15388 40.7248C4.02088 40.7248 4.71276 41.0515 4.71276 41.7174C4.71276 42.3339 4.0845 42.6103 3.15388 42.6103C2.83975 42.6103 2.26096 42.6103 2.11018 42.5978V44.2069C2.23583 44.1943 2.80127 44.1818 3.15388 44.1818C4.32324 44.1818 4.83841 44.4833 4.83841 45.1501C4.83841 45.7783 4.27219 46.2181 3.2544 46.2181C2.43688 46.2181 1.51961 45.8663 0.954174 45.2632L0.0117798 46.4577C0.627478 47.2116 1.78427 47.8021 3.31723 47.8021C5.32846 47.8021 6.62346 46.7844 6.62346 45.3386C6.62504 44.0805 5.51851 43.4145 4.66328 43.3266Z" fill="black"/>
<path d="M62.2452 0.253662H13.1904C11.7124 0.253662 10.5148 1.45129 10.5148 2.92928V5.39757C10.5148 6.87477 11.7124 8.07318 13.1904 8.07318H62.2444C63.7216 8.07318 64.92 6.87555 64.92 5.39757V2.92928C64.9208 1.45207 63.7224 0.253662 62.2452 0.253662Z" fill="black"/>
<path d="M62.2452 19.8021H13.1904C11.7124 19.8021 10.5148 20.9998 10.5148 22.4777V24.946C10.5148 26.4232 11.7124 27.6216 13.1904 27.6216H62.2444C63.7216 27.6216 64.92 26.424 64.92 24.946V22.4777C64.9208 20.9998 63.7224 19.8021 62.2452 19.8021Z" fill="black"/>
<path d="M62.2452 39.3505H13.1904C11.7124 39.3505 10.5148 40.5481 10.5148 42.0261V44.4944C10.5148 45.9716 11.7124 47.17 13.1904 47.17H62.2444C63.7216 47.17 64.92 45.9724 64.92 44.4944V42.0261C64.9208 40.5481 63.7224 39.3505 62.2452 39.3505Z" fill="black"/>
</svg>
