<svg width="24" height="24" viewBox="0 0 24 24" fill="none" xmlns="http://www.w3.org/2000/svg">
<path d="M12 22.5C17.799 22.5 22.5 17.799 22.5 12C22.5 6.20101 17.799 1.5 12 1.5C6.20101 1.5 1.5 6.20101 1.5 12C1.5 17.799 6.20101 22.5 12 22.5Z" fill="url(#paint0_linear_1617_2727)"/>
<path d="M15.9103 15.2112L16.3767 12.2476H13.4589V10.3253C13.4589 9.51428 13.8658 8.72332 15.1726 8.72332H16.5V6.20024C16.5 6.20024 15.2959 6 14.1452 6C11.7411 6 10.1713 7.41971 10.1713 9.9888V12.2476H7.5V15.2112H10.1713V22.3759C10.7075 22.458 11.2561 22.5 11.815 22.5C12.3739 22.5 12.9226 22.458 13.4589 22.3759V15.2112H15.9103Z" fill="white"/>
<defs>
<linearGradient id="paint0_linear_1617_2727" x1="12" y1="1.5" x2="12" y2="22.4378" gradientUnits="userSpaceOnUse">
<stop stop-color="#18ACFE"/>
<stop offset="1" stop-color="#0163E0"/>
</linearGradient>
</defs>
</svg>
