<svg width="65" height="70" viewBox="0 0 65 70" fill="none" xmlns="http://www.w3.org/2000/svg">
<path d="M44.9998 30C41.4857 30.001 38.0349 30.9349 34.9998 32.7063V17.5C34.9998 12.8587 33.1561 8.40752 29.8742 5.12563C26.5924 1.84375 22.1412 0 17.4999 0C12.8587 0 8.40748 1.84375 5.12561 5.12563C1.84374 8.40752 2.40761e-07 12.8587 1.71601e-07 17.5V52.5C-0.000499174 56.0664 1.08881 59.5478 3.122 62.4779C5.1552 65.4079 8.03519 67.6467 11.3762 68.8943C14.7172 70.142 18.3597 70.3389 21.8158 69.4587C25.2718 68.5786 28.3764 66.6633 30.7136 63.9695C33.019 66.3273 35.8719 68.0781 39.0179 69.0661C42.164 70.0541 45.5056 70.2486 48.745 69.6321C51.9845 69.0157 55.0211 67.6076 57.5845 65.5331C60.1478 63.4587 62.1582 60.7824 63.4366 57.7427C64.7149 54.703 65.2216 51.3943 64.9113 48.1114C64.6011 44.8284 63.4836 41.6732 61.6584 38.9268C59.8333 36.1804 57.3571 33.9281 54.4506 32.3706C51.544 30.8131 48.2974 29.9987 44.9998 30ZM44.9998 35C48.5414 35.0059 51.9668 36.2637 54.6705 38.5512C57.3743 40.8386 59.1822 44.0084 59.7747 47.5H30.2249C30.8174 44.0084 32.6253 40.8386 35.3291 38.5512C38.0328 36.2637 41.4583 35.0059 44.9998 35ZM4.99998 17.5C4.99998 14.1848 6.31693 11.0054 8.66113 8.66117C11.0053 6.31696 14.1847 5 17.4999 5C20.8151 5 23.9945 6.31696 26.3387 8.66117C28.6829 11.0054 29.9999 14.1848 29.9999 17.5V32.5H4.99998V17.5ZM17.4999 65C14.1859 64.9961 11.0088 63.6779 8.66544 61.3346C6.32209 58.9912 5.00388 55.814 4.99998 52.5V37.5H29.4124C26.9028 40.6094 25.3879 44.4026 25.065 48.3853C24.742 52.368 25.6261 56.3557 27.6019 59.8288C26.4471 61.4283 24.9293 62.7311 23.1732 63.6301C21.4171 64.529 19.4728 64.9985 17.4999 65ZM44.9998 65C41.4583 64.9942 38.0328 63.7363 35.3291 61.4489C32.6253 59.1614 30.8174 55.9917 30.2249 52.5H59.7747C59.1822 55.9917 57.3743 59.1614 54.6705 61.4489C51.9668 63.7363 48.5414 64.9942 44.9998 65Z" fill="#007BC7"/>
</svg>
