<svg width="100" height="100" viewBox="0 0 100 100" fill="none" xmlns="http://www.w3.org/2000/svg">
<g clip-path="url(#clip0_266_515)">
<path fill-rule="evenodd" clip-rule="evenodd" d="M85.7143 0H71.4286C63.5393 0 57.1429 6.39643 57.1429 14.2857V28.5714C57.1429 36.4607 63.5393 42.8571 71.4286 42.8571H85.7143C93.6036 42.8571 100 36.4607 100 28.5714V14.2857C100 6.39643 93.6036 0 85.7143 0ZM85.7143 57.1429H71.4286C63.5393 57.1429 57.1429 63.5393 57.1429 71.4286V85.7143C57.1429 93.6036 63.5393 100 71.4286 100H85.7143C93.6036 100 100 93.6036 100 85.7143V71.4286C100 63.5393 93.6036 57.1429 85.7143 57.1429ZM28.5714 57.1429H14.2857C6.39643 57.1429 0 63.5393 0 71.4286V85.7143C0 93.6036 6.39643 100 14.2857 100H28.5714C36.4607 100 42.8571 93.6036 42.8571 85.7143V71.4286C42.8571 63.5393 36.4607 57.1429 28.5714 57.1429ZM28.5714 0H14.2857C6.39643 0 0 6.39643 0 14.2857V28.5714C0 36.4607 6.39643 42.8571 14.2857 42.8571H28.5714C36.4607 42.8571 42.8571 36.4607 42.8571 28.5714V14.2857C42.8571 6.39643 36.4607 0 28.5714 0Z" fill="black"/>
</g>
<defs>
<clipPath id="clip0_266_515">
<rect width="100" height="100" fill="white"/>
</clipPath>
</defs>
</svg>
