<svg width="100" height="100" viewBox="0 0 100 100" fill="none" xmlns="http://www.w3.org/2000/svg">
<g clip-path="url(#clip0_266_511)">
<path fill-rule="evenodd" clip-rule="evenodd" d="M92.8571 28.5714C92.8571 32.5143 89.6571 35.7143 85.7143 35.7143H71.4286C67.4857 35.7143 64.2857 32.5143 64.2857 28.5714V14.2857C64.2857 10.3429 67.4857 7.14286 71.4286 7.14286H85.7143C89.6571 7.14286 92.8571 10.3429 92.8571 14.2857V28.5714ZM85.7143 0H71.4286C63.5393 0 57.1429 6.39643 57.1429 14.2857V28.5714C57.1429 36.4607 63.5393 42.8571 71.4286 42.8571H85.7143C93.6036 42.8571 100 36.4607 100 28.5714V14.2857C100 6.39643 93.6036 0 85.7143 0ZM92.8571 85.7143C92.8571 89.6571 89.6571 92.8571 85.7143 92.8571H71.4286C67.4857 92.8571 64.2857 89.6571 64.2857 85.7143V71.4286C64.2857 67.4857 67.4857 64.2857 71.4286 64.2857H85.7143C89.6571 64.2857 92.8571 67.4857 92.8571 71.4286V85.7143ZM85.7143 57.1429H71.4286C63.5393 57.1429 57.1429 63.5393 57.1429 71.4286V85.7143C57.1429 93.6036 63.5393 100 71.4286 100H85.7143C93.6036 100 100 93.6036 100 85.7143V71.4286C100 63.5393 93.6036 57.1429 85.7143 57.1429ZM35.7143 28.5714C35.7143 32.5143 32.5143 35.7143 28.5714 35.7143H14.2857C10.3429 35.7143 7.14286 32.5143 7.14286 28.5714V14.2857C7.14286 10.3429 10.3429 7.14286 14.2857 7.14286H28.5714C32.5143 7.14286 35.7143 10.3429 35.7143 14.2857V28.5714ZM28.5714 0H14.2857C6.39643 0 0 6.39643 0 14.2857V28.5714C0 36.4607 6.39643 42.8571 14.2857 42.8571H28.5714C36.4607 42.8571 42.8571 36.4607 42.8571 28.5714V14.2857C42.8571 6.39643 36.4607 0 28.5714 0ZM35.7143 85.7143C35.7143 89.6571 32.5143 92.8571 28.5714 92.8571H14.2857C10.3429 92.8571 7.14286 89.6571 7.14286 85.7143V71.4286C7.14286 67.4857 10.3429 64.2857 14.2857 64.2857H28.5714C32.5143 64.2857 35.7143 67.4857 35.7143 71.4286V85.7143ZM28.5714 57.1429H14.2857C6.39643 57.1429 0 63.5393 0 71.4286V85.7143C0 93.6036 6.39643 100 14.2857 100H28.5714C36.4607 100 42.8571 93.6036 42.8571 85.7143V71.4286C42.8571 63.5393 36.4607 57.1429 28.5714 57.1429Z" fill="black"/>
</g>
<defs>
<clipPath id="clip0_266_511">
<rect width="100" height="100" fill="white"/>
</clipPath>
</defs>
</svg>
