<svg width="24" height="24" viewBox="0 0 24 24" fill="none" xmlns="http://www.w3.org/2000/svg">
<path d="M6 2C6 3.10457 5.10457 4 4 4C2.89543 4 2 3.10457 2 2C2 0.895431 2.89543 0 4 0C5.10457 0 6 0.895431 6 2Z" fill="#0583F2"/>
<path d="M18.5 3C19.3284 3 20 2.32843 20 1.5C20 0.671573 19.3284 0 18.5 0C17.6716 0 17 0.671573 17 1.5C17 2.32843 17.6716 3 18.5 3Z" fill="#0583F2"/>
<path fill-rule="evenodd" clip-rule="evenodd" d="M13 6.5V9.05001C13.1616 9.01722 13.3288 9 13.5 9C14.3886 9 15.169 9.46363 15.6123 10.1622C15.8882 10.0574 16.1874 10 16.5 10C17.3886 10 18.169 10.4636 18.6123 11.1622C18.8882 11.0574 19.1874 11 19.5 11C20.8807 11 22 12.1193 22 13.5V16.1888C22 20.5028 18.5028 24 14.1888 24C11.5541 24 9.05855 22.8174 7.39016 20.7783L2.69971 15.0455C1.34381 13.3883 2.34402 10.8867 4.46869 10.6211C5.36552 10.509 6.25951 10.8494 6.85467 11.5296L8 12.8386V6.5C8 5.11929 9.11929 4 10.5 4C11.8807 4 13 5.11929 13 6.5ZM10 6.5C10 6.22386 10.2239 6 10.5 6C10.7761 6 11 6.22386 11 6.5V13C11 13.5523 11.4477 14 12 14C12.5523 14 13 13.5523 13 13V11.5C13 11.2239 13.2239 11 13.5 11C13.7761 11 14 11.2239 14 11.5V13C14 13.5523 14.4477 14 15 14C15.5523 14 16 13.5523 16 13V12.5C16 12.2239 16.2239 12 16.5 12C16.7761 12 17 12.2239 17 12.5V13C17 13.5523 17.4477 14 18 14C18.5523 14 19 13.5523 19 13C19 13 19.2239 13 19.5 13C19.7761 13 20 13.2239 20 13.5V16.1888C20 19.3982 17.3982 22 14.1888 22C12.154 22 10.2266 21.0867 8.93808 19.5118L4.24763 13.779C3.88805 13.3395 4.15329 12.6761 4.71676 12.6057C4.9546 12.576 5.19168 12.6662 5.34952 12.8466L7.89691 15.7579C8.62656 16.5918 10 16.0757 10 14.9677V6.5Z" fill="#0583F2"/>
<path d="M20 6.5C20 7.32843 19.3284 8 18.5 8C17.6716 8 17 7.32843 17 6.5C17 5.67157 17.6716 5 18.5 5C19.3284 5 20 5.67157 20 6.5Z" fill="#0583F2"/>
<path d="M11.5 3C12.3284 3 13 2.32843 13 1.5C13 0.671573 12.3284 0 11.5 0C10.6716 0 10 0.671573 10 1.5C10 2.32843 10.6716 3 11.5 3Z" fill="#0583F2"/>
<path d="M4 8C4.55229 8 5 7.55229 5 7C5 6.44771 4.55229 6 4 6C3.44772 6 3 6.44771 3 7C3 7.55229 3.44772 8 4 8Z" fill="#0583F2"/>
</svg>
