<svg width="21" height="22" viewBox="0 0 21 22" fill="none" xmlns="http://www.w3.org/2000/svg">
<path d="M8.58678 6.30223C8.58678 6.98973 8.58678 7.65607 8.79375 8.28011C6.61803 10.9561 0.873317 18.0267 0.338221 18.5661C0.231872 18.6661 0.146796 18.7884 0.0885251 18.925C0.0302537 19.0617 9.16043e-05 19.2097 0 19.3594C0 19.8089 0.2625 20.2425 0.484615 20.4858C0.817788 20.8507 2.24135 22.231 2.50385 21.9666C3.28125 21.1733 3.43774 20.9618 3.75577 20.6339C4.23534 20.1421 3.70529 19.1373 3.87187 18.7301C4.03846 18.3228 4.21514 18.2435 4.50288 18.1801C4.79062 18.1166 5.30048 18.3334 5.69928 18.3387C6.11827 18.344 6.34543 18.1589 6.65841 17.8522C6.91082 17.6089 7.09255 17.3815 7.0976 17.0272C7.10769 16.5512 6.45144 15.9219 6.94111 15.4195C7.43077 14.9171 8.1375 15.7474 8.65745 15.6839C9.1774 15.6205 9.80841 14.8642 9.87404 14.5416C9.93966 14.219 9.28341 13.3887 9.38437 12.9181C9.41971 12.7594 9.72764 12.3892 9.95986 12.3363C10.1921 12.2835 11.2219 12.7012 11.4541 12.6484C11.7368 12.5849 12.0649 12.2729 12.3325 12.0984C13.1149 12.4527 13.8267 12.5955 14.7404 12.5955C18.1983 12.5955 21 9.77144 21 6.29165C21 2.81186 18.1983 0 14.7404 0C11.2825 0 8.58678 2.82244 8.58678 6.30223ZM17.7692 5.0769C17.7692 5.4116 17.6745 5.73879 17.497 6.01709C17.3195 6.29539 17.0672 6.51229 16.772 6.64038C16.4769 6.76847 16.1521 6.80198 15.8387 6.73668C15.5253 6.67138 15.2375 6.51021 15.0116 6.27354C14.7857 6.03686 14.6318 5.73532 14.5695 5.40705C14.5072 5.07878 14.5392 4.73851 14.6614 4.42928C14.7837 4.12006 14.9907 3.85576 15.2564 3.6698C15.522 3.48385 15.8344 3.3846 16.1538 3.3846C16.5823 3.3846 16.9932 3.56289 17.2961 3.88026C17.599 4.19763 17.7692 4.62807 17.7692 5.0769Z" fill="black"/>
</svg>
