<svg width="525" height="628" viewBox="0 0 525 628" fill="none" xmlns="http://www.w3.org/2000/svg">
<g clip-path="url(#clip0_1514_2)">
<path d="M420.809 216.844H369.047V199.8C369.047 171.232 392.24 148.038 420.809 148.038L420.809 216.844Z" fill="#1D1D1B"/>
<path d="M409.335 185.027L418.235 225.057L366.083 216.397L387.335 178.539L409.335 185.027Z" fill="#A0616A"/>
<path opacity="0.1" d="M409.335 185.027L418.235 225.057L366.083 216.397L387.335 178.539L409.335 185.027Z" fill="black"/>
<path d="M359.335 344.539H409.335V270.539H359.335V344.539Z" fill="#A0616A"/>
<path d="M441.835 405.039L430.835 464.039C430.835 464.039 437.835 505.039 416.835 547.039L402.835 590.039L381.835 587.039C381.835 587.039 394.835 555.039 394.835 541.039C394.835 527.039 397.835 473.039 397.835 473.039L396.335 411.421L441.835 405.039Z" fill="#1D1D1B"/>
<path d="M378.835 586.038C378.835 586.038 402.835 577.038 404.835 590.038L403.835 596.038C403.835 596.038 412.835 623.038 399.835 625.038C386.835 627.038 374.835 630.038 373.835 624.038C372.835 618.038 372.851 610.549 375.343 605.293C377.835 600.038 378.835 586.038 378.835 586.038Z" fill="#1D1D1B"/>
<path d="M366.134 395.887L360.292 455.618C360.292 455.618 342.166 493.054 350.657 539.237L352.146 584.435L373.152 587.393C373.152 587.393 369.564 553.04 373.457 539.593C377.351 526.145 389.487 473.441 389.487 473.441L408.065 414.671L366.134 395.887Z" fill="#1D1D1B"/>
<path d="M376.311 587.268C376.311 587.268 355.761 571.948 350.224 583.879L349.516 589.921C349.516 589.921 333.362 613.352 345.293 618.889C357.224 624.425 367.916 630.644 370.545 625.159C373.175 619.674 375.242 612.475 374.31 606.735C373.378 600.994 376.311 587.268 376.311 587.268Z" fill="#1D1D1B"/>
<path d="M429.835 310.539C453.354 332.487 455.099 367.213 441.335 408.539C441.335 408.539 397.335 438.539 365.335 400.539L349.335 323.539L429.835 310.539Z" fill="#1D1D1B"/>
<path d="M390.335 203.539L415.335 207.539L413.335 270.539L441.335 326.539L405.335 344.539C405.335 344.539 377.335 291.539 372.335 258.539C367.335 225.539 370.335 201.539 370.335 201.539L390.335 203.539Z" fill="#009FE3"/>
<path d="M371.335 205.539L346.335 209.539L348.335 272.539L342.335 330.539L356.335 346.539C356.335 346.539 384.335 293.539 389.335 260.539C394.335 227.539 391.335 203.539 391.335 203.539L371.335 205.539Z" fill="#009FE3"/>
<path d="M401.335 207.038L406.835 205.538C406.835 205.538 426.335 203.038 429.335 211.038C432.335 219.038 431.335 266.038 431.335 266.038C431.335 266.038 436.495 323.723 416.415 324.38C396.335 325.038 400.335 277.038 400.335 277.038L401.335 207.038Z" fill="#009FE3"/>
<path d="M400.609 196.012C414.902 196.012 426.49 184.425 426.49 170.131C426.49 155.837 414.902 144.25 400.609 144.25C386.315 144.25 374.728 155.837 374.728 170.131C374.728 184.425 386.315 196.012 400.609 196.012Z" fill="#A0616A"/>
<path d="M368.335 209.038L362.835 207.538C362.835 207.538 343.335 205.038 340.335 213.038C337.335 221.038 338.335 268.038 338.335 268.038C338.335 268.038 333.175 325.723 353.255 326.38C373.335 327.038 369.335 279.038 369.335 279.038L368.335 209.038Z" fill="#6C63FF"/>
<path d="M385.658 205.75C380.106 204.341 373.811 210.271 371.597 218.998C370.664 222.473 370.578 226.119 371.343 229.634L368.958 239.554L368.782 239.545L349.964 283.894C345.589 294.206 346.051 306.044 351.632 315.756C354.952 321.534 359.31 325.418 364.427 321.453C372.918 314.874 378.464 277.204 380.996 255.564L386.851 233.569C389.201 230.844 390.864 227.596 391.701 224.097C393.916 215.373 391.21 207.159 385.658 205.75Z" fill="#A0616A"/>
<path d="M351.059 191.07C352.376 187.067 354.975 183.563 356.137 179.513C357.681 174.135 360.968 186.065 361.289 180.48C361.898 169.863 378.102 142.553 387.352 137.308C396.602 132.062 401.915 133.643 411.339 138.57C411.339 138.57 415.914 138.861 421.609 141.673C427.304 144.485 432.431 148.988 434.646 154.94C436.401 159.659 436.207 164.84 436.794 169.84C438.428 183.77 446.237 197.018 444.561 210.943C444.038 215.288 442.387 219.78 438.834 222.336C435.282 224.891 429.543 224.613 427.205 220.914C426.407 219.652 426.07 218.155 425.386 216.827C424.702 215.5 423.467 214.262 421.974 214.303C419.73 214.365 418.588 217.376 419.473 219.439C420.358 221.501 422.437 222.747 424.389 223.855C419.74 225.946 413.973 225.295 409.907 222.219C405.842 219.144 403.646 213.771 404.394 208.728C405.448 201.622 415.801 203.093 417.02 196.013C417.908 190.86 421.026 182.236 420.177 177.076C419.327 171.916 415.249 178.164 419.545 175.182C414.819 177.461 404.708 161.872 399.76 160.126C394.811 158.38 390.616 154.6 388.366 149.859C383.117 157.467 378.5 155.401 376.621 164.451C374.741 173.501 376.479 194.061 384.219 199.113C381.121 201.227 378.652 204.249 377.199 207.706C376.375 209.664 375.842 211.806 374.475 213.433C371.865 216.539 367.046 216.728 363.205 215.422C358.442 213.802 354.37 210.246 352.124 205.744C349.879 201.242 349.488 195.849 351.059 191.07Z" fill="#1D1D1B"/>
<path d="M340.038 1H134.37C111.047 1 92.1396 19.907 92.1396 43.2299V583.663C92.1396 606.986 111.047 625.893 134.37 625.893H340.038C363.361 625.893 382.268 606.986 382.268 583.663V43.2299C382.268 19.907 363.361 1 340.038 1Z" fill="white"/>
<path d="M340.039 626.892H134.37C110.533 626.892 91.1396 607.5 91.1396 583.663V43.23C91.1396 19.3931 110.533 0 134.37 0H340.039C363.875 0 383.269 19.3931 383.269 43.23V583.663C383.269 607.5 363.875 626.892 340.039 626.892ZM134.37 2C111.635 2 93.1396 20.4956 93.1396 43.23V583.663C93.1396 606.397 111.635 624.892 134.37 624.892H340.039C362.773 624.892 381.269 606.397 381.269 583.663V43.23C381.269 20.4956 362.773 2 340.039 2H134.37Z" fill="#3F3D56"/>
<path d="M75.144 94.5664C73.3384 94.5664 71.8701 96.0347 71.8701 97.8403V124.032C71.8701 125.837 73.3384 127.306 75.144 127.306C76.9496 127.306 78.418 125.837 78.418 124.032V97.8403C78.418 96.0347 76.9496 94.5664 75.144 94.5664Z" fill="#3F3D56"/>
<path d="M354.936 87.4603H272.268C268.762 87.4603 265.909 84.6076 265.909 81.1013C265.909 77.5949 268.762 74.7422 272.268 74.7422H354.936C358.442 74.7422 361.295 77.5949 361.295 81.1013C361.295 84.6076 358.442 87.4603 354.936 87.4603Z" fill="#E6E6E6"/>
<path d="M277.383 137.469H197.026C195 137.469 193.352 135.82 193.352 133.795C193.352 131.769 195 130.121 197.026 130.121H277.383C279.409 130.121 281.056 131.769 281.056 133.795C281.056 135.82 279.409 137.469 277.383 137.469Z" fill="#009FE3"/>
<path d="M78.3228 155.602C114.166 155.602 143.222 127.158 143.222 92.0706C143.222 56.9831 114.166 28.5391 78.3228 28.5391C42.4801 28.5391 13.4238 56.9831 13.4238 92.0706C13.4238 127.158 42.4801 155.602 78.3228 155.602Z" fill="#009FE3"/>
<path d="M100.35 60.0246C91.7096 75.7573 83.0695 91.4901 74.4294 107.223C68.9227 97.4932 63.4462 87.7465 57.926 78.0246C56.0195 74.667 50.8339 77.687 52.7452 81.0529C59.1443 92.3228 65.4771 103.63 71.8762 114.9C72.9703 116.827 75.9742 116.872 77.0571 114.9C86.5482 97.6177 96.0394 80.3353 105.531 63.0529C107.39 59.6665 102.211 56.6355 100.35 60.0246Z" fill="white"/>
<path d="M163.806 14.6582H117.928C117.757 14.6582 117.618 14.7971 117.618 14.9684V20.3093C117.618 20.4806 117.757 20.6195 117.928 20.6195H163.806C163.977 20.6195 164.116 20.4806 164.116 20.3093V14.9684C164.116 14.7971 163.977 14.6582 163.806 14.6582Z" fill="#E6E6E6"/>
<path d="M318.336 20.6201C320.97 20.6201 323.105 18.4849 323.105 15.8511C323.105 13.2172 320.97 11.082 318.336 11.082C315.703 11.082 313.567 13.2172 313.567 15.8511C313.567 18.4849 315.703 20.6201 318.336 20.6201Z" fill="#E6E6E6"/>
<path d="M331.452 20.6201C334.085 20.6201 336.221 18.4849 336.221 15.8511C336.221 13.2172 334.085 11.082 331.452 11.082C328.818 11.082 326.683 13.2172 326.683 15.8511C326.683 18.4849 328.818 20.6201 331.452 20.6201Z" fill="#E6E6E6"/>
<path d="M344.567 20.6201C347.201 20.6201 349.336 18.4849 349.336 15.8511C349.336 13.2172 347.201 11.082 344.567 11.082C341.933 11.082 339.798 13.2172 339.798 15.8511C339.798 18.4849 341.933 20.6201 344.567 20.6201Z" fill="#E6E6E6"/>
<path d="M133.869 157.135C133.869 157.795 134.399 158.325 135.059 158.325H339.349C340.009 158.325 340.539 157.795 340.539 157.135C340.539 156.475 340.009 155.945 339.349 155.945H135.059C134.399 155.945 133.869 156.475 133.869 157.135Z" fill="#1D1D1B"/>
<path d="M319.759 250.668H197.161C195.135 250.668 193.486 249.02 193.486 246.994C193.486 244.968 195.135 243.32 197.161 243.32H319.759C321.785 243.32 323.432 244.968 323.432 246.994C323.432 249.02 321.785 250.668 319.759 250.668Z" fill="#009FE3"/>
<path d="M319.759 303.668H197.161C195.135 303.668 193.486 302.02 193.486 299.994C193.486 297.968 195.135 296.32 197.161 296.32H319.759C321.785 296.32 323.432 297.968 323.432 299.994C323.432 302.02 321.785 303.668 319.759 303.668Z" fill="#009FE3"/>
<path d="M319.759 356.668H197.161C195.135 356.668 193.486 355.02 193.486 352.994C193.486 350.968 195.135 349.32 197.161 349.32H319.759C321.785 349.32 323.432 350.968 323.432 352.994C323.432 355.02 321.785 356.668 319.759 356.668Z" fill="#009FE3"/>
<path d="M159.976 255.539C164.946 255.539 168.976 251.51 168.976 246.539C168.976 241.568 164.946 237.539 159.976 237.539C155.005 237.539 150.976 241.568 150.976 246.539C150.976 251.51 155.005 255.539 159.976 255.539Z" fill="#009FE3"/>
<path d="M158.976 261.539V259.539C166.419 259.539 172.476 253.483 172.476 246.039C172.476 238.595 166.419 232.539 158.976 232.539V230.539C167.522 230.539 174.476 237.492 174.476 246.039C174.476 254.586 167.522 261.539 158.976 261.539Z" fill="#3F3D56"/>
<path d="M159.976 308.539C164.946 308.539 168.976 304.51 168.976 299.539C168.976 294.568 164.946 290.539 159.976 290.539C155.005 290.539 150.976 294.568 150.976 299.539C150.976 304.51 155.005 308.539 159.976 308.539Z" fill="#009FE3"/>
<path d="M158.976 314.539V312.539C166.419 312.539 172.476 306.483 172.476 299.039C172.476 291.595 166.419 285.539 158.976 285.539V283.539C167.522 283.539 174.476 290.492 174.476 299.039C174.476 307.586 167.522 314.539 158.976 314.539Z" fill="#3F3D56"/>
<path d="M159.976 361.539C164.946 361.539 168.976 357.51 168.976 352.539C168.976 347.568 164.946 343.539 159.976 343.539C155.005 343.539 150.976 347.568 150.976 352.539C150.976 357.51 155.005 361.539 159.976 361.539Z" fill="#009FE3"/>
<path d="M158.976 367.539V365.539C166.419 365.539 172.476 359.483 172.476 352.039C172.476 344.595 166.419 338.539 158.976 338.539V336.539C167.522 336.539 174.476 343.492 174.476 352.039C174.476 360.586 167.522 367.539 158.976 367.539Z" fill="#3F3D56"/>
<path d="M384.012 203.75C389.564 202.341 395.858 208.271 398.073 216.998C399.005 220.473 399.092 224.119 398.326 227.634L400.712 237.554L400.888 237.545L419.706 281.894C424.081 292.206 423.619 304.044 418.038 313.756C414.718 319.534 410.36 323.418 405.243 319.453C396.752 312.874 391.206 275.204 388.674 253.564L382.819 231.569C380.469 228.844 378.806 225.596 377.969 222.097C375.754 213.373 378.46 205.159 384.012 203.75Z" fill="#A0616A"/>
<path d="M405.389 228.053L384.335 243.019L394.862 309.313L408.065 326.388L423.444 321.069L427.941 289.73L422.649 259.423L405.389 228.053Z" fill="#009FE3"/>
</g>
<defs>
<clipPath id="clip0_1514_2">
<rect width="524.67" height="627.583" fill="white"/>
</clipPath>
</defs>
</svg>
