<svg width="17" height="17" viewBox="0 0 17 17" fill="none" xmlns="http://www.w3.org/2000/svg">
<path d="M2.82426 12.2055L3.51657 12.4939L2.82426 12.2055ZM2.23398 13.6221L2.92629 13.9106L2.23398 13.6221ZM14.766 13.6221L14.0737 13.9106V13.9106L14.766 13.6221ZM14.1758 12.2055L14.8681 11.917H14.8681L14.1758 12.2055ZM11.3333 10.5837C10.9191 10.5837 10.5833 10.9194 10.5833 11.3337C10.5833 11.7479 10.9191 12.0837 11.3333 12.0837V10.5837ZM5.66667 12.0837C6.08089 12.0837 6.41667 11.7479 6.41667 11.3337C6.41667 10.9194 6.08089 10.5837 5.66667 10.5837V12.0837ZM12.7083 6.45403C12.7083 7.60129 12.0485 9.01064 11.0969 10.1694C10.6302 10.7376 10.1206 11.2111 9.6393 11.5363C9.14191 11.8723 8.74903 12.0003 8.50001 12.0003V13.5003C9.18067 13.5003 9.87243 13.189 10.479 12.7792C11.1018 12.3585 11.7155 11.7795 12.256 11.1214C13.3187 9.82745 14.2083 8.08865 14.2083 6.45403H12.7083ZM8.50001 12.0003C8.25098 12.0003 7.85811 11.8723 7.36071 11.5363C6.87942 11.2111 6.36981 10.7376 5.90316 10.1694C4.95152 9.01064 4.29167 7.60129 4.29167 6.45403H2.79167C2.79167 8.08865 3.68131 9.82745 4.74399 11.1214C5.2845 11.7795 5.89827 12.3585 6.52098 12.7792C7.12758 13.189 7.81934 13.5003 8.50001 13.5003V12.0003ZM4.29167 6.45403C4.29167 4.07518 6.1869 2.16699 8.50001 2.16699V0.666992C5.33629 0.666992 2.79167 3.26912 2.79167 6.45403H4.29167ZM8.50001 2.16699C10.8131 2.16699 12.7083 4.07518 12.7083 6.45403H14.2083C14.2083 3.26912 11.6637 0.666992 8.50001 0.666992V2.16699ZM9.52084 6.37533C9.52084 6.93912 9.0638 7.39616 8.50001 7.39616V8.89616C9.89223 8.89616 11.0208 7.76754 11.0208 6.37533H9.52084ZM8.50001 7.39616C7.93622 7.39616 7.47917 6.93912 7.47917 6.37533H5.97917C5.97917 7.76754 7.10779 8.89616 8.50001 8.89616V7.39616ZM7.47917 6.37533C7.47917 5.81153 7.93622 5.35449 8.50001 5.35449V3.85449C7.10779 3.85449 5.97917 4.98311 5.97917 6.37533H7.47917ZM8.50001 5.35449C9.0638 5.35449 9.52084 5.81153 9.52084 6.37533H11.0208C11.0208 4.98311 9.89223 3.85449 8.50001 3.85449V5.35449ZM2.13195 11.917L1.54167 13.3337L2.92629 13.9106L3.51657 12.4939L2.13195 11.917ZM3.54167 16.3337H13.4583V14.8337H3.54167V16.3337ZM15.4583 13.3337L14.8681 11.917L13.4834 12.4939L14.0737 13.9106L15.4583 13.3337ZM12.8681 10.5837H11.3333V12.0837H12.8681V10.5837ZM4.13195 12.0837H5.66667V10.5837H4.13195V12.0837ZM14.8681 11.917C14.5316 11.1096 13.7427 10.5837 12.8681 10.5837V12.0837C13.1372 12.0837 13.3799 12.2455 13.4834 12.4939L14.8681 11.917ZM13.4583 16.3337C15.0044 16.3337 16.053 14.7608 15.4583 13.3337L14.0737 13.9106C14.2567 14.3497 13.9341 14.8337 13.4583 14.8337V16.3337ZM1.54167 13.3337C0.947026 14.7608 1.99559 16.3337 3.54167 16.3337V14.8337C3.06596 14.8337 2.74332 14.3497 2.92629 13.9106L1.54167 13.3337ZM3.51657 12.4939C3.62008 12.2455 3.86282 12.0837 4.13195 12.0837V10.5837C3.25727 10.5837 2.46837 11.1096 2.13195 11.917L3.51657 12.4939Z" fill="#FFD700"/>
</svg>
