<svg width="843" height="833" viewBox="0 0 843 833" fill="none" xmlns="http://www.w3.org/2000/svg">
<rect width="843" height="833" rx="130" fill="#061D25"/>
<path d="M591.927 305.114L628.5 316.606C633.38 318.14 636.753 322.808 636.662 327.903L636.319 347.087C636.213 353.013 631.495 357.569 625.628 357.409L597.81 356.65C596.62 356.617 595.559 357.304 595.112 358.398L524.061 532.183C522.408 536.227 518.267 538.556 513.885 537.907L330.593 510.769C326.184 510.117 322.591 506.606 321.784 502.162L285.404 301.75C284.27 295.504 279.208 290.579 273.008 289.69L185.215 277.101C174.272 275.532 166.231 265.325 167.262 254.315L167.837 248.178C168.876 237.077 178.734 229.424 189.75 231.167L304.586 249.327C311.586 250.434 317.258 256.038 318.529 263.102L353.312 456.502C354.112 460.953 357.708 464.472 362.124 465.126L492.175 484.381C496.461 485.016 500.529 482.801 502.25 478.894L575.647 312.295C578.387 306.078 585.295 303.03 591.927 305.114Z" fill="#0583F2"/>
<ellipse cx="20.797" cy="25.6079" rx="20.797" ry="25.6079" transform="matrix(0.992825 0.119579 -0.0785465 0.99691 493.855 547.011)" fill="#EBF8FD"/>
<path d="M355.499 563.87C354.388 577.969 344.243 588.285 332.84 586.912C321.436 585.538 313.093 572.995 314.203 558.896C315.314 544.797 325.459 534.481 336.863 535.854C348.266 537.228 356.61 549.771 355.499 563.87Z" fill="#EBF8FD"/>
<path fill-rule="evenodd" clip-rule="evenodd" d="M425.908 439.306C404.728 434.588 387.058 422.292 377.858 411.262L394.861 389.451C400.25 395.912 413.368 405.69 430.233 409.447C446.664 413.107 465.936 410.908 484.653 395.065L498.443 420.123C473.55 441.192 447.521 444.12 425.908 439.306Z" fill="#F8FDFF"/>
</svg>
