<svg width="48" height="35" viewBox="0 0 48 35" fill="none" xmlns="http://www.w3.org/2000/svg">
<path d="M16.2578 29.9574C17.1941 29.9574 17.9531 29.1616 17.9531 28.1799C17.9531 27.1982 17.1941 26.4023 16.2578 26.4023C15.3215 26.4023 14.5625 27.1982 14.5625 28.1799C14.5625 29.1616 15.3215 29.9574 16.2578 29.9574Z" fill="#009FE3"/>
<path d="M16.1648 34.5773C14.9576 34.5576 13.783 34.1631 12.7897 33.4435C11.7964 32.7239 11.0289 31.7116 10.5843 30.5347C10.1396 29.3577 10.0379 28.0689 10.2919 26.8313C10.5458 25.5937 11.1441 24.4629 12.0111 23.5818C12.8781 22.7008 13.9747 22.1091 15.1624 21.8816C16.3501 21.654 17.5755 21.8009 18.6836 22.3037C19.7917 22.8064 20.7327 23.6423 21.3876 24.7058C22.0425 25.7693 22.382 27.0126 22.363 28.2783C22.3357 29.9747 21.6679 31.5906 20.5059 32.7714C19.344 33.9522 17.7828 34.6017 16.1648 34.5773ZM16.3195 24.222C15.5734 24.2098 14.8405 24.4298 14.2136 24.8543C13.5867 25.2787 13.0939 25.8886 12.7976 26.6067C12.5012 27.3248 12.4146 28.119 12.5487 28.8887C12.6827 29.6584 13.0315 30.3692 13.5508 30.9311C14.0701 31.493 14.7366 31.8809 15.4662 32.0456C16.1957 32.2103 16.9554 32.1446 17.6493 31.8566C18.3432 31.5686 18.9401 31.0714 19.3644 30.4278C19.7888 29.7841 20.0216 29.023 20.0335 28.2407C20.0482 27.1909 19.6649 26.178 18.9677 25.4244C18.2706 24.6709 17.3166 24.2384 16.3154 24.222H16.3195Z" fill="#009FE3"/>
<path d="M41.8945 30.3774C42.8308 30.3774 43.5898 29.5815 43.5898 28.5998C43.5898 27.6181 42.8308 26.8223 41.8945 26.8223C40.9582 26.8223 40.1992 27.6181 40.1992 28.5998C40.1992 29.5815 40.9582 30.3774 41.8945 30.3774Z" fill="#009FE3"/>
<path d="M41.8001 34.9991C40.593 34.9792 39.4186 34.5844 38.4254 33.8646C37.4323 33.1449 36.665 32.1325 36.2206 30.9555C35.7762 29.7785 35.6746 28.4898 35.9288 27.2523C36.1829 26.0148 36.7813 24.8841 37.6483 24.0032C38.5153 23.1223 39.612 22.5307 40.7997 22.3033C41.9873 22.0759 43.2126 22.2229 44.3206 22.7257C45.4286 23.2284 46.3695 24.0644 47.0244 25.1278C47.6793 26.1913 48.0187 27.4345 47.9997 28.7002C47.9724 30.3969 47.3044 32.0129 46.1421 33.1938C44.9799 34.3747 43.4184 35.0239 41.8001 34.9991ZM41.9549 24.6438C41.2087 24.6316 40.4758 24.8516 39.8489 25.2761C39.222 25.7006 38.7293 26.3105 38.4329 27.0286C38.1365 27.7467 38.0499 28.5408 38.184 29.3105C38.3181 30.0803 38.6668 30.791 39.1861 31.3529C39.7054 31.9149 40.372 32.3027 41.1015 32.4675C41.831 32.6322 42.5908 32.5664 43.2847 32.2784C43.9785 31.9905 44.5754 31.4932 44.9998 30.8496C45.4241 30.206 45.657 29.4449 45.6688 28.6625C45.6836 27.6135 45.3008 26.6012 44.6045 25.8478C43.9083 25.0944 42.9553 24.6614 41.9549 24.6438Z" fill="#009FE3"/>
<path d="M39.8582 19.3781C40.0189 19.333 40.1901 19.3566 40.3341 19.4438C40.4782 19.531 40.5833 19.6746 40.6264 19.843L42.7426 28.1213L41.5364 28.4603L39.4202 20.182C39.3774 20.0146 39.3994 19.8361 39.4814 19.6856C39.5634 19.535 39.6989 19.4245 39.8582 19.3781Z" fill="#009FE3"/>
<path d="M44.4005 14.4468C43.128 14.1773 41.3346 15.9781 41.4921 17.8628C41.6455 19.6853 43.5895 21.1485 44.8081 20.6936C45.8886 20.2908 46.1815 18.4756 46.0779 17.3442C45.9895 16.3359 45.4727 14.6742 44.4005 14.4468Z" fill="#009FE3"/>
<path d="M8.68594 9.24228C8.64034 9.26546 14.6175 9.35093 17.443 9.38715C17.851 9.39273 18.2446 9.54608 18.5571 9.8212C18.8696 10.0963 19.0818 10.4763 19.1576 10.8967L20.5877 18.8196C20.6249 19.029 20.6174 19.2444 20.5656 19.4503C20.5138 19.6562 20.419 19.8475 20.2882 20.0103C20.1573 20.1732 19.9936 20.3036 19.8088 20.392C19.6241 20.4805 19.4229 20.5248 19.2198 20.5218L13.4472 20.4842C13.1197 20.4812 12.7973 20.5681 12.5118 20.7362C11.937 21.0796 11.2337 21.6779 10.3633 22.747C9.53714 23.7629 8.95742 24.9732 8.6735 26.2746C8.39931 25.4934 8.25899 24.6675 8.259 23.835C8.22722 21.9908 9.25795 20.7348 9.53428 20.4262L8.92496 20.4161C8.51868 20.4092 8.1316 20.2336 7.84872 19.9277C7.56583 19.6219 7.41027 19.2109 7.41618 18.7849L7.54191 10.4099C7.54628 10.0961 7.66918 9.79697 7.88365 9.57807C8.09812 9.35917 8.38665 9.23841 8.68594 9.24228Z" fill="#009FE3"/>
<path d="M30.6166 31.7266C30.7042 31.7672 30.7991 31.7875 30.8949 31.7864C30.9907 31.7853 31.0851 31.7627 31.1719 31.7202C31.2586 31.6777 31.3357 31.6161 31.3979 31.5398C31.4602 31.4635 31.5061 31.374 31.5326 31.2775C31.5685 31.1377 31.5636 30.9898 31.5185 30.853C31.4735 30.7161 31.3903 30.5966 31.2798 30.5097L30.5351 29.9216C30.4567 29.8594 30.4049 29.7673 30.391 29.6653C30.377 29.5633 30.402 29.4596 30.4605 29.3769L34.5157 23.556C34.6743 23.3289 34.7807 23.0666 34.8267 22.7893C34.8728 22.5121 34.8571 22.2274 34.781 21.9575C34.705 21.6877 34.5705 21.4398 34.3881 21.2334C34.2057 21.0269 33.9803 20.8674 33.7295 20.7672L27.6722 18.3436C27.4643 18.2605 27.2916 18.1019 27.1856 17.8967C27.0796 17.6915 27.0474 17.4532 27.0947 17.2252C27.295 16.2274 27.6953 15.2857 28.2691 14.4625C28.418 14.2514 28.5781 14.0492 28.7486 13.857C28.8862 13.7003 29.0731 13.601 29.275 13.5774C29.4214 13.5629 29.532 13.5774 29.5624 13.6541C30.4024 15.72 30.9841 16.5095 31.3876 16.7906L32.2718 17.4019C33.2888 17.8315 34.3384 18.1708 35.4096 18.416C36.3259 18.6253 37.2554 18.7648 38.1909 18.8332C38.5193 18.8615 38.8454 18.7549 39.1003 18.536C39.3552 18.3171 39.5191 18.0029 39.5574 17.6598C39.5574 17.6221 39.5574 17.583 39.5643 17.5439V17.5294C39.5654 17.2016 39.4497 16.8851 39.2399 16.642C39.03 16.399 38.7412 16.2468 38.4299 16.2154C37.5511 16.1237 36.6841 15.9344 35.8435 15.6504C35.6707 15.5925 35.5022 15.5302 35.3405 15.4679C34.8882 15.2891 34.4768 15.0125 34.133 14.6561C33.7893 14.2997 33.5209 13.8714 33.3454 13.3992C32.7559 11.8268 32.1654 10.2579 31.5741 8.69235C31.4166 8.27341 31.1112 7.93424 30.7213 7.74537C30.3315 7.55649 29.8872 7.53246 29.4809 7.67826C27.4917 8.36323 25.728 9.62437 24.3935 11.3159C23.5645 12.3822 21.3884 15.3535 22.245 19.7662C22.7977 22.6201 26.7451 23.1779 29.7061 23.8515L27.2467 29.5072C27.216 29.5769 27.1988 29.6522 27.1961 29.7289C27.1934 29.8056 27.2053 29.882 27.231 29.9539C27.2567 30.0257 27.2957 30.0915 27.3459 30.1473C27.396 30.2032 27.4562 30.2481 27.523 30.2794L30.6166 31.7266Z" fill="#009FE3"/>
<path d="M39.1082 4.23612C39.14 4.2439 39.173 4.24349 39.2046 4.23494C39.2362 4.22639 39.2653 4.20995 39.2895 4.18702C39.3136 4.1641 39.3321 4.13537 39.3434 4.1033C39.3547 4.07123 39.3584 4.03678 39.3542 4.00288C39.3046 3.47934 39.172 2.96816 38.9618 2.49044C38.5651 1.72457 37.9715 1.09068 37.2485 0.660737C36.559 0.233159 35.7736 0.00517767 34.9725 8.71567e-05C34.1714 -0.00500335 33.3834 0.21298 32.689 0.631763C31.9401 1.08665 31.2548 1.79941 30.7754 3.03226C30.4923 3.7324 30.3903 4.49844 30.4797 5.25311C30.5519 5.85505 30.7552 6.43152 31.0738 6.93794C31.6887 7.89698 32.5508 8.27075 33.6465 8.72709L37.3673 9.70641C37.6201 9.77243 37.8862 9.75576 38.1297 9.65865C38.3732 9.56154 38.5826 9.38863 38.7297 9.16315L38.9784 8.63292C38.9951 8.59541 39.0041 8.55456 39.0045 8.51313C39.0049 8.4717 38.9969 8.43065 38.9809 8.39275C38.9649 8.35486 38.9414 8.32099 38.9119 8.29345C38.8824 8.2659 38.8475 8.24532 38.8098 8.23308L34.7574 7.12772C34.6695 7.10414 34.5898 7.05529 34.527 6.98668C34.4643 6.91808 34.4211 6.83246 34.4023 6.73947L33.8372 4.07387C33.8058 3.95359 33.8043 3.82692 33.8326 3.70583C33.861 3.58474 33.9183 3.47324 33.9992 3.38187C34.0802 3.2905 34.182 3.22228 34.295 3.18366C34.4081 3.14505 34.5287 3.13731 34.6454 3.16119L39.1082 4.23612Z" fill="#009FE3"/>
<path d="M34.6303 4.24644C34.7836 4.24644 34.908 4.11607 34.908 3.95525C34.908 3.79443 34.7836 3.66406 34.6303 3.66406C34.4769 3.66406 34.3525 3.79443 34.3525 3.95525C34.3525 4.11607 34.4769 4.24644 34.6303 4.24644Z" fill="#009FE3"/>
<path d="M0.443571 33.4104L9.85 33.564C9.92677 33.567 10.0029 33.5481 10.0702 33.5092C10.1374 33.4703 10.1933 33.4129 10.2318 33.3432C10.2703 33.2735 10.29 33.1941 10.2887 33.1135C10.2874 33.033 10.2652 32.9543 10.2244 32.886L9.70768 31.9806C9.66716 31.9099 9.60882 31.8524 9.53909 31.8143C9.46937 31.7762 9.39096 31.7591 9.31253 31.7647L0.414556 32.4659C0.303072 32.4759 0.199053 32.5288 0.122527 32.6144C0.0460006 32.6999 0.0023767 32.8122 5.40427e-05 32.9295C-0.00179473 33.0549 0.0438554 33.1759 0.126996 33.2661C0.210136 33.3562 0.323981 33.4082 0.443571 33.4104Z" fill="#009FE3"/>
<path d="M7.98445 30.4252L3.35723 30.4542C3.30838 30.4544 3.25998 30.4444 3.21487 30.4248C3.16975 30.4051 3.12883 30.3762 3.09448 30.3398C3.06013 30.3034 3.03305 30.2602 3.01482 30.2127C2.9966 30.1651 2.98759 30.1143 2.98832 30.0631C2.98989 29.9724 3.02193 29.8852 3.0788 29.8168C3.13566 29.7484 3.21371 29.7033 3.2992 29.6893L7.73713 28.9765C7.82672 28.9633 7.91787 28.9842 7.99396 29.0355C8.07005 29.0869 8.12601 29.1652 8.15163 29.2561L8.33954 29.9211C8.35485 29.9793 8.35734 30.0404 8.34684 30.0997C8.33633 30.1591 8.3131 30.2151 8.2789 30.2637C8.2447 30.3123 8.20042 30.352 8.14941 30.38C8.0984 30.408 8.042 30.4235 7.98445 30.4252Z" fill="#009FE3"/>
<path d="M14.4952 11.4863L12.3854 15.1182L13.1371 15.4297L12.1367 17.9012L14.4994 14.5011L13.6966 14.1244L14.4952 11.4863Z" fill="white"/>
</svg>
