<svg width="354" height="354" viewBox="0 0 354 354" fill="none" xmlns="http://www.w3.org/2000/svg">
<rect x="51" y="51" width="252" height="252" rx="21" fill="white" stroke="#0583F2" stroke-width="2" stroke-linejoin="bevel"/>
<rect x="0.223633" y="177" width="250" height="250" rx="20" transform="rotate(-45 0.223633 177)" fill="#0583F2"/>
<path d="M133.215 140.4C133.215 134.667 134.882 130.133 138.215 126.8C141.548 123.467 146.082 121.8 151.815 121.8H217.815C218.748 123.267 219.548 125.2 220.215 127.6C221.015 130 221.415 132.533 221.415 135.2C221.415 140.267 220.282 143.867 218.015 146C215.882 148.133 213.015 149.2 209.415 149.2H167.215V167.8H212.215C213.148 169.267 213.948 171.2 214.615 173.6C215.415 175.867 215.815 178.333 215.815 181C215.815 186.067 214.748 189.667 212.615 191.8C210.482 193.933 207.615 195 204.015 195H167.215V216H218.615C219.548 217.467 220.348 219.4 221.015 221.8C221.815 224.2 222.215 226.733 222.215 229.4C222.215 234.467 221.082 238.133 218.815 240.4C216.682 242.533 213.815 243.6 210.215 243.6H151.815C146.082 243.6 141.548 241.933 138.215 238.6C134.882 235.267 133.215 230.733 133.215 225V140.4Z" fill="white"/>
</svg>
