<!-- <svg width="398" height="823" viewBox="0 0 398 823" fill="none" xmlns="http://www.w3.org/2000/svg">
<g filter="url(#filter0_d_115_459)">
<path d="M165.349 453.715C162.435 453.715 159.926 453.121 157.823 451.933C155.733 450.733 154.122 449.037 152.99 446.847C151.859 444.644 151.293 442.039 151.293 439.032C151.293 436.099 151.859 433.525 152.99 431.31C154.122 429.095 155.714 427.369 157.768 426.131C159.834 424.894 162.256 424.275 165.036 424.275C166.905 424.275 168.645 424.578 170.256 425.184C171.879 425.778 173.293 426.676 174.498 427.876C175.716 429.076 176.663 430.586 177.339 432.405C178.016 434.212 178.354 436.328 178.354 438.754V440.925H159.059V436.025H170.957C170.957 434.886 170.711 433.878 170.219 432.999C169.727 432.121 169.045 431.434 168.171 430.939C167.311 430.431 166.308 430.178 165.165 430.178C163.972 430.178 162.914 430.456 161.992 431.013C161.082 431.558 160.369 432.294 159.852 433.222C159.336 434.138 159.071 435.159 159.059 436.285V440.944C159.059 442.355 159.317 443.574 159.834 444.601C160.363 445.628 161.107 446.42 162.066 446.977C163.025 447.534 164.163 447.812 165.478 447.812C166.351 447.812 167.151 447.688 167.876 447.441C168.602 447.193 169.223 446.822 169.739 446.327C170.256 445.832 170.649 445.226 170.92 444.508L178.188 444.991C177.819 446.748 177.062 448.282 175.919 449.594C174.787 450.894 173.324 451.908 171.529 452.638C169.746 453.356 167.686 453.715 165.349 453.715Z" fill="#061D25"/>
<path d="M179.917 453.158L179.403 428.057C179.361 425.981 181.032 424.275 183.109 424.275V424.275C185.156 424.275 186.815 425.934 186.815 427.981V429.677H187.147C187.738 428.006 188.721 426.688 190.099 425.723C191.476 424.758 193.124 424.275 195.042 424.275C196.985 424.275 198.639 424.764 200.004 425.741C201.369 426.707 202.279 428.018 202.734 429.677H203.029C203.607 428.043 204.653 426.738 206.165 425.76C207.69 424.77 209.492 424.275 211.57 424.275C214.214 424.275 216.36 425.123 218.007 426.818C219.668 428.501 220.498 430.889 220.498 433.983V453.158H212.658V435.542C212.658 433.958 212.24 432.77 211.404 431.978C210.568 431.186 209.522 430.79 208.268 430.79C206.841 430.79 205.729 431.248 204.929 432.164C204.13 433.067 203.73 434.262 203.73 435.747V453.158H196.112V435.375C196.112 433.977 195.712 432.863 194.913 432.034C194.126 431.205 193.087 430.79 191.796 430.79C190.923 430.79 190.136 431.013 189.435 431.459C188.746 431.892 188.199 432.504 187.793 433.296C187.387 434.076 187.184 434.992 187.184 436.044L186.594 453.158H179.917Z" fill="#061D25"/>
<path d="M222.62 453.158L222.111 428.574C222.066 426.418 223.802 424.646 225.959 424.646V424.646C228.115 424.646 229.851 426.418 229.806 428.574L229.297 453.158H222.62Z" fill="#061D25"/>
<path d="M238.437 463.85C237.441 463.85 236.506 463.77 235.633 463.609C234.772 463.46 234.059 463.268 233.493 463.033L235.264 457.131C236.186 457.415 237.016 457.57 237.754 457.595C238.504 457.619 239.15 457.446 239.691 457.075C240.244 456.704 240.693 456.072 241.037 455.181L241.499 453.975L231.335 424.646H239.599L245.465 445.585H245.76L251.681 424.646H260L248.988 456.24C248.459 457.774 247.74 459.111 246.83 460.249C245.932 461.4 244.794 462.285 243.417 462.903C242.04 463.535 240.38 463.85 238.437 463.85Z" fill="#061D25"/>
<path d="M249.475 366.097L252.29 366.812C254.159 367.287 255.452 368.99 255.41 370.917C255.359 373.204 253.465 375.017 251.178 374.966L247.108 374.876C246.245 374.857 245.449 375.335 245.059 376.105L231.042 403.836C229.145 407.588 225.103 409.754 220.928 409.254L187.575 405.26C183.367 404.756 179.934 401.655 179.006 397.52L173.146 371.408C171.909 365.899 167.325 361.773 161.716 361.123L147.313 359.452C144.86 359.168 143.102 356.949 143.386 354.496C143.672 352.022 145.925 350.258 148.396 350.574L167.791 353.055C174.481 353.911 179.916 358.869 181.38 365.453L186.546 388.684C187.467 392.828 190.904 395.938 195.118 396.443L215.92 398.934C219.983 399.42 223.933 397.382 225.89 393.788L238.322 370.965C240.49 366.984 245.081 364.98 249.475 366.097Z" fill="#F29F05"/>
<circle cx="225.784" cy="417.047" r="4.95559" transform="rotate(5.56392 225.784 417.047)" fill="#061D25"/>
<path d="M188.283 414.891C188.017 417.615 185.594 419.608 182.87 419.343C180.146 419.077 178.153 416.654 178.418 413.93C178.684 411.206 181.107 409.213 183.831 409.478C186.555 409.743 188.548 412.167 188.283 414.891Z" fill="#061D25"/>
<path fill-rule="evenodd" clip-rule="evenodd" d="M205.102 390.825C200.042 389.913 195.821 387.537 193.624 385.406L197.685 381.192C198.973 382.441 202.106 384.33 206.135 385.056C210.06 385.763 214.663 385.338 219.135 382.277L222.429 387.118C216.482 391.189 210.265 391.755 205.102 390.825Z" fill="#061D25"/>
</g>
<defs>
<filter id="filter0_d_115_459" x="0" y="0" width="398" height="823" filterUnits="userSpaceOnUse" color-interpolation-filters="sRGB">
<feFlood flood-opacity="0" result="BackgroundImageFix"/>
<feColorMatrix in="SourceAlpha" type="matrix" values="0 0 0 0 0 0 0 0 0 0 0 0 0 0 0 0 0 0 127 0" result="hardAlpha"/>
<feOffset dy="4"/>
<feGaussianBlur stdDeviation="2"/>
<feComposite in2="hardAlpha" operator="out"/>
<feColorMatrix type="matrix" values="0 0 0 0 0 0 0 0 0 0 0 0 0 0 0 0 0 0 0.25 0"/>
<feBlend mode="normal" in2="BackgroundImageFix" result="effect1_dropShadow_115_459"/>
<feBlend mode="normal" in="SourceGraphic" in2="effect1_dropShadow_115_459" result="shape"/>
</filter>
</defs>
</svg>

 -->
 <svg width="139" height="130" viewBox="0 0 139 130" fill="none" xmlns="http://www.w3.org/2000/svg">
<path d="M31.1602 118.167C27.8396 118.167 24.9814 117.49 22.5855 116.137C20.2037 114.769 18.3682 112.837 17.0792 110.342C15.7902 107.832 15.1457 104.864 15.1457 101.438C15.1457 98.0965 15.7902 95.1638 17.0792 92.64C18.3682 90.1162 20.1826 88.1494 22.5225 86.7394C24.8763 85.3295 27.6365 84.6245 30.8029 84.6245C32.9326 84.6245 34.9151 84.9699 36.7506 85.6608C38.6 86.3376 40.2112 87.3598 41.5843 88.7274C42.9714 90.0951 44.0502 91.8152 44.8208 93.8878C45.5914 95.9463 45.9767 98.3573 45.9767 101.121V103.595H23.9936V98.0119H37.5492C37.5492 96.7147 37.269 95.5656 36.7085 94.5646C36.1481 93.5635 35.3705 92.781 34.3757 92.217C33.3949 91.639 32.253 91.3499 30.95 91.3499C29.591 91.3499 28.386 91.6671 27.3352 92.3016C26.2984 92.922 25.4858 93.7609 24.8973 94.8184C24.3089 95.8617 24.0076 97.0249 23.9936 98.308V103.616C23.9936 105.224 24.2878 106.612 24.8763 107.783C25.4788 108.953 26.3264 109.855 27.4193 110.49C28.5121 111.124 29.8081 111.442 31.3073 111.442C32.3021 111.442 33.2128 111.301 34.0394 111.019C34.8661 110.737 35.5736 110.314 36.1621 109.75C36.7506 109.186 37.1989 108.495 37.5071 107.677L45.7876 108.227C45.3673 110.229 44.5056 111.977 43.2026 113.472C41.9136 114.952 40.2463 116.108 38.2007 116.94C36.1691 117.758 33.8223 118.167 31.1602 118.167Z" fill="#061D25"/>
<path d="M47.7577 117.532L47.1728 88.9336C47.1245 86.5681 49.0287 84.6245 51.3947 84.6245C53.7268 84.6245 55.6174 86.5151 55.6174 88.8472V90.7789H55.9957C56.6682 88.8755 57.7891 87.3739 59.3583 86.2741C60.9275 85.1744 62.805 84.6245 64.9907 84.6245C67.2044 84.6245 69.0889 85.1814 70.6441 86.2953C72.1993 87.395 73.2361 88.8896 73.7545 90.7789H74.0908C74.7493 88.9178 75.9402 87.4303 77.6635 86.3164C79.4009 85.1885 81.4535 84.6245 83.8213 84.6245C86.8337 84.6245 89.2786 85.5903 91.156 87.5219C93.0475 89.4394 93.9933 92.1606 93.9933 95.6855V117.532H85.0613V97.462C85.0613 95.6573 84.5849 94.3037 83.6322 93.4014C82.6794 92.499 81.4885 92.0478 80.0594 92.0478C78.4341 92.0478 77.1661 92.5695 76.2554 93.6129C75.3447 94.6421 74.8894 96.0027 74.8894 97.6946V117.532H66.2096V97.2717C66.2096 95.6784 65.7543 94.4095 64.8436 93.4648C63.9469 92.5202 62.7629 92.0478 61.2918 92.0478C60.297 92.0478 59.4003 92.3016 58.6017 92.8092C57.8171 93.3027 57.1936 94.0006 56.7312 94.903C56.2689 95.7912 56.0377 96.8346 56.0377 98.033L55.3648 117.532H47.7577Z" fill="#061D25"/>
<path d="M96.4118 117.532L95.8316 89.523C95.7807 87.0664 97.7582 85.0475 100.215 85.0475C102.673 85.0475 104.65 87.0664 104.599 89.523L104.019 117.532H96.4118Z" fill="#061D25"/>
<path d="M114.432 129.714C113.297 129.714 112.232 129.623 111.237 129.439C110.257 129.27 109.444 129.052 108.799 128.784L110.817 122.058C111.868 122.383 112.814 122.559 113.654 122.587C114.509 122.615 115.244 122.418 115.861 121.995C116.491 121.572 117.003 120.853 117.395 119.838L117.921 118.463L106.341 85.0475H115.756L122.439 108.904H122.775L129.522 85.0475H139L126.453 121.043C125.851 122.792 125.031 124.314 123.994 125.611C122.972 126.923 121.676 127.931 120.106 128.636C118.537 129.355 116.646 129.714 114.432 129.714Z" fill="#061D25"/>
<path d="M127.008 18.34L130.215 19.1552C132.345 19.6964 133.819 21.6357 133.77 23.8322C133.713 26.4373 131.554 28.5026 128.949 28.4451L124.311 28.3427C123.329 28.321 122.421 28.8656 121.978 29.7427L105.566 62.2086C103.669 65.9612 99.6277 68.1263 95.4527 67.6264L55.5044 62.8425C51.2971 62.3387 47.8641 59.2379 46.9362 55.1034L39.867 23.6064C38.5637 17.7994 33.7315 13.4511 27.8197 12.7654L10.6108 10.7696C7.81593 10.4454 5.8128 7.91721 6.13641 5.12225C6.4628 2.30326 9.02939 0.294176 11.8443 0.654219L35.496 3.67944C42.1857 4.5351 47.6206 9.4937 49.0845 16.0771L55.5245 45.0382C56.4458 49.1816 59.8825 52.292 64.097 52.7967L89.7148 55.8644C93.7782 56.351 97.728 54.3126 99.6855 50.7188L114.301 23.8864C116.772 19.3512 122.003 17.0679 127.008 18.34Z" fill="#F29F05"/>
<circle cx="100.017" cy="76.3886" r="5.64612" transform="rotate(5.56392 100.017 76.3886)" fill="#061D25"/>
<path d="M57.2895 73.9326C56.9871 77.0362 54.2261 79.3071 51.1225 79.0047C48.0189 78.7024 45.7481 75.9414 46.0504 72.8378C46.3528 69.7342 49.1138 67.4633 52.2174 67.7657C55.3209 68.068 57.5918 70.8291 57.2895 73.9326Z" fill="#061D25"/>
<path fill-rule="evenodd" clip-rule="evenodd" d="M74.0773 46.9743C68.3131 45.9358 63.5038 43.2291 61 40.801L65.6276 36C67.0941 37.4221 70.6644 39.5746 75.2543 40.4015C79.7263 41.2072 84.9713 40.7231 90.0655 37.2358L93.8185 42.7516C87.0435 47.3896 79.9595 48.034 74.0773 46.9743Z" fill="#061D25"/>
</svg>
