<svg width="621" height="579" viewBox="0 0 621 579" fill="none" xmlns="http://www.w3.org/2000/svg">
<path d="M139.758 526.798C124.954 526.798 112.212 523.781 101.531 517.746C90.9125 511.649 82.73 503.038 76.9835 491.912C71.237 480.724 68.3638 467.493 68.3638 452.219C68.3638 437.322 71.237 424.248 76.9835 412.996C82.73 401.745 90.8188 392.977 101.25 386.691C111.744 380.405 124.048 377.263 138.165 377.263C147.659 377.263 156.497 378.803 164.68 381.883C172.925 384.9 180.108 389.457 186.229 395.554C192.413 401.651 197.223 409.319 200.658 418.559C204.093 427.736 205.811 438.485 205.811 450.804V461.836H107.808V436.945H168.24C168.24 431.162 166.991 426.039 164.493 421.576C161.994 417.114 158.527 413.625 154.093 411.111C149.72 408.534 144.63 407.245 138.821 407.245C132.762 407.245 127.39 408.659 122.706 411.488C118.083 414.254 114.461 417.994 111.837 422.708C109.214 427.359 107.871 432.545 107.808 438.265V461.93C107.808 469.096 109.12 475.287 111.743 480.504C114.429 485.721 118.208 489.744 123.08 492.572C127.952 495.401 133.73 496.815 140.413 496.815C144.848 496.815 148.908 496.187 152.594 494.93C156.279 493.672 159.433 491.787 162.056 489.272C164.68 486.758 166.679 483.678 168.053 480.033L204.968 482.484C203.094 491.41 199.253 499.204 193.444 505.867C187.697 512.466 180.264 517.621 171.145 521.329C162.088 524.975 151.625 526.798 139.758 526.798Z" fill="#061D25"/>
<path d="M213.75 523.969L211.143 396.473C210.928 385.927 219.417 377.263 229.965 377.263V377.263C240.361 377.263 248.79 385.691 248.79 396.088V404.699H250.476C253.474 396.214 258.471 389.52 265.467 384.617C272.463 379.714 280.833 377.263 290.577 377.263C300.446 377.263 308.847 379.746 315.78 384.711C322.713 389.614 327.335 396.277 329.647 404.699H331.146C334.081 396.402 339.391 389.771 347.073 384.805C354.819 379.777 363.969 377.263 374.525 377.263C387.955 377.263 398.854 381.568 407.224 390.18C415.657 398.728 419.873 410.859 419.873 426.573V523.969H380.053V434.493C380.053 426.448 377.93 420.413 373.682 416.391C369.435 412.368 364.125 410.356 357.754 410.356C350.509 410.356 344.856 412.682 340.796 417.334C336.736 421.922 334.706 427.988 334.706 435.53V523.969H296.011V433.645C296.011 426.542 293.981 420.885 289.921 416.674C285.923 412.462 280.645 410.356 274.087 410.356C269.652 410.356 265.654 411.488 262.094 413.751C258.596 415.951 255.817 419.062 253.755 423.085C251.694 427.045 250.664 431.696 250.664 437.039L247.664 523.969H213.75Z" fill="#061D25"/>
<path d="M430.655 523.969L428.068 399.101C427.841 388.149 436.657 379.148 447.611 379.148V379.148C458.565 379.148 467.381 388.149 467.155 399.101L464.568 523.969H430.655Z" fill="#061D25"/>
<path d="M510.99 578.277C505.93 578.277 501.183 577.868 496.748 577.051C492.376 576.297 488.753 575.323 485.88 574.128L494.875 544.146C499.559 545.592 503.775 546.377 507.523 546.503C511.333 546.629 514.612 545.749 517.361 543.863C520.172 541.977 522.452 538.772 524.2 534.246L526.543 528.118L474.918 379.148H516.892L546.687 485.501H548.186L578.261 379.148H620.517L564.582 539.62C561.896 547.414 558.242 554.203 553.62 559.986C549.06 565.831 543.282 570.326 536.287 573.468C529.291 576.674 520.859 578.277 510.99 578.277Z" fill="#061D25"/>
<path d="M539.668 74.801L589.09 87.3617C594.054 88.6234 597.491 93.1447 597.378 98.2656L596.98 116.278C596.846 122.351 591.814 127.166 585.74 127.032L549.754 126.238C548.599 126.212 547.532 126.852 547.011 127.883L460.54 298.946C458.643 302.699 454.601 304.864 450.426 304.364L224.01 277.25C219.803 276.747 216.37 273.646 215.442 269.511L171.048 71.7093C169.745 65.9023 164.912 61.554 159.001 60.8684L45.4503 47.699C34.4796 46.4266 26.6169 36.5027 27.8871 25.5318L28.5153 20.1061C29.7965 9.04086 39.871 1.15471 50.9201 2.56797L197.64 21.3345C204.33 22.1902 209.765 27.1488 211.229 33.7322L253.694 224.7C254.615 228.844 258.052 231.954 262.266 232.459L424.068 251.835C428.131 252.321 432.081 250.283 434.039 246.689L523.925 81.6727C526.986 76.0537 533.466 73.2249 539.668 74.801Z" fill="#0583F2"/>
<circle cx="446.725" cy="340.549" r="25.1709" transform="rotate(5.56392 446.725 340.549)" fill="#061D25"/>
<path d="M256.244 329.601C254.896 343.437 242.587 353.561 228.751 352.213C214.915 350.865 204.792 338.556 206.14 324.72C207.487 310.884 219.796 300.76 233.632 302.108C247.468 303.456 257.592 315.765 256.244 329.601Z" fill="#061D25"/>
<path fill-rule="evenodd" clip-rule="evenodd" d="M341.672 207.362C315.975 202.733 294.535 190.666 283.373 179.841L304.003 158.438C310.541 164.778 326.457 174.374 346.919 178.06C366.856 181.652 390.239 179.494 412.949 163.947L429.68 188.537C399.477 209.213 367.896 212.086 341.672 207.362Z" fill="#061D25"/>
</svg>
