<svg width="24" height="24" viewBox="0 0 24 24" fill="none" xmlns="http://www.w3.org/2000/svg">
<path d="M14.4998 7.44981C14.4998 8.83052 13.3806 9.94981 11.9998 9.94981C10.6191 9.94981 9.49985 8.83052 9.49985 7.44981C9.49985 6.0691 10.6191 4.94981 11.9998 4.94981C13.3806 4.94981 14.4998 6.0691 14.4998 7.44981Z" fill="#F2796B"/>
<path d="M8.14064 13.1334C7.50564 14.0372 8.39527 14.9999 9.49984 14.9999H14.4998C15.6044 14.9999 16.4941 14.0372 15.859 13.1334C15.2727 12.2989 14.1499 11.4999 11.9998 11.4999C9.84973 11.4999 8.72695 12.2989 8.14064 13.1334Z" fill="#F2796B"/>
<path fill-rule="evenodd" clip-rule="evenodd" d="M11.9998 0.00341797C18.005 0.00341797 22.5647 5.78803 21.2718 11.5816C20.275 16.2815 16.2428 20.8463 13.8363 23.2267C12.8057 24.2462 11.194 24.2462 10.1634 23.2267C7.75705 20.8464 3.72507 16.2819 2.72801 11.5824C1.43624 5.79597 5.99633 0.00341797 11.9998 0.00341797ZM19.3199 11.146C20.3366 6.58969 16.7123 2.00342 11.9998 2.00342C7.28997 2.00342 3.66423 6.5967 4.67996 11.1466C5.16871 13.336 6.26404 15.3016 7.54993 17.1192C8.89364 19.0185 10.417 20.6644 11.5699 21.8049C11.8213 22.0535 12.1784 22.0535 12.4298 21.8049C13.5828 20.6643 15.1062 19.0183 16.45 17.1189C17.7357 15.3014 18.8315 13.3353 19.3199 11.146Z" fill="#F2796B"/>
</svg>
