<svg width="17" height="17" viewBox="0 0 17 17" fill="none" xmlns="http://www.w3.org/2000/svg">
<path d="M2.8335 6.375C2.8335 4.37153 2.8335 3.3698 3.45589 2.7474C4.07829 2.125 5.08003 2.125 7.0835 2.125H9.91683C11.9203 2.125 12.922 2.125 13.5444 2.7474C14.1668 3.3698 14.1668 4.37153 14.1668 6.375V11.2112C14.1668 13.1119 14.1668 14.0622 13.5688 14.3529C12.9707 14.6436 12.2235 14.0564 10.729 12.8821L10.2507 12.5063C9.41031 11.8461 8.99014 11.5159 8.50016 11.5159C8.01019 11.5159 7.59002 11.8461 6.74967 12.5063L6.27137 12.8822C4.77684 14.0564 4.02958 14.6436 3.43154 14.3529C2.8335 14.0622 2.8335 13.1119 2.8335 11.2112V6.375Z" stroke="#0583F2" stroke-width="2.5"/>
</svg>
