<svg width="189" height="190" viewBox="0 0 189 190" fill="none" xmlns="http://www.w3.org/2000/svg">
<path d="M167.903 97.5818C166.272 92.2539 162.374 87.8851 157.906 84.0624C154.001 80.8833 149.722 78.1992 145.164 76.0706C133.669 70.3831 119.721 67.0399 107.576 61.126C103.654 59.3683 99.962 57.1315 96.5846 54.4662C94.1981 52.4682 92.9119 50.4703 93.2434 48.4191C89.3391 43.801 84.5302 40.0399 79.1162 37.3699C73.7022 34.6999 67.799 33.1782 61.7741 32.8996C55.7493 32.6209 49.7319 33.5913 44.0966 35.7503C38.4613 37.9093 33.3288 41.2107 29.0186 45.4488C26.8927 47.5605 24.9663 49.8658 23.2644 52.3351C15.6517 63.6861 12.1849 77.3344 13.453 90.962C13.9981 97.7197 15.7969 104.315 18.7564 110.409C22.1772 117.282 27.4011 122.809 32.9299 128.03C39.652 134.371 46.5465 140.538 53.4808 146.678C63.9816 155.922 74.5885 165.019 85.3015 173.97C87.9532 176.172 90.5784 178.365 93.1771 180.55C128.312 151.247 145.907 135.263 154.048 127.404C159.775 121.903 164.734 116.225 168.115 109.245C169.343 105.486 169.268 101.292 167.903 97.5818Z" fill="url(#paint0_linear_2391_2179)"/>
<path d="M102.127 53.0277C107.099 54.7859 112.323 56.2244 117.48 57.543C128.153 60.2069 139.079 62.6977 149.208 67.6393C159.046 72.4743 168.95 80.0931 173.074 90.5757C173.383 86.8242 173.347 83.0522 172.968 79.3073C171.642 66.7602 166.55 54.3063 157.495 45.3955C153.166 41.1851 148.032 37.9019 142.402 35.7451C136.773 33.5883 130.766 32.6028 124.746 32.8485C123.214 32.9167 121.686 33.0723 120.172 33.3146C118.652 33.5426 117.147 33.8584 115.664 34.2603C112.689 35.0473 109.805 36.1455 107.059 37.5369C105.692 38.2255 104.364 38.9904 103.081 39.8279C101.785 40.6491 100.532 41.5383 99.3291 42.4919C98.8385 42.8914 98.348 43.291 97.8707 43.7039L97.168 44.33C96.2376 45.1408 95.6419 46.2712 95.4974 47.5C95.4774 47.9584 95.5559 48.4157 95.7275 48.8409C95.899 49.2661 96.1597 49.6492 96.4918 49.9641C97.3324 50.7697 98.3118 51.4152 99.3822 51.8689C100.277 52.3007 101.193 52.6874 102.127 53.0277Z" fill="url(#paint1_linear_2391_2179)"/>
<path d="M65.0158 6.10265L65.9439 5.79632L66.7924 5.52992C68.1183 5.13033 69.3646 4.75738 70.6772 4.41107C87.7549 -0.108987 105.759 0.33516 122.595 5.69182C139.432 11.0485 154.408 21.0974 165.782 34.6697C177.156 48.242 184.46 64.7797 186.845 82.3589C189.229 99.9381 186.596 117.836 179.252 133.971C179.183 134.134 179.179 134.318 179.241 134.484C179.303 134.65 179.425 134.785 179.584 134.863C179.744 134.936 179.926 134.941 180.09 134.879C180.254 134.816 180.386 134.691 180.459 134.53C187.893 118.165 190.553 100.015 188.129 82.1915C185.704 64.3676 178.295 47.6007 166.762 33.8387C155.229 20.0768 140.046 9.88485 122.977 4.44701C105.907 -0.990835 87.6521 -1.45131 70.3325 3.11907C69.0066 3.4787 67.6807 3.85163 66.3549 4.26453L65.4931 4.53094L64.5517 4.8506C64.4601 4.87018 64.3736 4.90903 64.298 4.96462C64.2224 5.02021 64.1594 5.09128 64.1132 5.1731C64.0669 5.25493 64.0384 5.34566 64.0296 5.43935C64.0208 5.53304 64.0319 5.62757 64.062 5.71665C64.0922 5.80574 64.1409 5.88741 64.2048 5.95623C64.2686 6.02506 64.3463 6.07951 64.4327 6.11598C64.519 6.15245 64.6121 6.1701 64.7058 6.16781C64.7994 6.16552 64.8915 6.14331 64.976 6.10265H65.0158Z" fill="url(#paint2_linear_2391_2179)"/>
<path d="M147.776 171.812C129.388 184.634 107.021 190.382 84.7627 188.004C62.5043 185.626 41.8407 175.282 26.5477 158.862C11.2547 142.442 2.3536 121.042 1.47081 98.5724C0.588008 76.1031 7.7825 54.0648 21.7396 36.4847C22.7871 35.1527 23.8875 33.8208 25.0145 32.5954C25.1323 32.4629 25.1929 32.2889 25.1829 32.1115C25.173 31.9342 25.0933 31.768 24.9615 31.6497C24.8296 31.5313 24.6563 31.4705 24.4798 31.4805C24.3033 31.4904 24.1379 31.5705 24.0201 31.703C22.8799 33.0349 21.7794 34.3669 20.7055 35.6988C6.51273 53.5293 -0.81227 75.8988 0.0715848 98.7117C0.95544 121.525 9.98901 143.254 25.5183 159.923C41.0477 176.591 62.0337 187.083 84.634 189.476C107.234 191.87 129.937 186.006 148.585 172.958C148.656 172.908 148.717 172.845 148.764 172.772C148.81 172.699 148.842 172.617 148.857 172.532C148.872 172.446 148.869 172.358 148.85 172.274C148.831 172.189 148.795 172.109 148.744 172.038C148.699 171.955 148.638 171.883 148.563 171.825C148.488 171.768 148.402 171.727 148.311 171.706C148.219 171.685 148.124 171.683 148.032 171.701C147.94 171.72 147.853 171.757 147.776 171.812Z" fill="url(#paint3_linear_2391_2179)"/>
<path d="M102.074 111.328C99.2363 104.734 92.5275 102.11 87.224 97.7283C84.6231 95.7254 82.6676 92.9965 81.6023 89.883H61.5155C61.0584 89.883 60.6199 90.0655 60.2967 90.3902C59.9735 90.7149 59.7919 91.1554 59.7919 91.6146V103.522C59.7919 105.642 60.63 107.675 62.1219 109.173C63.6138 110.672 65.6372 111.514 67.7471 111.514H82.5702C82.6335 111.514 82.6942 111.539 82.739 111.584C82.7837 111.629 82.8089 111.69 82.8089 111.754V124.088C82.8124 126.876 83.9175 129.549 85.8814 131.52C87.8453 133.49 90.5075 134.597 93.2832 134.597H102.498C102.976 134.597 103.435 134.406 103.773 134.066C104.111 133.727 104.301 133.266 104.301 132.786V120.372C104.307 119.511 104.241 118.651 104.102 117.801C103.737 115.557 103.054 113.377 102.074 111.328Z" fill="white"/>
<path d="M119.323 89.883H104.487C104.423 89.883 104.363 89.8578 104.318 89.8128C104.273 89.7679 104.248 89.7069 104.248 89.6433V74.752C104.248 72.6324 103.41 70.5997 101.918 69.1009C100.426 67.6022 98.4027 66.7602 96.2929 66.7602H85.0231C84.7167 66.7619 84.4137 66.8249 84.1319 66.9454C83.85 67.066 83.5948 67.2418 83.3813 67.4625C83.1678 67.6832 83.0002 67.9444 82.8882 68.2309C82.7763 68.5174 82.7223 68.8234 82.7293 69.1311V83.2899C82.7015 85.0803 83.1112 86.8502 83.9226 88.4445C88.5763 97.2089 100.469 98.2345 104.58 110.342C104.712 110.728 104.805 111.115 104.898 111.501H126.112C126.388 111.497 126.653 111.385 126.848 111.189C127.044 110.992 127.156 110.727 127.159 110.449V97.8615C127.156 95.7649 126.332 93.7535 124.867 92.261C123.401 90.7685 121.41 89.9145 119.323 89.883Z" fill="white"/>
<path d="M42.7545 21.4602C45.5884 21.4602 47.8856 19.1523 47.8856 16.3055C47.8856 13.4586 45.5884 11.1508 42.7545 11.1508C39.9207 11.1508 37.6235 13.4586 37.6235 16.3055C37.6235 19.1523 39.9207 21.4602 42.7545 21.4602Z" fill="url(#paint4_linear_2391_2179)"/>
<path d="M58.3865 11.3506C60.261 11.3506 61.7807 9.82395 61.7807 7.94076C61.7807 6.05757 60.261 4.53094 58.3865 4.53094C56.5119 4.53094 54.9923 6.05757 54.9923 7.94076C54.9923 9.82395 56.5119 11.3506 58.3865 11.3506Z" fill="url(#paint5_linear_2391_2179)"/>
<path d="M29.1247 30.664C30.9992 30.664 32.5189 29.1374 32.5189 27.2542C32.5189 25.371 30.9992 23.8444 29.1247 23.8444C27.2501 23.8444 25.7305 25.371 25.7305 27.2542C25.7305 29.1374 27.2501 30.664 29.1247 30.664Z" fill="url(#paint6_linear_2391_2179)"/>
<path d="M171.562 153.897C171.248 152.828 170.597 151.89 169.708 151.223C168.819 150.555 167.74 150.195 166.63 150.194C166.146 150.195 165.664 150.262 165.198 150.394C164.007 150.737 162.98 151.501 162.307 152.545C161.633 153.59 161.358 154.843 161.533 156.075C161.707 157.307 162.319 158.434 163.256 159.248C164.193 160.062 165.391 160.508 166.63 160.504C167.119 160.504 167.606 160.432 168.075 160.291C168.723 160.102 169.327 159.787 169.854 159.364C170.38 158.94 170.818 158.416 171.142 157.822C171.466 157.228 171.67 156.575 171.742 155.902C171.814 155.228 171.753 154.547 171.562 153.897Z" fill="url(#paint7_linear_2391_2179)"/>
<path d="M157.23 166.817C157.041 166.174 156.667 165.6 156.155 165.17C155.642 164.74 155.014 164.471 154.35 164.399C153.686 164.327 153.016 164.454 152.424 164.764C151.831 165.074 151.344 165.553 151.022 166.142C150.701 166.73 150.56 167.4 150.618 168.069C150.675 168.737 150.929 169.374 151.346 169.898C151.763 170.422 152.326 170.81 152.962 171.013C153.599 171.216 154.281 171.225 154.923 171.04C155.351 170.916 155.75 170.708 156.098 170.428C156.446 170.149 156.736 169.803 156.95 169.41C157.164 169.018 157.299 168.587 157.347 168.142C157.395 167.697 157.355 167.247 157.23 166.817Z" fill="url(#paint8_linear_2391_2179)"/>
<path d="M179.928 140.031C179.744 139.375 179.37 138.788 178.852 138.346C178.335 137.904 177.699 137.626 177.024 137.549C176.349 137.471 175.667 137.597 175.064 137.911C174.46 138.225 173.964 138.711 173.637 139.31C173.31 139.908 173.168 140.59 173.229 141.269C173.289 141.949 173.55 142.595 173.977 143.125C174.404 143.656 174.979 144.046 175.628 144.247C176.277 144.448 176.971 144.45 177.621 144.254C178.049 144.13 178.449 143.922 178.797 143.642C179.145 143.363 179.434 143.017 179.649 142.624C179.863 142.232 179.998 141.801 180.046 141.356C180.094 140.911 180.054 140.461 179.928 140.031Z" fill="url(#paint9_linear_2391_2179)"/>
<defs>
<linearGradient id="paint0_linear_2391_2179" x1="94.5" y1="0" x2="94.5" y2="190" gradientUnits="userSpaceOnUse">
<stop stop-color="#33E4DB"/>
<stop offset="1" stop-color="#00BBD3"/>
</linearGradient>
<linearGradient id="paint1_linear_2391_2179" x1="94.5" y1="0" x2="94.5" y2="190" gradientUnits="userSpaceOnUse">
<stop stop-color="#33E4DB"/>
<stop offset="1" stop-color="#00BBD3"/>
</linearGradient>
<linearGradient id="paint2_linear_2391_2179" x1="94.5" y1="0" x2="94.5" y2="190" gradientUnits="userSpaceOnUse">
<stop stop-color="#33E4DB"/>
<stop offset="1" stop-color="#00BBD3"/>
</linearGradient>
<linearGradient id="paint3_linear_2391_2179" x1="94.5" y1="0" x2="94.5" y2="190" gradientUnits="userSpaceOnUse">
<stop stop-color="#33E4DB"/>
<stop offset="1" stop-color="#00BBD3"/>
</linearGradient>
<linearGradient id="paint4_linear_2391_2179" x1="94.5" y1="0" x2="94.5" y2="190" gradientUnits="userSpaceOnUse">
<stop stop-color="#33E4DB"/>
<stop offset="1" stop-color="#00BBD3"/>
</linearGradient>
<linearGradient id="paint5_linear_2391_2179" x1="94.5" y1="0" x2="94.5" y2="190" gradientUnits="userSpaceOnUse">
<stop stop-color="#33E4DB"/>
<stop offset="1" stop-color="#00BBD3"/>
</linearGradient>
<linearGradient id="paint6_linear_2391_2179" x1="94.5" y1="0" x2="94.5" y2="190" gradientUnits="userSpaceOnUse">
<stop stop-color="#33E4DB"/>
<stop offset="1" stop-color="#00BBD3"/>
</linearGradient>
<linearGradient id="paint7_linear_2391_2179" x1="94.5" y1="0" x2="94.5" y2="190" gradientUnits="userSpaceOnUse">
<stop stop-color="#33E4DB"/>
<stop offset="1" stop-color="#00BBD3"/>
</linearGradient>
<linearGradient id="paint8_linear_2391_2179" x1="94.5" y1="0" x2="94.5" y2="190" gradientUnits="userSpaceOnUse">
<stop stop-color="#33E4DB"/>
<stop offset="1" stop-color="#00BBD3"/>
</linearGradient>
<linearGradient id="paint9_linear_2391_2179" x1="94.5" y1="0" x2="94.5" y2="190" gradientUnits="userSpaceOnUse">
<stop stop-color="#33E4DB"/>
<stop offset="1" stop-color="#00BBD3"/>
</linearGradient>
</defs>
</svg>
