<svg width="65" height="66" viewBox="0 0 65 66" fill="none" xmlns="http://www.w3.org/2000/svg">
<path d="M15.0058 54.4415L17.8904 42.0087C18.2758 40.2696 20.0655 38.8305 21.8805 38.8305H24.2742C34.5139 38.8199 42.4562 36.7262 48.1642 32.5323C53.8637 28.3479 56.7146 22.8004 56.7008 15.9404C56.7146 12.927 56.193 10.4066 55.1044 8.39307C54.0643 6.36264 52.5038 4.71444 50.5124 3.46957C48.4471 2.19514 46.045 1.31666 43.2449 0.787674C40.4278 0.281914 37.1378 0.0337877 33.363 0L15.8843 0.0137248C14.0682 0.0348421 12.288 1.45921 11.8688 3.20455L0.0821798 54.4415C-0.323272 56.1942 0.810728 57.6429 2.62048 57.6429H10.9945C12.8043 57.6429 14.5982 56.2322 15.0058 54.4415ZM21.8541 24.7072L24.3745 13.8456C24.7588 12.096 26.5633 10.6452 28.373 10.6611L31.113 10.6442C34.3133 10.6442 36.746 11.1922 38.3879 12.2818C40.0055 13.3419 40.828 15.0155 40.7995 17.2676C40.847 20.658 39.562 23.2818 37.0248 25.1338C34.5002 26.9795 31.0011 27.9044 26.4598 27.9044H24.4072C22.5975 27.9044 21.455 26.4695 21.8541 24.7072Z" fill="black"/>
<path d="M63.3232 16.6119C62.2822 14.5815 60.7226 12.9333 58.7313 11.6884C58.5813 11.5966 58.4261 11.5111 58.273 11.4224C58.3311 11.529 58.3945 11.6314 58.4494 11.7402C59.538 13.7527 60.0596 16.2751 60.0458 19.2875C60.0596 26.1475 57.2087 31.695 51.5092 35.8794C45.8012 40.0722 37.8589 42.167 27.6181 42.1766H25.2276C23.4126 42.1766 21.6229 43.6157 21.2375 45.3547L18.3529 57.7886C17.9464 59.5793 16.1525 60.99 14.3416 60.99H8.68643L8.3021 62.6603C7.89665 64.4131 9.0317 65.8628 10.8404 65.8628H19.2134C21.0242 65.8628 22.8181 64.4511 23.2246 62.6603L26.1103 50.2275C26.4957 48.4896 28.2854 47.0494 30.1004 47.0494H32.4941C42.7339 47.0388 50.6761 44.945 56.3841 40.7511C62.0836 36.5667 64.9345 31.0192 64.9197 24.1603C64.9345 21.1479 64.4118 18.6255 63.3232 16.6119Z" fill="black"/>
</svg>
