<svg width="24" height="24" viewBox="0 0 24 24" fill="none" xmlns="http://www.w3.org/2000/svg">
<path d="M4.52186 7H7C7.55229 7 8 7.44771 8 8C8 8.55228 7.55228 9 7 9H3C1.89543 9 1 8.10457 1 7V3C1 2.44771 1.44772 2 2 2C2.55228 2 3 2.44771 3 3V5.67541C4.1421 4.05017 5.70859 2.75709 7.53982 1.94481C9.78743 0.947842 12.3043 0.732653 14.6885 1.3336C17.0727 1.93454 19.1868 3.31697 20.6934 5.26017C21.9949 6.939 22.7781 8.95275 22.9594 11.0552C23.0068 11.6054 22.5477 12.0518 21.9954 12.0491C21.4432 12.0464 20.999 11.5951 20.9404 11.0459C20.764 9.39335 20.132 7.81481 19.1057 6.49104C17.8743 4.90272 16.1463 3.77276 14.1975 3.28156C12.2487 2.79036 10.1915 2.96625 8.35437 3.78115C6.82323 4.46031 5.51853 5.55071 4.57994 6.92229C4.56157 6.94914 4.54218 6.97505 4.52186 7Z" fill="#0F0F0F"/>
<path d="M21 18.3246C19.8579 19.9498 18.2914 21.2429 16.4602 22.0552C14.2126 23.0522 11.6957 23.2673 9.31152 22.6664C6.9273 22.0654 4.81316 20.683 3.30663 18.7398C2.00506 17.061 1.22186 15.0472 1.04064 12.9448C0.993209 12.3946 1.45229 11.9482 2.00456 11.9509C2.55684 11.9536 3.00103 12.4049 3.05963 12.954C3.23597 14.6066 3.86797 16.1852 4.89426 17.509C6.12566 19.0973 7.85371 20.2272 9.80251 20.7184C11.7513 21.2096 13.8085 21.0337 15.6456 20.2188C17.1768 19.5397 18.4815 18.4493 19.4201 17.0777C19.4384 17.0509 19.4578 17.0249 19.4781 17H17C16.4477 17 16 16.5523 16 16C16 15.4477 16.4477 15 17 15H21C22.1046 15 23 15.8954 23 17V21C23 21.5523 22.5523 22 22 22C21.4477 22 21 21.5523 21 21V18.3246Z" fill="#0F0F0F"/>
</svg>
