<svg width="65" height="65" viewBox="0 0 65 65" fill="none" xmlns="http://www.w3.org/2000/svg">
<path d="M63.3603 27.2034L55.1242 26.3915C54.5944 24.415 53.8065 22.5187 52.771 20.7338L58.0296 14.3275C58.593 13.639 58.5417 12.6355 57.9134 12.0087L52.9121 7.00503C52.5754 6.66921 52.1346 6.49769 51.6898 6.49769C51.3011 6.49769 50.9123 6.62753 50.5925 6.89122L44.1862 12.1506C42.3981 11.1143 40.5026 10.3264 38.5277 9.79743L37.7174 1.5597C37.63 0.674856 36.8862 0 35.9966 0H28.925C28.0354 0 27.2916 0.674856 27.2034 1.5597L26.3931 9.79983C24.4182 10.3288 22.5227 11.1167 20.7394 12.153L14.3291 6.89202C14.0085 6.62833 13.6205 6.49929 13.2318 6.49929C12.787 6.49929 12.3462 6.66921 12.0095 7.00664L7.00824 12.0087C6.37987 12.6355 6.32858 13.6414 6.89202 14.3275L12.1546 20.7362C11.1199 22.5195 10.3296 24.415 9.80144 26.3923L1.56131 27.2042C0.675657 27.2884 0 28.0338 0 28.9234V35.9966C0 36.8862 0.675657 37.6316 1.5605 37.7166L9.80064 38.5285C10.3288 40.505 11.1183 42.3989 12.1538 44.1822L6.89443 50.5893C6.32697 51.277 6.37506 52.2813 7.00664 52.9096L12.0079 57.9126C12.3446 58.2476 12.7854 58.4183 13.2302 58.4183C13.6189 58.4183 14.0077 58.2885 14.3275 58.0264L20.7338 52.767C22.5219 53.8033 24.4126 54.5912 26.3923 55.1218L27.2026 63.3603C27.29 64.2451 28.0346 64.92 28.9242 64.92H35.9958C36.8854 64.92 37.63 64.2451 37.7174 63.3603L38.5277 55.1226C40.5066 54.5936 42.3981 53.8057 44.1862 52.767L50.5925 58.0264C50.9131 58.2885 51.3011 58.4183 51.6898 58.4183C52.1346 58.4183 52.5754 58.2476 52.9121 57.9126L57.9134 52.9096C58.5449 52.2821 58.593 51.277 58.0256 50.5893L52.7702 44.1846C53.8057 42.3989 54.5936 40.505 55.1234 38.5285L63.3595 37.7166C64.2443 37.6292 64.92 36.8862 64.92 35.9966V28.9234C64.9208 28.0338 64.2451 27.2908 63.3603 27.2034ZM32.462 42.0382C27.1698 42.0382 22.8818 37.7494 22.8818 32.4604C22.8818 27.169 27.1706 22.8818 32.462 22.8818C37.7502 22.8818 42.0382 27.169 42.0382 32.4604C42.039 37.7494 37.7502 42.0382 32.462 42.0382Z" fill="black"/>
</svg>
