<svg width="35" height="30" viewBox="0 0 35 30" fill="none" xmlns="http://www.w3.org/2000/svg">
<path opacity="0.4" d="M6.39954 11.5786C6.91685 9.21369 9.32587 7.5 12.133 7.5H22.8672C25.6742 7.5 28.0833 9.21369 28.6006 11.5786L30.7881 21.5786C31.4612 24.6556 28.7071 27.5 25.0547 27.5H9.94546C6.29299 27.5 3.53893 24.6556 4.21204 21.5786L6.39954 11.5786Z" fill="#777777"/>
<path fill-rule="evenodd" clip-rule="evenodd" d="M12.0312 6.25C12.0312 3.66117 14.4797 1.5625 17.5 1.5625C20.5203 1.5625 22.9688 3.66117 22.9688 6.25V10C22.9688 10.5178 22.4791 10.9375 21.875 10.9375C21.2709 10.9375 20.7813 10.5178 20.7813 10V6.25C20.7813 4.6967 19.3122 3.4375 17.5 3.4375C15.6878 3.4375 14.2188 4.6967 14.2188 6.25V10C14.2188 10.5178 13.7291 10.9375 13.125 10.9375C12.5209 10.9375 12.0312 10.5178 12.0312 10V6.25Z" fill="#777777"/>
</svg>
