<svg width="32" height="32" viewBox="0 0 32 32" fill="none" xmlns="http://www.w3.org/2000/svg">
<g filter="url(#filter0_b_3_1056)">
<path d="M15.2 32H16.8C23.5676 32 26.9514 32 29.1956 30.0832C29.5143 29.8111 29.8111 29.5143 30.0832 29.1956C32 26.9514 32 23.5676 32 16.8V15.2C32 8.43243 32 5.04864 30.0832 2.80441C29.8111 2.48573 29.5143 2.18893 29.1956 1.91675C26.9514 0 23.5676 0 16.8 0H15.2C8.43243 0 5.04864 0 2.80441 1.91675C2.48573 2.18893 2.18893 2.48573 1.91675 2.80441C0 5.04864 0 8.43243 0 15.2V16.8C0 23.5676 0 26.9514 1.91675 29.1956C2.18893 29.5143 2.48573 29.8111 2.80441 30.0832C5.04864 32 8.43243 32 15.2 32Z" fill="#BFB5AB" fill-opacity="0.5"/>
</g>
<path fill-rule="evenodd" clip-rule="evenodd" d="M13.1646 8.82282C13.1646 7.26126 14.4645 6 16.051 6C17.6477 6 18.9374 7.26126 18.9374 8.82282C18.9374 10.3844 17.6477 11.6456 16.051 11.6456C14.4543 11.6456 13.1646 10.3844 13.1646 8.82282ZM23.8197 16.0801C23.8606 16.4504 24.1779 16.7307 24.5566 16.7307H24.6385C25.0479 16.6907 25.3448 16.3303 25.3038 15.9299C25.007 13.3173 23.574 10.9549 21.353 9.44343C21.0152 9.2132 20.5546 9.29328 20.3192 9.62361C20.0838 9.95394 20.1657 10.4044 20.5034 10.6346C22.3663 11.8959 23.574 13.8779 23.8197 16.0801ZM7.47382 16.7808H7.54547C7.92418 16.7808 8.25171 16.5005 8.29266 16.1202C8.51783 13.928 9.71538 11.946 11.5577 10.6647C11.8853 10.4345 11.9672 9.98403 11.7318 9.6537C11.4963 9.33338 11.0255 9.2533 10.698 9.48353C8.49736 11.005 7.08488 13.3674 6.80852 15.98C6.76758 16.3804 7.06441 16.7408 7.47382 16.7808ZM20.084 25.1091C18.8251 25.6997 17.474 26 16.0615 26C14.5876 26 13.1854 25.6797 11.8752 25.0291C11.5068 24.8589 11.3635 24.4184 11.5477 24.0581C11.7217 23.6977 12.1721 23.5576 12.5405 23.7278C13.1854 24.0481 13.8711 24.2683 14.5671 24.3984C15.5088 24.5786 16.4709 24.5886 17.4126 24.4285C18.1086 24.3083 18.7944 24.0981 19.429 23.7978C19.8077 23.6277 20.258 23.7678 20.4218 24.1382C20.606 24.4985 20.4627 24.939 20.084 25.1091ZM8.88638 17.8719C7.2999 17.8719 6 19.1331 6 20.6947C6 22.2563 7.28966 23.5175 8.88638 23.5175C10.4831 23.5175 11.7728 22.2563 11.7728 20.6947C11.7728 19.1331 10.4729 17.8719 8.88638 17.8719ZM20.2273 20.6947C20.2273 19.1331 21.5272 17.8719 23.1137 17.8719C24.7104 17.8719 26.0001 19.1331 26.0001 20.6947C26.0001 22.2563 24.7104 23.5175 23.1137 23.5175C21.517 23.5175 20.2273 22.2563 20.2273 20.6947Z" fill="white"/>
<defs>
<filter id="filter0_b_3_1056" x="-4" y="-4" width="40" height="40" filterUnits="userSpaceOnUse" color-interpolation-filters="sRGB">
<feFlood flood-opacity="0" result="BackgroundImageFix"/>
<feGaussianBlur in="BackgroundImageFix" stdDeviation="2"/>
<feComposite in2="SourceAlpha" operator="in" result="effect1_backgroundBlur_3_1056"/>
<feBlend mode="normal" in="SourceGraphic" in2="effect1_backgroundBlur_3_1056" result="shape"/>
</filter>
</defs>
</svg>
