<svg width="65" height="91" viewBox="0 0 65 91" fill="none" xmlns="http://www.w3.org/2000/svg">
<path d="M64.9179 10.9582H64.8978C64.8989 10.9065 64.9137 10.858 64.9137 10.8052C64.9137 7.75254 62.4382 5.27071 59.3834 5.27071C59.3412 5.27071 59.3032 5.28232 59.261 5.28338H43.8994V1.69359V1.69148C43.8994 0.761853 43.146 0.0105519 42.2185 0.00844147V0H22.7511V0.00633123C22.7353 0.00633123 22.7216 0.00211024 22.7057 0.00211024C21.7772 0.00211024 21.0238 0.754466 21.0238 1.6841C21.0238 1.69465 21.0269 1.7052 21.0269 1.71575V5.28232H5.55245C5.54506 5.28232 5.53873 5.28021 5.53135 5.28021C2.47866 5.28021 0 7.76415 0 10.8126C0 10.8622 0.0137175 10.9076 0.0147727 10.9572H0V85.4246H0.00316587C0.00316587 85.4341 0 85.4436 0 85.4531C0 88.5079 2.47972 90.9802 5.5324 90.9802C5.61471 90.9802 5.69174 90.9591 5.77404 90.956V90.9781H59.0615C59.1649 90.9834 59.2631 91.0087 59.3675 91.0087C62.4213 91.0087 64.8957 88.5311 64.8957 85.4816C64.8957 85.4615 64.8905 85.4436 64.8905 85.4236H64.92V10.9582H64.9179ZM54.4303 80.5222H10.4876V15.7583H15.7604V18.9967C15.7583 19.0316 15.7499 19.0632 15.7499 19.0991C15.7499 20.1522 16.6046 21.0132 17.664 21.0132C17.6693 21.0132 17.6735 21.0122 17.6788 21.0122V21.0206H47.2528C48.3133 21.0185 49.1659 20.1596 49.1659 19.1075C49.1659 19.0917 49.1617 19.0769 49.1617 19.0611V15.7583H54.4292L54.4303 80.5222Z" fill="black"/>
<path d="M21.01 36.1342C21.01 35.4399 20.4434 34.8732 19.7459 34.8732C19.7132 34.8732 19.6847 34.8891 19.6531 34.8922V34.8732H17.013C16.3155 34.8732 15.7478 35.442 15.7478 36.1363V38.8745V38.8766C15.7478 39.5689 16.3144 40.1355 17.013 40.1355H19.6541V40.1165C19.6858 40.1186 19.7132 40.1355 19.7449 40.1355C20.4445 40.1355 21.0111 39.5689 21.0111 38.8766V38.8745V36.1363L21.01 36.1342Z" fill="black"/>
<path d="M49.1638 36.1342C49.1638 35.4399 48.5971 34.8732 47.8997 34.8732C47.8986 34.8732 47.8986 34.8732 47.8975 34.8732H27.5386C26.8411 34.8732 26.2734 35.442 26.2734 36.1363V38.8745V38.8766C26.2734 39.5689 26.84 40.1355 27.5386 40.1355H47.8986C48.5982 40.1355 49.1648 39.5689 49.1648 38.8766V38.8745V36.1363L49.1638 36.1342Z" fill="black"/>
<path d="M21.01 46.6598C21.01 45.9654 20.4434 45.3988 19.7459 45.3988C19.7132 45.3988 19.6847 45.4146 19.6531 45.4178V45.3988H17.013C16.3155 45.3988 15.7478 45.9676 15.7478 46.6619V49.4001V49.4022C15.7478 50.0944 16.3144 50.6611 17.013 50.6611H19.6541V50.6421C19.6858 50.6442 19.7132 50.6611 19.7449 50.6611C20.4445 50.6611 21.0111 50.0944 21.0111 49.4022V49.4001V46.6619L21.01 46.6598Z" fill="black"/>
<path d="M49.1638 46.6598C49.1638 45.9654 48.5971 45.3988 47.8997 45.3988C47.8986 45.3988 47.8986 45.3988 47.8975 45.3988H27.5386C26.8411 45.3988 26.2734 45.9676 26.2734 46.6619V49.4001V49.4022C26.2734 50.0944 26.84 50.6611 27.5386 50.6611H47.8986C48.5982 50.6611 49.1648 50.0944 49.1648 49.4022V49.4001V46.6619L49.1638 46.6598Z" fill="black"/>
<path d="M21.01 57.1854C21.01 56.4911 20.4434 55.9244 19.7459 55.9244C19.7132 55.9244 19.6847 55.9403 19.6531 55.9434V55.9244H17.013C16.3155 55.9244 15.7478 56.4932 15.7478 57.1875V59.9257V59.9279C15.7478 60.6201 16.3144 61.1867 17.013 61.1867H19.6541V61.1677C19.6858 61.1698 19.7132 61.1867 19.7449 61.1867C20.4445 61.1867 21.0111 60.6201 21.0111 59.9279V59.9257V57.1875L21.01 57.1854Z" fill="black"/>
<path d="M49.1638 57.1854C49.1638 56.4911 48.5971 55.9244 47.8997 55.9244C47.8986 55.9244 47.8986 55.9244 47.8975 55.9244H27.5386C26.8411 55.9244 26.2734 56.4932 26.2734 57.1875V59.9257V59.9279C26.2734 60.6201 26.84 61.1867 27.5386 61.1867H47.8986C48.5982 61.1867 49.1648 60.6201 49.1648 59.9279V59.9257V57.1875L49.1638 57.1854Z" fill="black"/>
</svg>
